<svg xmlns="http://www.w3.org/2000/svg" width="45.973" height="32.125" viewBox="0 0 45.973 32.125">
  <g id="Group_73004" data-name="Group 73004" transform="translate(279.243 231.988)">
    <path id="Path_76217" data-name="Path 76217" d="M-276.647-220.361c-.56,0-1.053.015-1.545,0a.942.942,0,0,1-1.036-1.037q-.03-2.349,0-4.7c.008-.739.364-1.072,1.114-1.076,1.681-.01,3.362,0,5.042,0h.671c0-1.189,0-2.312,0-3.434,0-1.072.3-1.372,1.349-1.373q2.865,0,5.73,0c.88,0,1.205.326,1.214,1.213.01.974,0,1.948,0,2.922,0,.2.018.408.029.64h15.621c0-1.145,0-2.265,0-3.386,0-1.1.284-1.389,1.385-1.39q2.75,0,5.5,0c1.141,0,1.4.262,1.4,1.426,0,1.1,0,2.206,0,3.381h.676c1.662,0,3.323,0,4.985,0,.9,0,1.227.316,1.233,1.193q.016,2.206,0,4.412c-.006.887-.329,1.2-1.216,1.214-.438.006-.876,0-1.426,0v.744c0,4.546.008,9.091,0,13.637a5.8,5.8,0,0,1-4.315,5.9,6.886,6.886,0,0,1-1.753.206q-14.268.018-28.535.007a5.843,5.843,0,0,1-6.121-6.125q-.007-6.79,0-13.58Zm1.948.03v.63q0,6.818,0,13.637a3.919,3.919,0,0,0,4.241,4.25q14.181,0,28.362,0a3.891,3.891,0,0,0,4.224-4.2q.008-6.847,0-13.694c0-.2-.022-.4-.035-.624Zm-2.563-2.029h41.991v-2.831h-41.991ZM-266.09-230h-4.329v2.787h4.329Zm23.94.007h-4.317v2.772h4.317Z" transform="translate(0 0)" fill="#fff"/>
    <path id="Path_76218" data-name="Path 76218" d="M-209.633-127.7c0-.528-.015-.945,0-1.362a.951.951,0,0,1,.922-.974.962.962,0,0,1,1,.9c.04.45.008.906.008,1.433.463,0,.858-.011,1.252,0,.666.023,1.062.377,1.079.94.017.587-.387.972-1.074,1-.4.016-.793,0-1.246,0,0,.468.013.866,0,1.263a1.009,1.009,0,0,1-1.013,1.08.989.989,0,0,1-.929-1.091c-.009-.38,0-.761,0-1.25-.422,0-.813.009-1.2,0-.721-.02-1.165-.412-1.147-1,.018-.567.449-.929,1.141-.946C-210.467-127.712-210.089-127.7-209.633-127.7Z" transform="translate(-56.959 -86.337)" fill="#fff"/>
    <path id="Path_76219" data-name="Path 76219" d="M-89.141-112.869c-.724,0-1.449.014-2.172,0a.98.98,0,0,1-1.086-.991.977.977,0,0,1,1.076-.945q2.23-.022,4.459,0a.983.983,0,0,1,1.088.992.984.984,0,0,1-1.078.943C-87.616-112.855-88.379-112.869-89.141-112.869Z" transform="translate(-158.234 -99.227)" fill="#fff"/>
  </g>
</svg>
