<svg xmlns="http://www.w3.org/2000/svg" width="46.832" height="32.764" viewBox="0 0 46.832 32.764">
  <g id="Group_73003" data-name="Group 73003" transform="translate(313.333 -65.284)">
    <path id="Path_76216" data-name="Path 76216" d="M-313.333,77.275a2.569,2.569,0,0,1,1.738-1.771,2.321,2.321,0,0,1,2.927,2.134c.029.9.008,1.8.01,2.7,0,.163,0,.327,0,.515h2.355c0-.942.05-1.856-.011-2.762a2.42,2.42,0,0,1,2.688-2.665c.621.046,1.249.016,1.874,0a.808.808,0,0,0,.907-.815,2.334,2.334,0,0,1,2.625-2.3c1.185,0,2.371,0,3.589,0V69.96c-1.212,0-2.411.005-3.61,0a3.7,3.7,0,0,1-.859-.086,2.3,2.3,0,0,1-1.718-2.56,2.278,2.278,0,0,1,2.237-2.017q7.885-.017,15.77,0a2.277,2.277,0,0,1,2.239,2.305,2.3,2.3,0,0,1-2.246,2.352c-1.142.026-2.285.007-3.428.008h-.529v2.347h.815c.777,0,1.555-.017,2.331.008a2.312,2.312,0,0,1,2.291,2.313c.013.472,0,.945,0,1.417.007.66.283.936.954.942s1.341,0,2.011,0a2.339,2.339,0,0,1,2.495,2.484c.011,1.067,0,2.133,0,3.2v.52h1.563c0-.247-.006-.5,0-.75a2.3,2.3,0,0,1,2.357-2.333,13.951,13.951,0,0,1,2.322.1,3.776,3.776,0,0,1,3.1,3.631c.035,2.712.039,5.425,0,8.136a3.847,3.847,0,0,1-3.778,3.724,12.17,12.17,0,0,1-1.917-.02,2.267,2.267,0,0,1-2.081-2.268c-.008-.255,0-.511,0-.794h-1.541c-.008.17-.022.331-.023.493,0,.838.013,1.676-.005,2.514a2.321,2.321,0,0,1-2.467,2.419q-8.137.006-16.273.006a2.515,2.515,0,0,1-1.88-.781c-1.158-1.17-2.33-2.324-3.486-3.5a1.238,1.238,0,0,0-.969-.408c-.975.019-1.95.011-2.925,0a2.321,2.321,0,0,1-2.425-2.41c-.009-1.248,0-2.5,0-3.783h-2.355v1.062c0,.655.006,1.311,0,1.966a2.328,2.328,0,0,1-1.906,2.343,2.338,2.338,0,0,1-2.671-1.631,1.753,1.753,0,0,0-.1-.2Zm26.854,19.21h7.862c.979,0,1.18-.2,1.18-1.173q0-6.6,0-13.21c0-.868.007-1.737,0-2.605-.007-.678-.278-.943-.944-.948-.731,0-1.463.013-2.194-.006a2.324,2.324,0,0,1-2.315-2.338c-.008-.426,0-.853,0-1.28,0-.812-.246-1.055-1.069-1.056q-7.13,0-14.261,0c-.8,0-.972.157-1.076.965a2.342,2.342,0,0,1-2.41,2.153c-.686.009-1.371,0-2.057,0-.712,0-.975.257-.976.953q0,6.445,0,12.89c0,.7.27.974.961.977.929,0,1.86.025,2.788-.006a2.723,2.723,0,0,1,2.155.9c1.1,1.138,2.242,2.239,3.352,3.371a1.3,1.3,0,0,0,1.01.417C-291.812,96.479-289.145,96.485-286.479,96.485Zm13.73-8.6c0,1.783,0,3.566,0,5.349,0,.627.263.9.88.916a15.458,15.458,0,0,0,1.69-.027,2.258,2.258,0,0,0,2.093-2.214q.04-4,0-8a2.3,2.3,0,0,0-2.273-2.238c-.457-.013-.914,0-1.371,0-.766,0-1.018.248-1.019,1.006Q-272.752,85.277-272.749,87.882ZM-290.71,68.4h2.831c1.614,0,3.227,0,4.841,0,.638,0,1.016-.433.883-.98-.1-.392-.4-.575-.964-.576H-298.28a2.079,2.079,0,0,0-.364.014.748.748,0,0,0-.455,1.229,1.256,1.256,0,0,0,.808.3C-295.764,68.412-293.237,68.4-290.71,68.4Zm-19.507,15.632q0-1.965,0-3.93c0-.777.009-1.554-.006-2.33a.746.746,0,0,0-.774-.781.772.772,0,0,0-.773.745c-.01.106,0,.213,0,.32q0,5.94,0,11.88a2.626,2.626,0,0,0,.013.41.764.764,0,0,0,.977.64.79.79,0,0,0,.571-.877C-310.22,88.086-310.217,86.06-310.217,84.035ZM-288.4,72.287v-2.3h-4.608v2.3ZM-274.35,91V84.811h-1.49V91Zm-31.98-5.446V82.48h-2.292v3.071Z" transform="translate(0 0)" fill="#fff"/>
  </g>
</svg>
