<svg xmlns="http://www.w3.org/2000/svg" width="63" height="63" viewBox="0 0 63 63">
  <g id="Group_72928" data-name="Group 72928" transform="translate(-30 -325)">
    <g id="Rectangle_9097" data-name="Rectangle 9097" transform="translate(30 325)" fill="#fff" stroke="#c1d6ef" stroke-width="1">
      <rect width="63" height="63" rx="5" stroke="none"/>
      <rect x="0.5" y="0.5" width="62" height="62" rx="4.5" fill="none"/>
    </g>
    <g id="Group_72889" data-name="Group 72889" transform="translate(41.2 331.72)">
      <path id="Path_75882" data-name="Path 75882" d="M-2295.528-1006.586c-.054.836-.126,1.671-.158,2.508-.042,1.087,0,2.178-.087,3.26a14.8,14.8,0,0,1-2.619,6.985,37.038,37.038,0,0,1-6.09,6.843,1.092,1.092,0,0,1-1.6.075c-.433-.448-.35-1.049.185-1.619,1.6-1.71,3.275-3.366,4.776-5.163a13.451,13.451,0,0,0,3.181-6.737,15.957,15.957,0,0,0,.112-2.539,15.248,15.248,0,0,1,.367-4.4,4.661,4.661,0,0,1,.5-1.164,1.613,1.613,0,0,1,2.642-.334,5.554,5.554,0,0,1,1.467,2.808,16.493,16.493,0,0,1-.358,8.7,25.586,25.586,0,0,1-8.037,12.224,2.377,2.377,0,0,1-.373.267.977.977,0,0,1-1.336-.161.948.948,0,0,1,.01-1.339,7,7,0,0,1,.73-.71,22.362,22.362,0,0,0,7.266-12.063,13.588,13.588,0,0,0,.046-6.362,10.551,10.551,0,0,0-.418-1.1Z" transform="translate(2315.875 1035.814)" fill="#3d6398"/>
      <path id="Path_75883" data-name="Path 75883" d="M-2300.674-1109.6a13.12,13.12,0,0,1,8.977,3.928,17.96,17.96,0,0,1,4.9,8.837c.224.907-.315,1.558-1.159,1.444-.571-.076-.752-.519-.9-.985-.3-.935-.542-1.9-.93-2.8a13.652,13.652,0,0,0-7.576-7.652,8.13,8.13,0,0,0-5.351-.39,6.834,6.834,0,0,0-4.648,4.813c-.268.787-.476,1.594-.747,2.379a.944.944,0,0,1-1.25.739.855.855,0,0,1-.749-1.075,15.393,15.393,0,0,1,1.87-5.141A8.7,8.7,0,0,1-2300.674-1109.6Z" transform="translate(2319.139 1122.351)" fill="#3d6398"/>
      <path id="Path_75884" data-name="Path 75884" d="M-2209.271-1044.112a26.056,26.056,0,0,1-2.646,11.311,23.9,23.9,0,0,1-3.874,5.354,1.187,1.187,0,0,1-1.244.4.935.935,0,0,1-.622-1.291,2.158,2.158,0,0,1,.46-.662,20.18,20.18,0,0,0,5.48-11.323,20.355,20.355,0,0,0-.8-10.794,16.143,16.143,0,0,0-2.657-4.732c-.162-.2-.322-.4-.468-.6-.368-.527-.357-.81.029-1.223a.915.915,0,0,1,1.359-.178,6.23,6.23,0,0,1,1.144,1.217A19.8,19.8,0,0,1-2209.271-1044.112Z" transform="translate(2239.334 1077.855)" fill="#3d6398"/>
      <path id="Path_75885" data-name="Path 75885" d="M-2328.581-1078.01c.9.23,1.814.411,2.693.705a.953.953,0,0,1,.661,1.373,1,1,0,0,1-1.385.564,5.71,5.71,0,0,0-3.111-.269,4.5,4.5,0,0,0-3.524,3.631c-.4,1.77-.674,3.57-.931,5.367a22.129,22.129,0,0,1-7.116,13.74,2.339,2.339,0,0,1-.578.408,1.039,1.039,0,0,1-1.239-.321.911.911,0,0,1,.01-1.178,7.654,7.654,0,0,1,.727-.785,19.368,19.368,0,0,0,4.982-7.429,35.392,35.392,0,0,0,1.364-6.47,20.04,20.04,0,0,1,1.108-4.957,6.849,6.849,0,0,1,6.307-4.249Z" transform="translate(2347.805 1095.064)" fill="#3d6398"/>
      <path id="Path_75886" data-name="Path 75886" d="M-2350.583-1131.512a1.32,1.32,0,0,1-.781,1.017,21.8,21.8,0,0,0-2.661,1.775,11.435,11.435,0,0,0-3.481,6.382c-.438,1.918-.734,3.87-1.141,5.8a9.965,9.965,0,0,1-2.343,4.742,2.412,2.412,0,0,1-.859.6.854.854,0,0,1-1.052-.412.819.819,0,0,1-.01-1.086c1.724-1.854,2.246-4.18,2.642-6.562a25.935,25.935,0,0,1,2.156-7.562,11.655,11.655,0,0,1,5.693-5.481c.9-.415,1.574-.2,1.786.561C-2350.611-1131.659-2350.6-1131.576-2350.583-1131.512Z" transform="translate(2364.898 1142.138)" fill="#3d6398"/>
      <path id="Path_75887" data-name="Path 75887" d="M-2255.2-1032.283c-.048.577-.054,1.09-.141,1.588a.943.943,0,0,1-1.029.857.88.88,0,0,1-.915-.906c-.093-1.116-.1-2.239-.2-3.354a12.1,12.1,0,0,0-2.508-6.3,3.491,3.491,0,0,0-.491-.516,1.943,1.943,0,0,0-3.1.255,6.672,6.672,0,0,0-1.271,3.751,9.472,9.472,0,0,1-.252,1.5.885.885,0,0,1-1.067.653.9.9,0,0,1-.894-.936,10.872,10.872,0,0,1,1.674-6.049,3.9,3.9,0,0,1,3.742-1.937,4.8,4.8,0,0,1,3.149,1.823,13.575,13.575,0,0,1,3.044,6.951C-2255.308-1034.018-2255.272-1033.115-2255.2-1032.283Z" transform="translate(2281.931 1065.431)" fill="#3d6398"/>
      <path id="Path_75888" data-name="Path 75888" d="M-2311.64-1172.7a20.367,20.367,0,0,1,8.822,1.927c.747.345,1,.808.8,1.384-.209.619-.775.845-1.509.581-1.006-.362-1.991-.794-3.014-1.1a15.131,15.131,0,0,0-13.988,2.588c-.164.121-.325.248-.5.359a1,1,0,0,1-1.484-.2.942.942,0,0,1,.2-1.433,16.533,16.533,0,0,1,6.411-3.461A15.57,15.57,0,0,1-2311.64-1172.7Z" transform="translate(2330.036 1176.853)" fill="#3d6398"/>
      <path id="Path_75889" data-name="Path 75889" d="M-2132.687-1053.195c-.224,2.006-.435,4.015-.683,6.018a.982.982,0,0,1-1.154.957.945.945,0,0,1-.871-1.155c.074-1.033.191-2.064.306-3.093a27.538,27.538,0,0,0-1.779-12.649c-.239-.653-.476-1.309-.69-1.97-.243-.748-.066-1.23.5-1.452a1.01,1.01,0,0,1,1.427.68c.521,1.381.981,2.785,1.428,4.192a25.675,25.675,0,0,1,1.379,8.46Z" transform="translate(2170.17 1085.24)" fill="#3d6398"/>
      <path id="Path_75890" data-name="Path 75890" d="M-2260.283-1141.839a20.5,20.5,0,0,1,8.881,2.53,15.058,15.058,0,0,1,5.652,4.961c.474.724.37,1.306-.272,1.7a.775.775,0,0,1-1.063-.1,11.381,11.381,0,0,1-.806-.919,16.228,16.228,0,0,0-10.176-5.8,16.216,16.216,0,0,0-3.3-.1c-.911.015-1.392-.193-1.5-.788-.113-.627.265-1.078,1.155-1.282C-2261.186-1141.75-2260.64-1141.789-2260.283-1141.839Z" transform="translate(2278.33 1150.196)" fill="#3d6398"/>
      <path id="Path_75891" data-name="Path 75891" d="M-2153.223-1132.281c.006.878-.267,1.226-.847,1.326-.6.1-.96-.169-1.2-.829-.666-1.813-1.262-3.658-2.054-5.415a14.466,14.466,0,0,0-5.073-6.007,6.919,6.919,0,0,1-.8-.632.966.966,0,0,1-.156-1.295.969.969,0,0,1,1.208-.377,3.13,3.13,0,0,1,.623.342,19.516,19.516,0,0,1,7.759,10.968C-2153.545-1133.49-2153.359-1132.768-2153.223-1132.281Z" transform="translate(2192.514 1153.433)" fill="#3d6398"/>
      <path id="Path_75892" data-name="Path 75892" d="M-2154.866-987.293a25.758,25.758,0,0,1-1.744,8.4,11.457,11.457,0,0,1-.421,1.092.969.969,0,0,1-1.308.551.822.822,0,0,1-.594-1.12,18.72,18.72,0,0,1,.668-2.24,21.14,21.14,0,0,0,.832-11.1,7.354,7.354,0,0,1-.105-.756,1.074,1.074,0,0,1,.887-1.231,1.068,1.068,0,0,1,1.2.986c.109.67.212,1.343.282,2.018C-2155.051-989.561-2154.965-988.426-2154.866-987.293Z" transform="translate(2188.578 1022.246)" fill="#3d6398"/>
      <path id="Path_75893" data-name="Path 75893" d="M-2253.032-916.683a3.726,3.726,0,0,1,.476-.8,26.039,26.039,0,0,0,6.678-11.672,3.04,3.04,0,0,1,.15-.432.947.947,0,0,1,1.175-.635.981.981,0,0,1,.759,1.245c-.248.95-.524,1.9-.852,2.823a26.34,26.34,0,0,1-6.224,9.931,2.318,2.318,0,0,1-.74.52A1.068,1.068,0,0,1-2253.032-916.683Z" transform="translate(2269.817 967.452)" fill="#3d6398"/>
      <path id="Path_75894" data-name="Path 75894" d="M-2315.957-965.488a12.993,12.993,0,0,1-1.79,5.388,35.721,35.721,0,0,1-4.675,5.845c-.424.465-.844.935-1.286,1.383a.983.983,0,0,1-1.2.284.852.852,0,0,1-.491-1.25,6.462,6.462,0,0,1,.867-1.25c1.2-1.387,2.482-2.712,3.638-4.136a12.7,12.7,0,0,0,2.847-6.284,1.6,1.6,0,0,1,.574-1.009C-2316.783-966.979-2315.947-966.392-2315.957-965.488Z" transform="translate(2332.427 998.903)" fill="#3d6398"/>
      <path id="Path_75895" data-name="Path 75895" d="M-2222.668-1202.884c.877.2,2.115.43,3.322.769a21.006,21.006,0,0,1,9.42,5.556c.59.6.637,1.109.16,1.654a.767.767,0,0,1-1.129.187,8.587,8.587,0,0,1-1.192-.953,19.136,19.136,0,0,0-11.053-5.106c-.474-.064-.912-.182-1.1-.688C-2224.53-1202.255-2224-1202.872-2222.668-1202.884Z" transform="translate(2245.014 1202.923)" fill="#3d6398"/>
      <path id="Path_75896" data-name="Path 75896" d="M-2376.219-1112.62c.188-.85.412-1.859.637-2.869a26.059,26.059,0,0,1,2.153-6.824,24.381,24.381,0,0,1,2.215-3.28.935.935,0,0,1,1.542-.14.963.963,0,0,1,.022,1.485,13.992,13.992,0,0,0-3.077,6.02c-.512,1.97-.959,3.957-1.449,5.934-.18.728-.537,1.015-1.109.953C-2375.906-1111.408-2376.226-1111.787-2376.219-1112.62Z" transform="translate(2376.219 1136.58)" fill="#3d6398"/>
      <path id="Path_75897" data-name="Path 75897" d="M-2351.6-1020c-.49,1.639-.932,3.294-1.485,4.912a13,13,0,0,1-3.527,5.465,7.576,7.576,0,0,1-1.582,1.092.858.858,0,0,1-1.235-.342.934.934,0,0,1,.218-1.36c3.082-2.147,4.3-5.355,5.109-8.81a11.223,11.223,0,0,1,.421-1.463.952.952,0,0,1,1.161-.59A1.205,1.205,0,0,1-2351.6-1020Z" transform="translate(2361.887 1045.933)" fill="#3d6398"/>
      <path id="Path_75898" data-name="Path 75898" d="M-2319.772-1203.164a6.955,6.955,0,0,1,.7,0,1.015,1.015,0,0,1,.992.978,1.02,1.02,0,0,1-.973,1.052c-.861.1-1.732.137-2.587.276a18.628,18.628,0,0,0-7.566,3.144,7.475,7.475,0,0,1-.684.443.986.986,0,0,1-1.4-.262.92.92,0,0,1,.225-1.39,26.874,26.874,0,0,1,2.683-1.759A18.936,18.936,0,0,1-2319.772-1203.164Z" transform="translate(2337.604 1203.171)" fill="#3d6398"/>
    </g>
  </g>
</svg>
