<svg xmlns="http://www.w3.org/2000/svg" width="31.398" height="34.936" viewBox="0 0 31.398 34.936">
  <g id="Group_73002" data-name="Group 73002" transform="translate(265.007 -74.528)">
    <path id="Path_76215" data-name="Path 76215" d="M-259.314,101.507c.314-.628.623-1.242.928-1.856.44-.883.877-1.767,1.317-2.649a2.479,2.479,0,0,1,2.311-1.444.908.908,0,0,0,.56-.235c.785-.777,1.544-1.579,2.317-2.369a1.594,1.594,0,0,1,2.112-.355l.69.331,3.814-8.074c-.053-.058-.1-.107-.14-.153a2.532,2.532,0,0,1-.529-3.008q1.229-2.669,2.475-5.33a2.967,2.967,0,0,1,4.139-1.5c.635.3,1.27.593,1.9.908a3,3,0,0,1,1.448,3.967q-1.255,2.828-2.6,5.614a2.421,2.421,0,0,1-2.486,1.4.373.373,0,0,0-.3.139q-1.879,3.954-3.736,7.919c0,.008,0,.023.012.063.084.048.182.107.284.159a1.616,1.616,0,0,1,.942,1.538c.007.728-.005,1.455.008,2.183a.5.5,0,0,0,.145.358,2.8,2.8,0,0,1,1.185,2.1c.04.32.107.638.157.921,1.3.288,2.574.519,3.821.866,1.285.357,2.545.808,3.8,1.253a1.535,1.535,0,0,1,1.124,1.633c.008.663.011,1.326,0,1.988a1.484,1.484,0,0,1-1.618,1.587h-28.15A1.474,1.474,0,0,1-265,107.874q-.016-3.373,0-6.744a1.419,1.419,0,0,1,1.528-1.567,1.978,1.978,0,0,1,.747.3A18.431,18.431,0,0,0-259.314,101.507Zm-4.352-.746a2.917,2.917,0,0,0-.086.464c0,2.183,0,4.366-.007,6.549,0,.328.107.453.455.449,1.39-.018,2.781-.007,4.171-.007q11.89,0,23.781.008c.384,0,.506-.126.5-.491-.018-.584-.016-1.169,0-1.753a.545.545,0,0,0-.41-.6,34.461,34.461,0,0,0-5.514-1.641,27.758,27.758,0,0,0-8.525-.453c-1.292.137-2.58.313-3.875.4a16.686,16.686,0,0,1-9.124-2.148C-262.738,101.3-263.16,101.048-263.666,100.761Zm5.559,1.122c.125.04.22.074.317.1a15.84,15.84,0,0,0,6.415.27,31.683,31.683,0,0,1,6.8-.291c.291.024.583.033.908.05-.038-.237-.081-.427-.1-.618a1.535,1.535,0,0,0-1.246-1.488c-1.072-.307-2.123-.685-3.184-1.029q-3.071-1-6.146-1.983a1.173,1.173,0,0,0-1.521.513C-256.623,98.88-257.352,100.371-258.108,101.883Zm21.152-23.224a1.827,1.827,0,0,0-1.028-1.774q-.975-.486-1.968-.937a1.7,1.7,0,0,0-2.329.848q-1.289,2.726-2.538,5.47a1.28,1.28,0,0,0,.666,1.785q1.331.644,2.668,1.275a1.249,1.249,0,0,0,1.858-.664q1.234-2.644,2.453-5.3A4.562,4.562,0,0,0-236.956,78.659Zm-8.151,19.911c0-.7.017-1.353-.012-2a.584.584,0,0,0-.268-.419q-2.5-1.256-5.024-2.467a.506.506,0,0,0-.454.036c-.738.724-1.453,1.473-2.221,2.263Zm-1.157-4.253,3.813-8.065-1.708-.813-3.8,8.045Z" transform="translate(0)" fill="#fff"/>
  </g>
</svg>
