<svg xmlns="http://www.w3.org/2000/svg" width="34.131" height="34.141" viewBox="0 0 34.131 34.141">
  <g id="Group_70649" data-name="Group 70649" transform="translate(-1226.728 321.864)">
    <path id="Path_30975" data-name="Path 30975" d="M1230.006-287.723a8.46,8.46,0,0,1-1.331-.473,3.538,3.538,0,0,1-1.943-3.286q-.009-5.482,0-10.965,0-5.749,0-11.5a3.68,3.68,0,0,1,3.263-3.748,4.676,4.676,0,0,1,.714-.033c4,0,8.007.01,12.011-.009a4.54,4.54,0,0,1,3.035.809l1.9-1.891c.1-.1.189-.192.291-.282a1.016,1.016,0,0,1,1.391-.018,6.088,6.088,0,0,1,.481.524c.131-.12.221-.2.305-.279.877-.856,1.759-1.707,2.628-2.571a1.362,1.362,0,0,1,1.031-.421c1.524.011,3.048,0,4.572.005a1.026,1.026,0,0,1,1.145,1.112q0,1.466,0,2.933a1.024,1.024,0,0,1-1.133,1.091,5.038,5.038,0,0,0-1.752.065c-.505.208-.856.772-1.278,1.176-.372.357-.75.708-1.215,1.146a4.013,4.013,0,0,1,.453.325,1.008,1.008,0,0,1,.008,1.624c-.609.6-1.222,1.194-1.833,1.792-.079.077-.154.159-.249.258a4.305,4.305,0,0,1,.8,2.964c-.016,5.21-.007,10.421-.007,15.631a3.686,3.686,0,0,1-3.226,3.982.2.2,0,0,0-.056.036Zm-1.229-15.035q0,5.584,0,11.167a1.71,1.71,0,0,0,1.927,1.867h18.635a1.7,1.7,0,0,0,1.9-1.855q0-8.167.006-16.334a1.951,1.951,0,0,0-.633-1.485q-2.942-2.854-5.865-5.727a2.042,2.042,0,0,0-1.524-.609q-6.263.015-12.525.005a1.7,1.7,0,0,0-1.921,1.87Q1228.777-308.308,1228.777-302.757Zm24.021-13.069c.7-.687,1.459-1.363,2.136-2.108a2.1,2.1,0,0,1,1.969-.792,3.672,3.672,0,0,0,.517,0v-1.136c-.619,0-1.209,0-1.8,0a4.616,4.616,0,0,0-1.583.058c-.447.178-.762.675-1.132,1.035-.529.514-1.055,1.029-1.558,1.52Zm-4.144-1.062-1.38,1.351,3.768,3.679,1.381-1.349Z" transform="translate(0 0)" fill="#fff"/>
    <path id="Path_30976" data-name="Path 30976" d="M1546.484-201.954a5.118,5.118,0,0,1-.218.618,1.9,1.9,0,0,1-2.148.988,1.916,1.916,0,0,1-1.466-1.881,2.079,2.079,0,0,1,.343-1.062c.339-.548.7-1.086,1.074-1.608a.617.617,0,0,1,1.02.022,7.76,7.76,0,0,1,1.4,2.411Zm-1.876-1.454h-.083c-.182.335-.377.663-.541,1.007a.56.56,0,0,0,.2.7.623.623,0,0,0,.77,0,.565.565,0,0,0,.2-.7C1544.984-202.746,1544.79-203.074,1544.608-203.409Z" transform="translate(-285.625 -105.236)" fill="#fff"/>
    <path id="Path_30977" data-name="Path 30977" d="M1309.759-132.443a2.55,2.55,0,0,1-.274.458c-.3.324-.623.622-.924.942a.471.471,0,0,0-.12.292q-.012,1.672,0,3.343a.441.441,0,0,0,.114.273c.3.314.609.615.914.923a.651.651,0,0,1,.057.963.65.65,0,0,1-.963-.06c-.3-.3-.6-.608-.907-.9a.473.473,0,0,0-.29-.125q-1.682-.013-3.364,0a.411.411,0,0,0-.256.105c-.318.3-.624.62-.937.93a.646.646,0,0,1-.962.042.643.643,0,0,1,.06-.947c.3-.308.616-.608.914-.923a.443.443,0,0,0,.117-.273q.012-1.682,0-3.365a.474.474,0,0,0-.126-.29c-.292-.31-.6-.605-.9-.908a.645.645,0,0,1-.056-.962.647.647,0,0,1,.962.06c.3.295.6.589.887.89a.42.42,0,0,0,.332.143c1.107-.006,2.214,0,3.322-.009a.471.471,0,0,0,.292-.119c.33-.312.643-.642.969-.958a.617.617,0,0,1,.706-.14A.768.768,0,0,1,1309.759-132.443Zm-5.528,4.814h2.912v-2.914h-2.912Z" transform="translate(-66.844 -165.686)" fill="#fff"/>
    <path id="Path_30978" data-name="Path 30978" d="M1277.57-226.751c-1.335,0-2.669.007-4,0a1.893,1.893,0,0,1-1.891-1.985,1.884,1.884,0,0,1,1.814-1.8q2.832-.021,5.665,0a.781.781,0,0,1,.49.2c.84.816,1.664,1.649,2.49,2.479a.611.611,0,0,1,.146.705.616.616,0,0,1-.621.4Zm2.578-1.287c-.4-.394-.748-.755-1.114-1.1a.507.507,0,0,0-.312-.124c-.667-.011-1.334-.006-2-.006-1.029,0-2.059,0-3.088,0a.625.625,0,0,0-.622.362.62.62,0,0,0,.62.877q3.162,0,6.325,0C1280-228.03,1280.05-228.034,1280.149-228.038Z" transform="translate(-42.388 -82.564)" fill="#fff"/>
  </g>
</svg>
