<svg id="Group_70650" data-name="Group 70650" xmlns="http://www.w3.org/2000/svg" width="38.38" height="33.632" viewBox="0 0 38.38 33.632">
  <path id="Path_30979" data-name="Path 30979" d="M1587.467-441.456a4.26,4.26,0,0,1,.839-1.934c.357-.391.793-.711,1.182-1.075a1.6,1.6,0,0,0,.436-.514q1.664-4.29,3.29-8.594a.5.5,0,0,1,.552-.4q8.751.018,17.5,0a.5.5,0,0,1,.555.392q1.635,4.321,3.3,8.63a.873.873,0,0,0,.324.42,4.142,4.142,0,0,1,2.125,3.752c0,.237,0,.475.007.712a.646.646,0,0,0,.026.1H1620v-.341q0-5.134.006-10.268a.387.387,0,0,0-.316-.447,4.674,4.674,0,0,1-3.371-4.5c-.042-1.223-.01-2.448-.01-3.672a1.287,1.287,0,0,1,.025-.169h1.314v-3.136h2.26v3.1h2.271v-3.1h2.25v3.118h1.4c.007.146.018.254.016.363-.019,1.361.059,2.732-.083,4.079a4.412,4.412,0,0,1-3.012,3.808.649.649,0,0,0-.512.731c.019,4.072.011,8.145.011,12.217v.488h-4.667v4.474h-2.03a3.926,3.926,0,0,1-1.414,3.552,3.5,3.5,0,0,1-2.362.792,3.605,3.605,0,0,1-2.727-1.358,4.005,4.005,0,0,1-.823-2.963h-11.4a3.884,3.884,0,0,1-1.58,3.655,3.508,3.508,0,0,1-2.405.66,3.807,3.807,0,0,1-3.369-4.334h-2.007Zm19.653,5.964h8.184c.008-.088.019-.149.019-.21,0-1.711.016-3.423,0-5.134a1.852,1.852,0,0,0-2.031-1.953q-10.774,0-21.548,0a1.865,1.865,0,0,0-2.022,2.037q0,2.455,0,4.909c0,.12.011.239.017.353h8.189v-4.634h9.2Zm5.531-9.563c-.031-.092-.044-.139-.061-.184-.79-2.072-1.586-4.143-2.365-6.22-.094-.252-.249-.258-.46-.257q-7.247,0-14.493,0a.429.429,0,0,0-.486.323c-.753,2.006-1.526,4.006-2.29,6.008-.038.1-.063.205-.1.333Zm5.915-12.049c0,.591-.022,1.14,0,1.686a2.5,2.5,0,0,0,1.981,2.326,2.533,2.533,0,0,0,2.742-1.294,6.118,6.118,0,0,0,.306-2.718Zm-13.718,21.625v-2.389h-4.662v2.389Zm-13.092,2.281c-.07.783-.027,1.486.721,1.9a1.323,1.323,0,0,0,1.515-.1,1.769,1.769,0,0,0,.563-1.8Zm18.734,0c-.078.792-.035,1.5.734,1.919a1.378,1.378,0,0,0,1.572-.175,1.847,1.847,0,0,0,.484-1.743Z" transform="translate(-1587.467 462.494)" fill="#fff"/>
  <path id="Path_30980" data-name="Path 30980" d="M1879.777-170.522a.96.96,0,0,1,.964.964.962.962,0,0,1-.983.97.962.962,0,0,1-.952-.977A.96.96,0,0,1,1879.777-170.522Z" transform="translate(-1856.211 193.279)" fill="#fff"/>
  <path id="Path_30981" data-name="Path 30981" d="M1652.187-169.546a.961.961,0,0,1-.965.965.964.964,0,0,1-.97-.96.96.96,0,0,1,.978-.975A.957.957,0,0,1,1652.187-169.546Z" transform="translate(-1647.3 193.274)" fill="#fff"/>
</svg>
