<svg xmlns="http://www.w3.org/2000/svg" width="14.59" height="17.918" viewBox="0 0 14.59 17.918">
  <g id="Group_72259" data-name="Group 72259" transform="translate(0 0)">
    <path id="Path_72075" data-name="Path 72075" d="M-1284.421,499c.11.034.221.065.329.1a1.673,1.673,0,0,1,1.106,1.535c0,.192,0,.384,0,.6h.194q1.411,0,2.822,0a1.4,1.4,0,0,1,1.473,1.474c0,.338,0,.676,0,1.015a.558.558,0,0,1-.6.59h-13.391a.557.557,0,0,1-.6-.59,10.41,10.41,0,0,1,.031-1.326,1.35,1.35,0,0,1,1.37-1.161c.958-.005,1.916,0,2.874,0h.21c0-.173,0-.335,0-.5a1.675,1.675,0,0,1,1.377-1.714.286.286,0,0,0,.06-.03Zm-3.049,2.227h3.363c0-.2.006-.384,0-.57a.548.548,0,0,0-.542-.535q-1.138-.01-2.277,0a.548.548,0,0,0-.54.518C-1287.478,500.832-1287.47,501.024-1287.47,501.227Z" transform="translate(1293.085 -499)" fill="#e50d23"/>
    <path id="Path_72076" data-name="Path 72076" d="M-1267.493,636.731h6.1c.273,0,.31.045.3.318q-.1,2-.19,4c-.091,1.875-.173,3.751-.279,5.625a1.64,1.64,0,0,1-1.641,1.531c-.689.009-1.379,0-2.068,0q-3.217,0-6.432,0a1.658,1.658,0,0,1-1.693-1.377,9.414,9.414,0,0,1-.075-1.1q-.114-2.376-.224-4.752-.094-1.974-.19-3.948c-.012-.248.032-.3.28-.3Zm-3.365,5.039v1.487c0,.717,0,1.434,0,2.152a.559.559,0,0,0,.5.558.563.563,0,0,0,.6-.446,1.145,1.145,0,0,0,.012-.226q0-3.525,0-7.05a1.324,1.324,0,0,0,0-.157.547.547,0,0,0-.359-.477.558.558,0,0,0-.76.557C-1270.859,639.367-1270.858,640.568-1270.858,641.77Zm3.927,0q0-1.793,0-3.586a.573.573,0,0,0-.352-.572.562.562,0,0,0-.769.564q0,2.213,0,4.426c0,.921,0,1.843,0,2.764a.559.559,0,0,0,.345.558.559.559,0,0,0,.776-.55Q-1266.928,643.571-1266.931,641.769Zm2.8.018q0-1.8,0-3.6a.573.573,0,0,0-.351-.573.563.563,0,0,0-.77.563q0,2.125,0,4.251c0,.974,0,1.948,0,2.921a.586.586,0,0,0,.185.472.527.527,0,0,0,.6.1.553.553,0,0,0,.337-.545Q-1264.127,643.58-1264.126,641.787Z" transform="translate(1274.788 -630.292)" fill="#e50d23"/>
  </g>
</svg>
