<svg xmlns="http://www.w3.org/2000/svg" width="30.845" height="30.845" viewBox="0 0 30.845 30.845">
  <g id="Group_72272" data-name="Group 72272" transform="translate(0.75 0.75)">
    <path id="Path_72088" data-name="Path 72088" d="M274.789,157.85h0a14.673,14.673,0,0,1-14.673-14.672h0a14.673,14.673,0,0,1,14.673-14.673h0a14.672,14.672,0,0,1,14.672,14.673h0A14.672,14.672,0,0,1,274.789,157.85Z" transform="translate(-260.116 -128.505)" fill="none" stroke="#092853" stroke-width="1.5"/>
    <path id="Path_72089" data-name="Path 72089" d="M269.007,150.561a9.124,9.124,0,0,0,14.035-8.1,6.5,6.5,0,0,0,1.6-1.661,6.4,6.4,0,0,1-1.842.505,3.212,3.212,0,0,0,1.41-1.775,6.435,6.435,0,0,1-2.036.779,3.21,3.21,0,0,0-5.466,2.926,9.1,9.1,0,0,1-6.611-3.352,3.211,3.211,0,0,0,.992,4.283,3.2,3.2,0,0,1-1.453-.4,3.212,3.212,0,0,0,2.573,3.187,3.212,3.212,0,0,1-1.448.054,3.209,3.209,0,0,0,3,2.228A6.451,6.451,0,0,1,269.007,150.561Z" transform="translate(-262.152 -130.976)" fill="#3d6398"/>
  </g>
</svg>
