<svg xmlns="http://www.w3.org/2000/svg" width="47.048" height="47.038" viewBox="0 0 47.048 47.038">
  <g id="Group_72066" data-name="Group 72066" transform="translate(887.111 -45.778)">
    <path id="Path_71788" data-name="Path 71788" d="M-865.423,45.778h3.584c.126.031.25.074.378.093.772.111,1.552.179,2.315.331a22.992,22.992,0,0,1,13.533,7.962,22.908,22.908,0,0,1,5.33,18.3,22.415,22.415,0,0,1-6.511,13.273A22.933,22.933,0,0,1-866.738,92.6a22.575,22.575,0,0,1-13.313-6.529,23.109,23.109,0,0,1-6.8-13.282c-.085-.551-.176-1.1-.264-1.651V67.374c.069-.412.146-.824.206-1.238a23.15,23.15,0,0,1,5.707-12.4,23.189,23.189,0,0,1,14.125-7.7C-866.523,45.956-865.973,45.866-865.423,45.778ZM-867.4,71.335l-.2.022a2.342,2.342,0,0,0-.273-.428q-2.2-2.216-4.413-4.42a.912.912,0,0,0-1.53-.007q-1.562,1.555-3.118,3.117c-.6.6-.6.991,0,1.6q4.309,4.329,8.62,8.655c.6.6.993.611,1.593.012q8.254-8.242,16.5-16.487c.558-.558.556-.967,0-1.53q-1.506-1.514-3.019-3.021c-.723-.723-1.083-.725-1.8-.011q-6.022,6.025-12.041,12.053A3.392,3.392,0,0,0-867.4,71.335Z" transform="translate(0)" fill="#4bad4f"/>
  </g>
</svg>
