<svg xmlns="http://www.w3.org/2000/svg" width="19.155" height="20.426" viewBox="0 0 19.155 20.426">
  <g id="Group_72215" data-name="Group 72215" transform="translate(-1152.071 -1957.421)">
    <path id="Path_72023" data-name="Path 72023" d="M1167.993,1957.421a9.514,9.514,0,0,1,1.227.384,3.577,3.577,0,0,1-.625,6.661,3.483,3.483,0,0,1-3.54-.989,1.728,1.728,0,0,1-.126-.16l-.519.312q-2.612,1.572-5.227,3.141c-.142.085-.19.153-.128.324a3.218,3.218,0,0,1,.033,2.136l5.638,2.887a8.38,8.38,0,0,1,.718-.679,3.577,3.577,0,0,1,5.768,3.026,3.586,3.586,0,0,1-7.134.273,3.289,3.289,0,0,1,.1-1.38c.031-.1.023-.165-.087-.221q-2.733-1.393-5.463-2.793a.42.42,0,0,0-.056-.017,3.558,3.558,0,0,1-3.171,1.481,3.39,3.39,0,0,1-2.325-1.094,3.586,3.586,0,1,1,5.284-4.845l5.927-3.567a3.777,3.777,0,0,1-.243-1.453,3.6,3.6,0,0,1,3.075-3.39,1.319,1.319,0,0,0,.152-.04Z" transform="translate(0)" fill="#fff"/>
  </g>
</svg>
