<svg xmlns="http://www.w3.org/2000/svg" width="50.531" height="52.877" viewBox="0 0 50.531 52.877">
  <g id="Group_72227" data-name="Group 72227" transform="translate(-1350.049 -674.959)">
    <g id="Group_72230" data-name="Group 72230" transform="translate(1350.049 674.959)">
      <g id="Group_72241" data-name="Group 72241">
        <path id="Path_72053" data-name="Path 72053" d="M1386.409,678.419h-35.281a6.154,6.154,0,0,0-6.154,6.154v35.281a6.154,6.154,0,0,0,6.154,6.154h35.281a6.154,6.154,0,0,0,6.154-6.154V684.573A6.154,6.154,0,0,0,1386.409,678.419Z" transform="translate(-1342.032 -673.131)" fill="#d9d9d9"/>
        <path id="Path_72054" data-name="Path 72054" d="M1343.049,686.372v26.339a6.154,6.154,0,0,0,6.154,6.154h35.281a6.154,6.154,0,0,0,6.154-6.154V686.372Z" transform="translate(-1343.049 -668.93)" fill="#fff"/>
        <path id="Path_72055" data-name="Path 72055" d="M1390.637,682.648a6.154,6.154,0,0,0-6.154-6.154H1349.2a6.154,6.154,0,0,0-6.154,6.154v8.942h47.588Z" transform="translate(-1343.049 -674.148)" fill="#092853"/>
        <g id="Group_72230-2" data-name="Group 72230-2" transform="translate(6.63 24.001)">
          <path id="Rectangle_8964" data-name="Rectangle 8964" d="M1349.594,690.664h0a2.207,2.207,0,0,1,2.207,2.207h0a2.208,2.208,0,0,1-2.207,2.207h0a2.207,2.207,0,0,1-2.207-2.207h0A2.206,2.206,0,0,1,1349.594,690.664Z" transform="translate(-1347.387 -690.664)" fill="#092853"/>
          <path id="Rectangle_8965" data-name="Rectangle 8965" d="M1354.488,690.664h0a2.207,2.207,0,0,1,2.207,2.207h0a2.207,2.207,0,0,1-2.207,2.207h0a2.207,2.207,0,0,1-2.207-2.207h0A2.206,2.206,0,0,1,1354.488,690.664Z" transform="translate(-1344.802 -690.664)" fill="#e0e8f3"/>
          <path id="Rectangle_8966" data-name="Rectangle 8966" d="M1359.382,690.664h0a2.207,2.207,0,0,1,2.207,2.207h0a2.208,2.208,0,0,1-2.207,2.207h0a2.207,2.207,0,0,1-2.207-2.207h0A2.206,2.206,0,0,1,1359.382,690.664Z" transform="translate(-1342.217 -690.664)" fill="#e0e8f3"/>
          <path id="Rectangle_8967" data-name="Rectangle 8967" d="M1364.275,690.664h0a2.207,2.207,0,0,1,2.207,2.207h0a2.208,2.208,0,0,1-2.207,2.207h0a2.207,2.207,0,0,1-2.207-2.207h0A2.206,2.206,0,0,1,1364.275,690.664Z" transform="translate(-1339.632 -690.664)" fill="#e0e8f3"/>
          <path id="Rectangle_8968" data-name="Rectangle 8968" d="M1369.169,690.664h0a2.207,2.207,0,0,1,2.207,2.207h0a2.208,2.208,0,0,1-2.207,2.207h0a2.207,2.207,0,0,1-2.207-2.207h0A2.206,2.206,0,0,1,1369.169,690.664Z" transform="translate(-1337.047 -690.664)" fill="#e0e8f3"/>
          <path id="Rectangle_8969" data-name="Rectangle 8969" d="M1349.594,695.558h0a2.207,2.207,0,0,1,2.207,2.207h0a2.208,2.208,0,0,1-2.207,2.207h0a2.207,2.207,0,0,1-2.207-2.207h0A2.206,2.206,0,0,1,1349.594,695.558Z" transform="translate(-1347.387 -688.079)" fill="#e0e8f3"/>
          <path id="Rectangle_8970" data-name="Rectangle 8970" d="M1354.488,695.558h0a2.207,2.207,0,0,1,2.207,2.207h0a2.207,2.207,0,0,1-2.207,2.207h0a2.207,2.207,0,0,1-2.207-2.207h0A2.206,2.206,0,0,1,1354.488,695.558Z" transform="translate(-1344.802 -688.079)" fill="#e0e8f3"/>
          <path id="Rectangle_8971" data-name="Rectangle 8971" d="M1359.382,695.558h0a2.207,2.207,0,0,1,2.207,2.207h0a2.208,2.208,0,0,1-2.207,2.207h0a2.207,2.207,0,0,1-2.207-2.207h0A2.206,2.206,0,0,1,1359.382,695.558Z" transform="translate(-1342.217 -688.079)" fill="#e0e8f3"/>
          <path id="Rectangle_8972" data-name="Rectangle 8972" d="M1364.275,695.558h0a2.207,2.207,0,0,1,2.207,2.207h0a2.208,2.208,0,0,1-2.207,2.207h0a2.207,2.207,0,0,1-2.207-2.207h0A2.206,2.206,0,0,1,1364.275,695.558Z" transform="translate(-1339.632 -688.079)" fill="#e0e8f3"/>
          <path id="Rectangle_8973" data-name="Rectangle 8973" d="M1369.169,700.452h0a2.207,2.207,0,0,1,2.207,2.207h0a2.208,2.208,0,0,1-2.207,2.207h0a2.207,2.207,0,0,1-2.207-2.207h0A2.206,2.206,0,0,1,1369.169,700.452Z" transform="translate(-1337.047 -685.494)" fill="#092853"/>
          <path id="Rectangle_8974" data-name="Rectangle 8974" d="M1349.594,700.452h0a2.207,2.207,0,0,1,2.207,2.207h0a2.208,2.208,0,0,1-2.207,2.207h0a2.207,2.207,0,0,1-2.207-2.207h0A2.206,2.206,0,0,1,1349.594,700.452Z" transform="translate(-1347.387 -685.494)" fill="#e0e8f3"/>
          <path id="Rectangle_8975" data-name="Rectangle 8975" d="M1354.488,700.452h0a2.207,2.207,0,0,1,2.207,2.207h0a2.208,2.208,0,0,1-2.207,2.207h0a2.207,2.207,0,0,1-2.207-2.207h0A2.206,2.206,0,0,1,1354.488,700.452Z" transform="translate(-1344.802 -685.494)" fill="#092853"/>
          <path id="Rectangle_8976" data-name="Rectangle 8976" d="M1359.382,700.452h0a2.207,2.207,0,0,1,2.207,2.207h0a2.208,2.208,0,0,1-2.207,2.207h0a2.207,2.207,0,0,1-2.207-2.207h0A2.206,2.206,0,0,1,1359.382,700.452Z" transform="translate(-1342.217 -685.494)" fill="#e0e8f3"/>
          <path id="Rectangle_8977" data-name="Rectangle 8977" d="M1364.275,700.452h0a2.207,2.207,0,0,1,2.207,2.207h0a2.208,2.208,0,0,1-2.207,2.207h0a2.207,2.207,0,0,1-2.207-2.207h0A2.206,2.206,0,0,1,1364.275,700.452Z" transform="translate(-1339.632 -685.494)" fill="#092853"/>
          <path id="Rectangle_8978" data-name="Rectangle 8978" d="M1369.169,695.558h0a2.207,2.207,0,0,1,2.207,2.207h0a2.208,2.208,0,0,1-2.207,2.207h0a2.207,2.207,0,0,1-2.207-2.207h0A2.206,2.206,0,0,1,1369.169,695.558Z" transform="translate(-1337.047 -688.079)" fill="#e0e8f3"/>
        </g>
        <g id="Group_72231" data-name="Group 72231" transform="translate(6.963 4.025)">
          <circle id="Ellipse_1428" data-name="Ellipse 1428" cx="1.872" cy="1.872" r="1.872" fill="#9eabc2"/>
          <circle id="Ellipse_1429" data-name="Ellipse 1429" cx="1.872" cy="1.872" r="1.872" transform="translate(7.479)" fill="#9eabc2"/>
          <circle id="Ellipse_1430" data-name="Ellipse 1430" cx="1.872" cy="1.872" r="1.872" transform="translate(14.958)" fill="#9eabc2"/>
          <circle id="Ellipse_1431" data-name="Ellipse 1431" cx="1.872" cy="1.872" r="1.872" transform="translate(22.436)" fill="#9eabc2"/>
          <circle id="Ellipse_1432" data-name="Ellipse 1432" cx="1.872" cy="1.872" r="1.872" transform="translate(29.915)" fill="#9eabc2"/>
        </g>
        <g id="Group_72232" data-name="Group 72232" transform="translate(7.701)">
          <path id="Path_72056" data-name="Path 72056" d="M1349.224,674.959a1.136,1.136,0,0,0-1.135,1.135v4.763a1.135,1.135,0,1,0,2.271,0h0v-4.763A1.137,1.137,0,0,0,1349.224,674.959Z" transform="translate(-1348.088 -674.959)" fill="#c4c4c4"/>
          <path id="Path_72057" data-name="Path 72057" d="M1354.117,674.959a1.136,1.136,0,0,0-1.135,1.135v4.763a1.135,1.135,0,1,0,2.271,0h0v-4.763A1.137,1.137,0,0,0,1354.117,674.959Z" transform="translate(-1345.503 -674.959)" fill="#c4c4c4"/>
          <path id="Path_72058" data-name="Path 72058" d="M1359.01,674.959a1.136,1.136,0,0,0-1.135,1.135v4.763a1.135,1.135,0,1,0,2.271,0h0v-4.763A1.137,1.137,0,0,0,1359.01,674.959Z" transform="translate(-1342.918 -674.959)" fill="#c4c4c4"/>
          <path id="Path_72059" data-name="Path 72059" d="M1363.9,674.959a1.136,1.136,0,0,0-1.135,1.135v4.763a1.136,1.136,0,0,0,2.27.084c0-.028,0-.057,0-.084v-4.763A1.137,1.137,0,0,0,1363.9,674.959Z" transform="translate(-1340.333 -674.959)" fill="#c4c4c4"/>
          <path id="Path_72060" data-name="Path 72060" d="M1368.8,674.959a1.136,1.136,0,0,0-1.136,1.135v4.763a1.135,1.135,0,0,0,2.269.084.691.691,0,0,0,0-.084v-4.763A1.137,1.137,0,0,0,1368.8,674.959Z" transform="translate(-1337.748 -674.959)" fill="#c4c4c4"/>
        </g>
        <g id="Group_72233" data-name="Group 72233" transform="translate(19.368 21.122)">
          <circle id="Ellipse_1433" data-name="Ellipse 1433" cx="8.495" cy="8.495" r="8.495" fill="#3d6398"/>
          <path id="Path_72061" data-name="Path 72061" d="M1356.28,703.59l10.982-2.942-8.373-8.375-2.942,10.982a.275.275,0,0,0,.194.335A.27.27,0,0,0,1356.28,703.59Z" transform="translate(-1355.609 -686.935)" fill="#3d6398"/>
        </g>
        <g id="Group_72240" data-name="Group 72240" transform="translate(22.381 24.137)">
          <g id="Group_72234" data-name="Group 72234">
            <path id="Path_72062" data-name="Path 72062" d="M1363.176,701.717a5.482,5.482,0,1,1,5.482-5.482h0A5.488,5.488,0,0,1,1363.176,701.717Zm0-10.23a4.747,4.747,0,1,0,4.747,4.747A4.748,4.748,0,0,0,1363.176,691.487Z" transform="translate(-1357.694 -690.753)" fill="#fff"/>
          </g>
          <g id="Group_72235" data-name="Group 72235" transform="translate(5.115 2.804)">
            <path id="Path_72063" data-name="Path 72063" d="M1362.013,697.18l-.972-1.825v-2.768h.735v2.583l.886,1.663Z" transform="translate(-1361.041 -692.588)" fill="#fff"/>
          </g>
          <g id="Group_72236" data-name="Group 72236" transform="translate(5.335 0.367)">
            <rect id="Rectangle_8979" data-name="Rectangle 8979" width="0.295" height="0.975" fill="#fff"/>
          </g>
          <g id="Group_72237" data-name="Group 72237" transform="translate(5.335 9.62)">
            <rect id="Rectangle_8980" data-name="Rectangle 8980" width="0.295" height="0.975" fill="#fff"/>
          </g>
          <g id="Group_72238" data-name="Group 72238" transform="translate(0.368 5.333)">
            <rect id="Rectangle_8981" data-name="Rectangle 8981" width="0.975" height="0.295" fill="#fff"/>
          </g>
          <g id="Group_72239" data-name="Group 72239" transform="translate(9.622 5.333)">
            <rect id="Rectangle_8982" data-name="Rectangle 8982" width="0.975" height="0.295" fill="#fff"/>
          </g>
        </g>
      </g>
    </g>
  </g>
</svg>
