<svg xmlns="http://www.w3.org/2000/svg" width="80.119" height="21.756" viewBox="0 0 80.119 21.756">
  <g id="Group_70674" data-name="Group 70674" transform="translate(-266.44 -88.406)">
    <path id="Path_30998" data-name="Path 30998" d="M202.416,59.774V74.105a1.445,1.445,0,0,1-1.308,1.539h-1.889V61.3a1.506,1.506,0,0,1,1.338-1.523Z" transform="translate(144.144 28.655)" fill="#1a1818"/>
    <path id="Path_30999" data-name="Path 30999" d="M180.961,59.774c-.669,0-1.337.36-1.337,1.786V72.239h-1.042v-6.4H163.862a2.1,2.1,0,0,0-2.2,2.035v5.908c0,1.71,1.53,1.86,2.646,1.86h11.005a6.877,6.877,0,0,1-1.34,2.569,22.677,22.677,0,0,1-2.9,2.675h4.015c.527,0,1.766-1.211,2.612-2.5a6.678,6.678,0,0,0,.862-2.739h2.847a1.753,1.753,0,0,0,1.412-1.745V59.774Zm-5.594,12.465H165.013V69.412h10.354Z" transform="translate(159.575 28.655)" fill="#1a1818"/>
    <path id="Path_31000" data-name="Path 31000" d="M117.885,70.073V72.16a1.563,1.563,0,0,0,1.526,1.483h12.631v2.827H116.694v-6.4H99.942V72.16a1.562,1.562,0,0,0,1.523,1.483H113.07v2.827H99.762v1.895a1.589,1.589,0,0,0,1.526,1.51h32.893a1.5,1.5,0,0,0,1.483-1.5v-8.3Z" transform="translate(185.009 24.423)" fill="#1a1818"/>
    <path id="Path_31001" data-name="Path 31001" d="M70.095,70.073a1.468,1.468,0,0,0-1.449,1.478V78.4a1.467,1.467,0,0,0,1.449,1.478H84.2A1.456,1.456,0,0,0,85.637,78.4V70.073Zm12.205,6.4H72.052V73.644H82.3Z" transform="translate(197.794 24.423)" fill="#1a1818"/>
    <path id="Path_31002" data-name="Path 31002" d="M79.316,61.585a1.852,1.852,0,1,1-1.852-1.85,1.853,1.853,0,0,1,1.852,1.85" transform="translate(194.932 28.671)" fill="#1a1818"/>
    <path id="Path_31003" data-name="Path 31003" d="M87.873,61.585a1.853,1.853,0,1,1-1.853-1.85,1.854,1.854,0,0,1,1.853,1.85" transform="translate(191.417 28.671)" fill="#1a1818"/>
    <path id="Path_31004" data-name="Path 31004" d="M69.573,92.517a.865.865,0,0,0-.888.907.874.874,0,0,0,.888.918.858.858,0,0,0,.881-.9.87.87,0,0,0-.881-.922m.011,1.447a.5.5,0,0,1-.467-.545c0-.3.164-.53.441-.53a.491.491,0,0,1,.467.55.466.466,0,0,1-.441.526" transform="translate(197.778 15.201)" fill="#1a1818"/>
    <rect id="Rectangle_6667" data-name="Rectangle 6667" width="0.411" height="0.414" transform="translate(267.493 106.96)" fill="#1a1818"/>
    <rect id="Rectangle_6668" data-name="Rectangle 6668" width="0.411" height="0.414" transform="translate(266.784 106.96)" fill="#1a1818"/>
    <path id="Path_31005" data-name="Path 31005" d="M72.627,94.164a.461.461,0,0,1-.519.53v.358c.642,0,.937-.28.937-.952V92.738h-.418Z" transform="translate(196.372 15.11)" fill="#1a1818"/>
    <rect id="Rectangle_6669" data-name="Rectangle 6669" width="0.411" height="0.414" transform="translate(282.457 107.087)" fill="#1a1818"/>
    <rect id="Rectangle_6670" data-name="Rectangle 6670" width="0.411" height="0.414" transform="translate(281.749 107.087)" fill="#1a1818"/>
    <path id="Path_31006" data-name="Path 31006" d="M90.176,93.118a.811.811,0,0,1-.03.269.266.266,0,0,1-.265.123h-.946a.717.717,0,0,0,.09-.433V91.527H88.61V93.1a.666.666,0,0,1-.044.284.256.256,0,0,1-.25.127h-.988a.717.717,0,0,0,.09-.433V92.24H87V93.1a.653.653,0,0,1-.045.284.255.255,0,0,1-.25.127h-.673A1.193,1.193,0,0,0,84.8,92.24a1.228,1.228,0,0,0-.492.105,1.389,1.389,0,0,0-.4.265c.093.141.16.25.2.329a.9.9,0,0,1,.336-.235.808.808,0,0,1,.313-.072.782.782,0,0,1,.643.285.923.923,0,0,1,.193.593H75.2a.579.579,0,0,1-.32-.064.423.423,0,0,1-.12-.358V91.527h-.414v1.728a.724.724,0,0,0,.15.485.564.564,0,0,0,.462.194H89.966c.418,0,.627-.224.627-.676V91.527h-.418Z" transform="translate(195.451 15.608)" fill="#1a1818"/>
    <rect id="Rectangle_6671" data-name="Rectangle 6671" width="0.41" height="0.414" transform="translate(287.498 106.96)" fill="#1a1818"/>
    <rect id="Rectangle_6672" data-name="Rectangle 6672" width="0.411" height="0.414" transform="translate(288.207 106.96)" fill="#1a1818"/>
    <path id="Path_31007" data-name="Path 31007" d="M104.734,92.517a.865.865,0,0,0-.889.907.875.875,0,0,0,.889.918.858.858,0,0,0,.88-.9.87.87,0,0,0-.88-.922m.011,1.447a.5.5,0,0,1-.467-.545c0-.3.164-.53.441-.53a.491.491,0,0,1,.467.55.466.466,0,0,1-.441.526" transform="translate(183.332 15.201)" fill="#1a1818"/>
    <path id="Path_31008" data-name="Path 31008" d="M119.835,92.943a1.239,1.239,0,0,0-.716-.205,1.224,1.224,0,0,0-.492.1,1.373,1.373,0,0,0-.4.265c.093.141.16.25.2.329a.9.9,0,0,1,.336-.235.807.807,0,0,1,.313-.072.782.782,0,0,1,.642.285.923.923,0,0,1,.193.593H109.168a1.131,1.131,0,0,0-.753-1.209.9.9,0,0,0-.224-.052c-.053,0-.183-.008-.388-.008v.381a1.7,1.7,0,0,1,.376.034c.377.082.567.365.567.855H107.4v.425h12.969v-.262a1.359,1.359,0,0,0-.53-1.228" transform="translate(181.873 15.11)" fill="#1a1818"/>
    <path id="Path_31009" data-name="Path 31009" d="M132.668,93.118a.824.824,0,0,1-.03.269.265.265,0,0,1-.265.123h-.758v-.433a.779.779,0,0,0-.776-.839.8.8,0,0,0-.836.828.837.837,0,0,0,.817.87h.4a.383.383,0,0,1-.414.287v.329q.728,0,.814-.616h.841c.418,0,.627-.224.627-.676V91.527h-.418Zm-1.472.392h-.37a.435.435,0,0,1-.4-.467.389.389,0,0,1,.4-.422A.369.369,0,0,1,131.2,93Z" transform="translate(172.584 15.608)" fill="#1a1818"/>
    <rect id="Rectangle_6673" data-name="Rectangle 6673" width="0.414" height="2.411" transform="translate(306.053 107.132)" fill="#1a1818"/>
    <rect id="Rectangle_6674" data-name="Rectangle 6674" width="0.41" height="0.418" transform="translate(308.145 106.766)" fill="#1a1818"/>
    <rect id="Rectangle_6675" data-name="Rectangle 6675" width="0.411" height="0.418" transform="translate(308.85 106.766)" fill="#1a1818"/>
    <path id="Path_31010" data-name="Path 31010" d="M155.292,93.344c0,.272-.1.411-.316.411h-.407a.764.764,0,0,0,.086-.456v-.813h-.422v.855c0,.276-.1.414-.318.414h-.388v-.022a.9.9,0,0,0,.067-.434v-.813h-.422v.828c0,.3-.1.441-.316.441h-.832a1.076,1.076,0,0,0,.093-.463v-.806h-.422v.858c0,.272-.1.411-.318.411h-.406a.765.765,0,0,0,.085-.456v-.813h-.421v.855c0,.276-.1.414-.318.414h-.388v-.022A.92.92,0,0,0,150,93.3v-.813h-.422v.828c0,.3-.1.441-.318.441h-8.633c-.28,0-.418-.157-.418-.448V92.123h-.922c-.478,0-.772.348-.772.907a.78.78,0,0,0,.772.877.574.574,0,0,0,.478-.28.7.7,0,0,0,.676.552h14.552c.425,0,.724-.351.724-.888v-.806h-.422Zm-15.518-.355c0,.318-.164.571-.437.571-.25,0-.411-.246-.411-.534,0-.346.179-.578.471-.578h.377Z" transform="translate(169.087 15.363)" fill="#1a1818"/>
    <path id="Path_31011" data-name="Path 31011" d="M169.75,91.633h-.358a.125.125,0,0,1-.067-.13c0-.093.037-.142.108-.142.049,0,.083.033.1.1l.209-.1a.325.325,0,0,0-.314-.22.354.354,0,0,0-.35.369.513.513,0,0,0,.018.123h-.179v.235h.828Z" transform="translate(156.592 15.767)" fill="#1a1818"/>
    <path id="Path_31012" data-name="Path 31012" d="M171.708,93.027a.845.845,0,0,0-.836.959l0,.019h-.924v-.433a.779.779,0,0,0-.776-.839.8.8,0,0,0-.836.828.836.836,0,0,0,.817.87h.4a.383.383,0,0,1-.414.287v.329c.485,0,.757-.206.814-.616h1.076a.793.793,0,0,0,.676.332.816.816,0,0,0,.835-.862.83.83,0,0,0-.835-.873M169.534,94h-.37a.434.434,0,0,1-.4-.467.389.389,0,0,1,.4-.422.37.37,0,0,1,.366.378Zm2.184.369a.448.448,0,0,1-.425-.492.428.428,0,0,1,.4-.478.446.446,0,0,1,.418.5.419.419,0,0,1-.4.474" transform="translate(156.831 15.113)" fill="#1a1818"/>
  </g>
</svg>
