<svg xmlns="http://www.w3.org/2000/svg" width="42.001" height="31.979" viewBox="0 0 42.001 31.979">
  <g id="Group_70647" data-name="Group 70647" transform="translate(-618.605 57.971)">
    <path id="Path_30966" data-name="Path 30966" d="M618.6-49.7c.048-.078.1-.154.145-.234a1.228,1.228,0,0,1,1.343-.638,1.226,1.226,0,0,1,.968,1.173c.016.406,0,.813,0,1.238h2.464c0-.309,0-.618,0-.926a3.719,3.719,0,0,1,2.247-3.679.581.581,0,0,0,.207-.411,12.655,12.655,0,0,1,.265-2.341,3.38,3.38,0,0,1,3.172-2.435,3.521,3.521,0,0,1,3.392,1.732,3.746,3.746,0,0,1,.559,2.026c.006.355,0,.71,0,1.1h2.592c.032-.584.034-1.182.1-1.772a3.67,3.67,0,0,1,2.846-3.029,3.733,3.733,0,0,1,3.919,1.688,4.06,4.06,0,0,1,.547,2.031c.005.354,0,.707,0,1.088h2.505a14.046,14.046,0,0,1,.01-1.63,3.615,3.615,0,0,1,3-3.193,3.674,3.674,0,0,1,4.016,2.154,4.881,4.881,0,0,1,.305,2.294.78.78,0,0,0,.5.862,3.559,3.559,0,0,1,1.963,3.351c.007,2.666,0,5.331,0,8v.472h2.461c0-.388-.007-.767,0-1.145a1.237,1.237,0,0,1,1.212-1.286,1.228,1.228,0,0,1,1.244,1.293q.009,4.86,0,9.72a1.227,1.227,0,0,1-1.211,1.285,1.237,1.237,0,0,1-1.245-1.294c-.007-.368,0-.736,0-1.133H655.7c-.007.117-.021.236-.021.354q0,1.5,0,2.994a3.727,3.727,0,0,1-3.986,4q-2.481,0-4.962,0H627.459a3.59,3.59,0,0,1-3.54-2.116,4.54,4.54,0,0,1-.375-1.82c-.035-3.431-.017-6.862-.017-10.294v-.51h-2.461c0,.364,0,.716,0,1.068a1.26,1.26,0,0,1-.973,1.337,1.24,1.24,0,0,1-1.411-.786.435.435,0,0,0-.076-.086Zm7.383,6.49v.47q0,6.357,0,12.714c0,1.152.424,1.571,1.587,1.571h24.074c.15,0,.3.006.451-.009a1.184,1.184,0,0,0,1.09-1.006,13.359,13.359,0,0,0,.011-1.446h-8.677c-3.2,0-6.4.006-9.6,0a3.705,3.705,0,0,1-3.853-3.848c-.007-1.039,0-2.078,0-3.117,0-.131-.012-.262-.019-.416h-.933c-.938,0-1.512-.474-1.505-1.24s.573-1.22,1.484-1.22h19.194c.9,0,1.47.486,1.464,1.241s-.568,1.216-1.444,1.219c-.325,0-.649,0-1.014,0,0,.156,0,.276,0,.4,0,1.148-.02,2.3.022,3.444a1.169,1.169,0,0,0,1.2,1.076c.6.017,1.2.005,1.8.006h1.871v-9.834Zm27.234-2.486c0-1.218.005-2.392,0-3.566a1.24,1.24,0,0,0-1.365-1.338q-12.257,0-24.514,0a1.238,1.238,0,0,0-1.351,1.353c-.006,1.079,0,2.159,0,3.239,0,.1.018.207.029.313Zm-19.678,7.417c0,1.285-.019,2.539.009,3.793a1.129,1.129,0,0,0,1.007,1.08c.548.051,1.1.011,1.665.011-.435-1.622-.117-3.256-.257-4.884Zm9.844,0c0,1.284-.021,2.539.009,3.793a1.154,1.154,0,0,0,1.089,1.093c.5.034,1.007.007,1.419.007v-4.893Zm-4.923,0c0,1.232-.02,2.431.008,3.629a1.281,1.281,0,0,0,1.105,1.243c.5.047,1,.01,1.4.01v-4.881Zm-17.378-4.968h2.41v-2.411h-2.41Zm37.05,4.985H655.71v2.4h2.424ZM630.9-53.081c0-.474.033-.923-.008-1.366a1.211,1.211,0,0,0-1.2-1.073,1.213,1.213,0,0,0-1.227,1.086c-.038.442-.008.89-.008,1.353Zm10.011,0c0-.464.026-.9-.006-1.329a1.215,1.215,0,0,0-1.2-1.111,1.213,1.213,0,0,0-1.225,1.088c-.038.442-.007.89-.007,1.352Zm9.847,0c0-.456.017-.865,0-1.272a1.224,1.224,0,0,0-1.113-1.163,1.176,1.176,0,0,0-1.289.949,10.216,10.216,0,0,0-.015,1.486Z" transform="translate(0 0)" fill="#fff"/>
  </g>
</svg>
