<svg xmlns="http://www.w3.org/2000/svg" width="43.638" height="39.255" viewBox="0 0 43.638 39.255">
  <g id="Group_70554" data-name="Group 70554" transform="translate(1035.8 276.954)">
    <path id="Path_30684" data-name="Path 30684" d="M-1007.852-219.01a10,10,0,0,1-2.936,5.528,6.73,6.73,0,0,1-3.924,1.631,12.333,12.333,0,0,1-7.455-2.106,19.5,19.5,0,0,1-3.939-3.07c-.755-.764-1.492-1.545-2.232-2.324a1.077,1.077,0,0,1-.136-.254,5.946,5.946,0,0,1,.524.4c1,.956,1.949,1.977,3.005,2.868a15.875,15.875,0,0,0,4.683,2.707,8.735,8.735,0,0,0,4.739.558,6.434,6.434,0,0,0,4.854-4.024,12.272,12.272,0,0,0,.924-4.835,23.275,23.275,0,0,0-.237-2.863,22.764,22.764,0,0,0-1.453-5.558c-.709-1.472-1.341-2.988-2.151-4.4-.712-1.243-1.622-2.373-2.444-3.553a.235.235,0,0,0-.023-.081,24.594,24.594,0,0,0-3.9-3.993,16.743,16.743,0,0,0-4.095-2.534,9.409,9.409,0,0,0-5.509-.87,6.377,6.377,0,0,0-4.5,3.279,10.968,10.968,0,0,0-1.294,5.42,18.915,18.915,0,0,0,.268,3.5,24.637,24.637,0,0,0,1.548,5.4c.157.375.257.774.383,1.162-.286-.64-.6-1.269-.853-1.921a30.951,30.951,0,0,1-1.518-5.394c-.058-.3-.061-.615-.112-.919a.963.963,0,0,0-.164-.284v-4.771a.962.962,0,0,0,.166-.281,10.538,10.538,0,0,1,1.707-4.386,6.887,6.887,0,0,1,4.816-2.926,11.657,11.657,0,0,1,4.346.414,2.061,2.061,0,0,0,.21.027,2.913,2.913,0,0,0,.353.253c1.129.581,2.31,1.076,3.381,1.747a25.735,25.735,0,0,1,6.716,6.4,27.709,27.709,0,0,1,3.426,5.639c.595,1.359,1.206,2.717,1.691,4.116a22.9,22.9,0,0,1,1.146,5.275,17.228,17.228,0,0,1,0,4.171A6.127,6.127,0,0,0-1007.852-219.01Z" transform="translate(0 -25.884)" fill="#d7d7d9"/>
    <path id="Path_30685" data-name="Path 30685" d="M-1007.72-213.006a22.769,22.769,0,0,1,1.453,5.557,23.323,23.323,0,0,1,.237,2.863,12.274,12.274,0,0,1-.924,4.835,6.434,6.434,0,0,1-4.854,4.024,8.735,8.735,0,0,1-4.739-.558,15.876,15.876,0,0,1-4.683-2.707c-1.057-.89-2-1.911-3.005-2.868a5.881,5.881,0,0,0-.524-.4l-.081-.088-.26-.337-.081-.089-.26-.337-.081-.089-.258-.339-.083-.088-.17-.255-.427-.6-.171-.254-.51-.768-.169-.255-.515-.849-.164-.26-.262-.507-.164-.26-1.022-2.044c-.126-.388-.226-.787-.383-1.162a24.631,24.631,0,0,1-1.549-5.4,18.957,18.957,0,0,1-.268-3.5,10.97,10.97,0,0,1,1.294-5.42,6.377,6.377,0,0,1,4.5-3.279,9.408,9.408,0,0,1,5.509.87,16.741,16.741,0,0,1,4.095,2.534,24.6,24.6,0,0,1,3.9,3.993.238.238,0,0,1,.023.081l-4.685,2.687a2.234,2.234,0,0,0-1.409,2.424,6.865,6.865,0,0,0,3.2,5.507,2.265,2.265,0,0,0,2.8-.012Z" transform="translate(-3.716 -43.227)" fill="#acaab0"/>
    <path id="Path_30686" data-name="Path 30686" d="M-804.171-257.083l-.331.17c.043-.177.072-.358.132-.529a7.592,7.592,0,0,0,.344-3.928,12.983,12.983,0,0,0-2.676-5.75,8.37,8.37,0,0,0-4.945-3.3c-.272-.055-.538-.142-.807-.214q2.724-1.6,5.449-3.2c1.465-.858,2.948-1.686,4.4-2.571a3.559,3.559,0,0,1,3.251-.285,9.1,9.1,0,0,1,4.179,3.357,12.607,12.607,0,0,1,2.378,5.288,6.914,6.914,0,0,1-.113,3.357,3.257,3.257,0,0,1-1.583,1.964c-.36.2-.706.417-1.058.627l-4.354,2.544Z" transform="translate(-199.513)" fill="#5584bc"/>
    <path id="Path_30687" data-name="Path 30687" d="M-917.828-240.443c.269.072.535.159.807.214a8.37,8.37,0,0,1,4.945,3.3,12.982,12.982,0,0,1,2.676,5.75,7.59,7.59,0,0,1-.345,3.928c-.06.171-.089.353-.132.529-.542,1.7-1.09,3.388-1.624,5.086-.687,2.182-1.363,4.369-2.047,6.552a3.7,3.7,0,0,1-.167.381,6.127,6.127,0,0,1,.008-.853,17.222,17.222,0,0,0,0-4.17A22.893,22.893,0,0,0-914.849-225c-.485-1.4-1.1-2.757-1.691-4.116a27.719,27.719,0,0,0-3.426-5.639,25.736,25.736,0,0,0-6.716-6.4c-1.071-.671-2.253-1.166-3.381-1.747a2.915,2.915,0,0,1-.353-.253q4.312.937,8.625,1.874c1.224.267,2.446.544,3.669.814A2.294,2.294,0,0,0-917.828-240.443Z" transform="translate(-94.138 -30.19)" fill="#d7d7d9"/>
    <path id="Path_30688" data-name="Path 30688" d="M-706.255-135.2l4.354-2.545q0,6.063,0,12.126a.775.775,0,0,1-.437.806c-1.73.966-3.437,1.973-5.153,2.964a.416.416,0,0,1-.123.026c.02-.067.034-.135.059-.2q.65-1.687,1.3-3.374a2.836,2.836,0,0,0,.08-.485Q-706.208-130.539-706.255-135.2Z" transform="translate(-293.166 -124.356)" fill="#3f3e44"/>
    <path id="Path_30689" data-name="Path 30689" d="M-730.573-113.9q.044,4.66.084,9.319a2.836,2.836,0,0,1-.08.485c-.228-.157-.449-.328-.686-.469-1.133-.673-2.271-1.338-3.407-2.006,0-1.426.005-2.851-.009-4.277a2.3,2.3,0,0,0-.164-.581Z" transform="translate(-268.849 -145.656)" fill="#d7d7d9"/>
    <path id="Path_30690" data-name="Path 30690" d="M-744.99-45.211c1.136.668,2.274,1.333,3.407,2.006.238.141.458.312.686.469q-.652,1.687-1.3,3.374c-.025.065-.04.133-.059.2-.631-.343-1.266-.677-1.891-1.03-.677-.383-1.341-.787-2.016-1.173-.2-.114-.292-.231-.192-.474C-745.894-42.96-745.445-44.087-744.99-45.211Z" transform="translate(-258.52 -207.014)" fill="#dfdfe1"/>
    <path id="Path_30691" data-name="Path 30691" d="M-976.725,5.918l.258.339Z" transform="translate(-52.771 -252.687)" fill="#d7d7d9"/>
    <path id="Path_30692" data-name="Path 30692" d="M-973.552,9.924l.26.337Z" transform="translate(-55.605 -256.265)" fill="#d7d7d9"/>
    <path id="Path_30693" data-name="Path 30693" d="M-970.357,13.915l.26.337Z" transform="translate(-58.46 -259.83)" fill="#d7d7d9"/>
    <path id="Path_30694" data-name="Path 30694" d="M-1001.419-32.439l.164.26Z" transform="translate(-30.712 -218.423)" fill="#d7d7d9"/>
    <path id="Path_30695" data-name="Path 30695" d="M-997.429-25.252l.164.26Z" transform="translate(-34.276 -224.843)" fill="#d7d7d9"/>
    <path id="Path_30696" data-name="Path 30696" d="M-991.063-14.862l.169.255Z" transform="translate(-39.963 -234.124)" fill="#d7d7d9"/>
    <path id="Path_30697" data-name="Path 30697" d="M-984.7-5.269l.171.254Z" transform="translate(-45.651 -242.693)" fill="#d7d7d9"/>
    <path id="Path_30698" data-name="Path 30698" d="M-979.091,2.706l.17.255Z" transform="translate(-50.658 -249.817)" fill="#d7d7d9"/>
    <path id="Path_30699" data-name="Path 30699" d="M-885.167-149.367l-4.684,2.651a.548.548,0,0,1,.031-.207,3.563,3.563,0,0,0,.309-2.769,7.133,7.133,0,0,0-1.3-2.778,4.927,4.927,0,0,0-2.253-1.857,11.084,11.084,0,0,0-1.379-.308l4.685-2.687c.823,1.18,1.733,2.31,2.444,3.553C-886.508-152.355-885.876-150.839-885.167-149.367Z" transform="translate(-126.269 -106.866)" fill="#5584bc"/>
    <path id="Path_30700" data-name="Path 30700" d="M-906.308-132.142a11.084,11.084,0,0,1,1.379.308,4.927,4.927,0,0,1,2.253,1.857,7.134,7.134,0,0,1,1.3,2.778,3.563,3.563,0,0,1-.309,2.769.547.547,0,0,0-.031.207,2.265,2.265,0,0,1-2.8.012,6.865,6.865,0,0,1-3.2-5.507A2.234,2.234,0,0,1-906.308-132.142Z" transform="translate(-114.408 -129.359)" fill="#3f3e44"/>
  </g>
</svg>
