<svg xmlns="http://www.w3.org/2000/svg" width="24.385" height="25.045" viewBox="0 0 24.385 25.045">
  <g id="Group_72282" data-name="Group 72282" transform="translate(492.902 746.135)">
    <path id="Path_72099" data-name="Path 72099" d="M-366.558-746.135c.357.05.716.088,1.07.153a8.659,8.659,0,0,1,3.8,1.739,9.5,9.5,0,0,1,3.075,4.123,9.052,9.052,0,0,1,.548,3.672.738.738,0,0,1-.768.762.758.758,0,0,1-.838-.714c-.061-.478-.084-.963-.167-1.437a8.722,8.722,0,0,0-1.449-3.731,6.419,6.419,0,0,0-2.805-2.148,11.877,11.877,0,0,0-3.247-.8c-.493-.056-.745-.26-.775-.639a.821.821,0,0,1,.621-.946c.018,0,.033-.021.049-.032Z" transform="translate(-110.461)" fill="#4e4e4e"/>
    <path id="Path_72100" data-name="Path 72100" d="M-492.9-728.793a4.273,4.273,0,0,1,2.5-3.887,4.142,4.142,0,0,1,1.642-.545,2.207,2.207,0,0,1,1.659.536,11.751,11.751,0,0,1,2.078,2.361,24.875,24.875,0,0,1,1.474,2.469,2.1,2.1,0,0,1-.748,2.795c-.15.114-.305.222-.454.337a1.616,1.616,0,0,0-.6,2.085,9.435,9.435,0,0,0,1.739,2.872A11.11,11.11,0,0,0-479.837-717a1.455,1.455,0,0,0,1.431.112,2.97,2.97,0,0,0,.715-.724,3.436,3.436,0,0,1,1.278-1.09,2.347,2.347,0,0,1,2.114.078,18.4,18.4,0,0,1,2.033,1.284c.742.526,1.464,1.085,2.165,1.665a2.272,2.272,0,0,1,.721,2.97,5.873,5.873,0,0,1-3.948,3.391,3.257,3.257,0,0,1-2.239-.318,33.57,33.57,0,0,1-7.86-4.719,29.464,29.464,0,0,1-5.434-5.78,32.513,32.513,0,0,1-3.571-6.508A5.6,5.6,0,0,1-492.9-728.793Z" transform="translate(0 -11.869)" fill="#3d6398"/>
    <path id="Path_72101" data-name="Path 72101" d="M-357.171-707.266a6.446,6.446,0,0,1-.05.68.707.707,0,0,1-.75.593.684.684,0,0,1-.773-.53c-.083-.358-.1-.729-.172-1.09a5.571,5.571,0,0,0-.808-2.168,3.671,3.671,0,0,0-1.984-1.4c-.565-.182-1.15-.3-1.729-.442-.347-.083-.659-.2-.759-.591a.837.837,0,0,1,.882-1.087,6.5,6.5,0,0,1,5.457,3.393A5.421,5.421,0,0,1-357.171-707.266Z" transform="translate(-114.548 -29.199)" fill="#4e4e4e"/>
    <path id="Path_72102" data-name="Path 72102" d="M-359.341-679.817a3.128,3.128,0,0,1,2.044,1,3.161,3.161,0,0,1,1.018,2.062,2.305,2.305,0,0,1-.049.637.733.733,0,0,1-.707.606.761.761,0,0,1-.795-.522,2.9,2.9,0,0,1-.12-.548,1.727,1.727,0,0,0-1.393-1.5c-.183-.041-.368-.074-.547-.13a.674.674,0,0,1-.532-.609.831.831,0,0,1,.446-.834A4.272,4.272,0,0,1-359.341-679.817Z" transform="translate(-118.974 -59.554)" fill="#4e4e4e"/>
  </g>
</svg>
