<svg xmlns="http://www.w3.org/2000/svg" width="59.548" height="48.547" viewBox="0 0 59.548 48.547">
  <g id="Group_72070" data-name="Group 72070" transform="translate(-48.242 -464.013)">
    <g id="Group_70553" data-name="Group 70553" transform="translate(570.499 302.617) rotate(-17)">
      <path id="Path_30669" data-name="Path 30669" d="M-307.162,20.385a9.891,9.891,0,0,1,6.259-2.716,14.365,14.365,0,0,1,7.331.916,9.081,9.081,0,0,1,5.3,5.631c.112.33.193.671.289,1.007v2.029a3.734,3.734,0,0,0-.174.45,9.277,9.277,0,0,1-6.664,6.878,15.686,15.686,0,0,1-6.668.454v-.808a17.707,17.707,0,0,0,4.987-.095,9.2,9.2,0,0,0,6.124-3.542c1.949-2.7,2.2-5.646.133-8.433a8.71,8.71,0,0,0-4.126-3,14.235,14.235,0,0,0-7.427-.516,8.115,8.115,0,0,0-4.087,1.722,5.609,5.609,0,0,0-1.991,2.9l-.4,2.188-.8.006.31-2.226Z" transform="translate(-206.627 0)" fill="#5584bc"/>
      <path id="Path_30670" data-name="Path 30670" d="M-514.3,38.16a5.609,5.609,0,0,1,1.991-2.9,6.186,6.186,0,0,1,1.29.033,8.652,8.652,0,0,1,2.036.678,1.542,1.542,0,0,1,.585,1,13.059,13.059,0,0,1,.128,1.846c.049.916.1,1.833.142,2.75.063,1.4.119,2.8.178,4.207a4.579,4.579,0,0,1-.784.767c-2.095,1.244-4.208,2.456-6.314,3.682q-4.762,2.771-9.523,5.544-4.3,2.5-8.611,4.987c-.871-.512-1.739-1.029-2.614-1.534q-4.208-2.426-8.42-4.844-3.94-2.272-7.875-4.552c1.053-.634,2.1-1.282,3.161-1.9q6.921-4.024,13.851-8.033-.05.62-.1,1.241c-.006.468.024.94-.024,1.4a2.743,2.743,0,0,0,.984,2.542l-8.322.337v4.435l7.237-.53-.1.955c-.007.694.021,1.39-.03,2.081a2.4,2.4,0,0,0,1.231,2.3,6.868,6.868,0,0,0,4.114,1.061,5.079,5.079,0,0,0,2.957-.9,1.7,1.7,0,0,0,.828-1.333c.016-.881,0-1.763,0-2.644a2.225,2.225,0,0,0-.89-2.023c.933-.044,1.867-.089,2.8-.131,1.7-.075,3.4-.154,5.1-.219.389-.015.556-.151.536-.569-.036-.783-.022-1.569-.029-2.354l-.166-1.548-7.192.554.107-2.951a2.052,2.052,0,0,0-.563-1.846,4.155,4.155,0,0,0-2.247-1.286c-1.011-.2-2.053-.246-3.082-.359,1.578-.922,3.135-1.883,4.746-2.741a3.593,3.593,0,0,1,1.64-.268c3.128.01,6.257.053,9.385.1.861.012,1.721.061,2.582.094l-1.6,2.84a8.864,8.864,0,0,0-1.43.448.682.682,0,0,0-.124,1.228,5.7,5.7,0,0,0,1.244.55l.8-.006a4.835,4.835,0,0,0,1-.3c.695-.38.729-.97.109-1.463A6.192,6.192,0,0,0-514.3,38.16Z" transform="translate(-0.199 -14.903)" fill="#d7d7d9"/>
      <path id="Path_30671" data-name="Path 30671" d="M-426.517,120.983q4.306-2.493,8.611-4.987,4.764-2.767,9.523-5.544c2.106-1.225,4.219-2.438,6.314-3.682a4.574,4.574,0,0,0,.784-.767q.018,1.677.037,3.355v.808a1.5,1.5,0,0,1-.931,1.566q-11.9,6.893-23.781,13.807c-.175.1-.365.176-.549.264Q-426.513,123.393-426.517,120.983Z" transform="translate(-106.868 -75.131)" fill="#3f3e44"/>
      <path id="Path_30672" data-name="Path 30672" d="M-533.385,143.827q0,2.41.008,4.82c-1.884-1.074-3.772-2.141-5.651-3.224-4.265-2.456-8.523-4.925-12.794-7.373a.857.857,0,0,1-.507-.881c.037-1.424.027-2.849.035-4.273q3.937,2.276,7.875,4.552,4.208,2.426,8.42,4.844C-535.124,142.8-534.256,143.315-533.385,143.827Z" transform="translate(0 -97.976)" fill="#3f3e44"/>
      <path id="Path_30673" data-name="Path 30673" d="M-439.777,58.059q.05-.621.1-1.241a3.892,3.892,0,0,1,2.944-1.7l.2-.089-.006.008c1.029.112,2.071.156,3.082.359a4.155,4.155,0,0,1,2.247,1.286,2.053,2.053,0,0,1,.563,1.847,7.572,7.572,0,0,1-.873.914c-1.812,1.369-5.264,1.106-7.039-.191A11.631,11.631,0,0,1-439.777,58.059ZM-435.1,56.6a2.574,2.574,0,0,0-1.7.769c-.533.547-.349,1.15.39,1.357a3.055,3.055,0,0,0,2.071-.186c.72-.306,1.13-.774,1.05-1.167C-433.383,56.9-433.955,56.6-435.1,56.6Z" transform="translate(-95.605 -31.829)" fill="#5584bc"/>
      <path id="Path_30674" data-name="Path 30674" d="M-419.358,55.025l-.2.089Z" transform="translate(-112.777 -31.829)" fill="#57a3fd"/>
      <path id="Path_30675" data-name="Path 30675" d="M-317.956,57.443a5.7,5.7,0,0,1-1.244-.551.682.682,0,0,1,.124-1.228,8.863,8.863,0,0,1,1.43-.448Z" transform="translate(-197.744 -31.992)" fill="#092853"/>
      <path id="Path_30676" data-name="Path 30676" d="M-303.38,55.434a6.192,6.192,0,0,1,.7.427c.619.493.586,1.083-.109,1.463a4.839,4.839,0,0,1-1,.3Z" transform="translate(-211.122 -32.177)" fill="#092853"/>
      <path id="Path_30677" data-name="Path 30677" d="M-481.436,108.232l-7.237.53v-.7c.009-.562.049-1.126.018-1.686-.022-.407.179-.538.514-.564,1.117-.085,2.234-.162,3.352-.238,1.192-.081,2.385-.156,3.577-.237,2.123-.145,4.245-.3,6.369-.436,1.064-.066,2.131-.08,3.2-.129q3.36-.154,6.72-.32c.007.785-.007,1.57.03,2.354.02.418-.147.554-.536.569-1.7.065-3.4.143-5.1.219-.933.042-1.867.087-2.8.131a7.212,7.212,0,0,0-5.123-1.141A3.876,3.876,0,0,0-481.436,108.232Z" transform="translate(-54.071 -73.816)" fill="#82abdc"/>
      <path id="Path_30678" data-name="Path 30678" d="M-464.927,95.723q-3.36.161-6.72.32c-1.065.049-2.132.063-3.2.129-2.124.132-4.246.291-6.369.436-1.192.082-2.385.156-3.577.237-1.117.076-2.235.153-3.352.238-.336.025-.536.157-.514.564.031.56-.009,1.124-.018,1.686V95.6l8.322-.337c.725-.033,1.45-.06,2.175-.1,1.45-.076,2.9-.15,4.349-.243.516-.034,1.028-.124,1.542-.188l7.192-.554Z" transform="translate(-54.071 -65.084)" fill="#5584bc"/>
      <path id="Path_30679" data-name="Path 30679" d="M-441.191,119.748a3.876,3.876,0,0,1,2.981-1.646,7.212,7.212,0,0,1,5.123,1.141,2.225,2.225,0,0,1,.89,2.023,2.758,2.758,0,0,1-1.659,1.561,6.316,6.316,0,0,1-3.454.36c-1.67-.294-3.2-.785-3.984-2.484Zm4.107,2.039a2.641,2.641,0,0,0,1.984-.815c.453-.492.386-.89-.2-1.211a3.082,3.082,0,0,0-3.116.592.713.713,0,0,0,.266,1.187A6.114,6.114,0,0,0-437.084,121.787Z" transform="translate(-94.316 -85.331)" fill="#5584bc"/>
      <path id="Path_30680" data-name="Path 30680" d="M-441.51,135.887c.785,1.7,2.314,2.19,3.984,2.484a6.315,6.315,0,0,0,3.454-.36,2.758,2.758,0,0,0,1.659-1.561c0,.881.019,1.763,0,2.644a1.7,1.7,0,0,1-.828,1.333,5.079,5.079,0,0,1-2.957.9,6.868,6.868,0,0,1-4.114-1.061,2.4,2.4,0,0,1-1.231-2.3C-441.489,137.277-441.518,136.581-441.51,135.887Z" transform="translate(-94.1 -100.516)" fill="#82abdc"/>
      <path id="Path_30681" data-name="Path 30681" d="M-431,78.59c-.514.064-1.026.155-1.542.188-1.449.094-2.9.167-4.349.243-.725.038-1.45.066-2.175.1a2.743,2.743,0,0,1-.984-2.542c.048-.464.019-.936.024-1.4a11.65,11.65,0,0,0,1.22,1.188c1.775,1.3,5.228,1.56,7.039.191a7.569,7.569,0,0,0,.873-.914Q-430.951,77.115-431,78.59Z" transform="translate(-95.352 -48.945)" fill="#82abdc"/>
      <path id="Path_30682" data-name="Path 30682" d="M-420.024,65.493c1.14,0,1.713.3,1.808.773.08.394-.331.861-1.05,1.167a3.055,3.055,0,0,1-2.071.186c-.739-.207-.923-.811-.39-1.357A2.574,2.574,0,0,1-420.024,65.493Z" transform="translate(-110.676 -40.721)" fill="#d7d7d9"/>
      <path id="Path_30683" data-name="Path 30683" d="M-422.065,130.527a6.11,6.11,0,0,1-1.07-.247.713.713,0,0,1-.266-1.187,3.082,3.082,0,0,1,3.116-.592c.589.321.657.719.2,1.211A2.641,2.641,0,0,1-422.065,130.527Z" transform="translate(-109.335 -94.071)" fill="#d7d7d9"/>
    </g>
  </g>
</svg>
