<svg xmlns="http://www.w3.org/2000/svg" width="40.5" height="40.77" viewBox="0 0 40.5 40.77">
  <g id="Group_70550" data-name="Group 70550" transform="translate(-59.626 -467.901)">
    <g id="Group_70520" data-name="Group 70520" transform="translate(59.626 467.901)">
      <path id="Path_30541" data-name="Path 30541" d="M2685.519,4039.027l1.38.476.547.692c.309,1.052.636,2.1.92,3.156.233.871.414,1.757.618,2.638-.452-.5-.76-.235-1.136.147-2.359,2.388-4.739,4.754-7.112,7.128a2.657,2.657,0,0,0-.321.334c-.147.213-.217.406.145.513.713.214,1.425.439,2.122.7.2.076.346.3.517.455a10.506,10.506,0,0,0-1.122-.433c-1.955-.527-3.921-1.011-5.87-1.556-.847-.237-1.806-.354-2.19-1.363.037-.1.127-.216.1-.3a1.341,1.341,0,0,1,.472-1.492c.655-.628,1.3-1.265,1.922-1.925a2.106,2.106,0,0,1,1.642-.9l-.021.039.383.258c.179.06.36.115.537.177a2.564,2.564,0,0,0,3.432-2.354,2.426,2.426,0,0,0-.56-1.882,1.568,1.568,0,0,0-.143-.488c-.276-.4-.181-.682.167-.987.461-.407.859-.884,1.316-1.294.669-.6,1.13-1.485,2.157-1.609C2685.459,4039.159,2685.487,4039.074,2685.519,4039.027Z" transform="translate(-2671.925 -4037.327)" fill="#efefef"/>
      <path id="Path_30542" data-name="Path 30542" d="M2706.068,4038.748l.931.934c-.3.318-.6.643-.906.954q-6.949,6.957-13.907,13.9a3.009,3.009,0,0,1-.513.338l-.812-.807a3.817,3.817,0,0,0,.313-.25q7.3-7.3,14.592-14.6A2.51,2.51,0,0,0,2706.068,4038.748Z" transform="translate(-2667.431 -4037.402)" fill="#c9c9c9"/>
      <path id="Path_30543" data-name="Path 30543" d="M2706.239,4038.893a2.51,2.51,0,0,1-.3.471q-7.291,7.306-14.592,14.6a3.8,3.8,0,0,1-.313.251l-.815-.814c.174-.15.357-.291.519-.453q7.147-7.146,14.292-14.291c.164-.163.346-.3.518-.457Z" transform="translate(-2667.602 -4037.547)" fill="#e9e9e9"/>
      <path id="Path_30544" data-name="Path 30544" d="M2684.875,4039.385c-.032.047-.06.132-.1.137-1.027.124-1.489,1.009-2.157,1.609-.457.41-.855.888-1.316,1.294-.348.306-.443.588-.167.987a1.561,1.561,0,0,1,.143.487l-2.18-2.09-2.671-2.673a1.492,1.492,0,0,1,.982-1.315,3.363,3.363,0,0,1,2.229.167C2681.376,4038.483,2683.129,4038.923,2684.875,4039.385Z" transform="translate(-2671.281 -4037.686)" fill="#fdfefe"/>
      <path id="Path_30545" data-name="Path 30545" d="M2707.639,4040.35a14.386,14.386,0,0,1-.883,1.377c-.708.883-1.465,1.727-2.2,2.59a.734.734,0,0,0-.082.212,6.5,6.5,0,0,0-.559.579,4.779,4.779,0,0,1-1.905,1.62,4.833,4.833,0,0,0-1.42.973c-2.587,2.549-5.145,5.126-7.711,7.7-.12.122-.223.262-.334.395l-.594-.6c2.766-2.772,5.519-5.559,8.316-8.3a9.417,9.417,0,0,1,1.65-1.015,3.294,3.294,0,0,0,.77-.588q2.03-2.374,4.016-4.786a3.108,3.108,0,0,0,.338-.818Z" transform="translate(-2667.139 -4037.151)" fill="#3f3e44"/>
      <path id="Path_30546" data-name="Path 30546" d="M2705.624,4038.27c-.172.152-.355.294-.518.457q-7.147,7.144-14.292,14.291c-.162.162-.346.3-.519.453l-.365-.37c.2-.208.4-.42.6-.627l4.3-4.346,3.7-3.709a1.975,1.975,0,0,0,.431-.25q2.685-2.667,5.349-5.353a1.948,1.948,0,0,0,.26-.544C2704.92,4037.988,2705.272,4037.729,2705.624,4038.27Z" transform="translate(-2667.679 -4037.615)" fill="#efefef"/>
      <path id="Path_30547" data-name="Path 30547" d="M2707.117,4039.7a3.108,3.108,0,0,1-.338.818q-1.984,2.413-4.016,4.786a3.294,3.294,0,0,1-.77.588,9.448,9.448,0,0,0-1.651,1.015c-2.8,2.741-5.55,5.528-8.316,8.3l-.343-.337a4.811,4.811,0,0,0,.637-.46q7.126-7.112,14.239-14.237c.162-.162.3-.347.45-.521Z" transform="translate(-2667.211 -4037.161)" fill="#b8b8b8"/>
      <path id="Path_30548" data-name="Path 30548" d="M2707.057,4039.7c-.15.173-.288.358-.45.521q-7.117,7.123-14.239,14.237a4.77,4.77,0,0,1-.637.46l-.229-.233a3.011,3.011,0,0,0,.513-.338q6.959-6.945,13.907-13.9c.31-.311.6-.635.906-.954Z" transform="translate(-2667.26 -4037.206)" fill="#c1c1c1"/>
      <path id="Path_30549" data-name="Path 30549" d="M2702.757,4038.2a1.931,1.931,0,0,1-.26.544q-2.661,2.689-5.348,5.353a1.982,1.982,0,0,1-.431.25l.616-1.264c.519-.529,1.02-1.076,1.561-1.581.657-.614,1.348-1.192,2.023-1.785Z" transform="translate(-2665.868 -4037.547)" fill="#fdfefe"/>
      <path id="Path_30550" data-name="Path 30550" d="M2676.437,4038.831q1.336,1.335,2.671,2.672l-.517.265-1.7-1.527A1.4,1.4,0,0,1,2676.437,4038.831Z" transform="translate(-2671.289 -4037.38)" fill="#3f3e44"/>
      <path id="Path_30551" data-name="Path 30551" d="M2678.593,4046.6a2.106,2.106,0,0,0-1.642.9c-.62.66-1.267,1.3-1.921,1.925a1.342,1.342,0,0,0-.473,1.492c.025.079-.065.2-.1.3a7.228,7.228,0,0,1-.324-.786c-.582-2.058-1.151-4.118-1.725-6.177l-.04-.588a9.158,9.158,0,0,1,.693-1.593c.347-.52.567-.487,1.008-.043.495.5.976,1.012,1.463,1.518Z" transform="translate(-2672.365 -4036.62)" fill="#fdfefe"/>
      <path id="Path_30552" data-name="Path 30552" d="M2681.386,4044.913l-1.144-1.5-2.113-2.206.517-.265,2.18,2.09A2.426,2.426,0,0,1,2681.386,4044.913Z" transform="translate(-2670.827 -4036.817)" fill="#3f3e44"/>
      <path id="Path_30553" data-name="Path 30553" d="M2672.4,4043.7c.574,2.06,1.144,4.12,1.726,6.177a7.227,7.227,0,0,0,.324.787c.384,1.008,1.343,1.126,2.19,1.363,1.95.545,3.916,1.029,5.87,1.556a10.607,10.607,0,0,1,1.122.433l.119.11.106.1c.238.22.473.446.717.66.384.335.775.662,1.164.992l-.473.562-1.008-.927-.161-.118h0a6.087,6.087,0,0,0-1.14-.729c-.792-.291-1.617-.491-2.436-.708-1.708-.45-3.419-.889-5.129-1.332a3.026,3.026,0,0,1-1.357-1.986q-.486-1.852-.972-3.7Q2672.73,4045.323,2672.4,4043.7Z" transform="translate(-2672.356 -4036.079)" fill="#3f3e44"/>
      <path id="Path_30554" data-name="Path 30554" d="M2695.218,4053.984q2.932,2.927,5.864,5.854a4.044,4.044,0,0,0,2,1.223,5.793,5.793,0,0,1,2.925,2.01l-.133.146-1.39-1.162a4.162,4.162,0,0,0-.868-.529,6.547,6.547,0,0,1-2.881-1.625.529.529,0,0,0-.521.014q-2.782,2.738-5.524,5.515c-.228.23-.423.546-.066.844a6.1,6.1,0,0,1,1.545,2.588,11.451,11.451,0,0,0,1.127,1.773l.223.589a6.07,6.07,0,0,1-1.788-2.69,5.2,5.2,0,0,0-1.1-1.862c-1.715-1.8-3.507-3.536-5.269-5.294-.546-.545-.534-.536.015-1.111.9-.946,2.09-1.7,2.207-3.186.049-.646.431-.887,1.037-.98a2.205,2.205,0,0,0,1.87-1.155A5.666,5.666,0,0,1,2695.218,4053.984Z" transform="translate(-2667.939 -4033.338)" fill="#d7d7d9"/>
      <path id="Path_30556" data-name="Path 30556" d="M2704.45,4061.764a6.362,6.362,0,0,1,.858,3.815c-.033.234-.067.468-.1.7h0a3.563,3.563,0,0,0-.165.357,5.872,5.872,0,0,1-6.087,4.15,3.481,3.481,0,0,1-2.332-.769,1.965,1.965,0,0,1,.505.058,5.766,5.766,0,0,0,3.2.4,5.389,5.389,0,0,0,4.286-3.455,5.676,5.676,0,0,0-.8-5.714l.133-.146Z" transform="translate(-2665.893 -4031.424)" fill="#c1c1c1"/>
      <path id="Path_30557" data-name="Path 30557" d="M2676.814,4072.458c-.2-.186-.4-.371-.6-.557l.024-.028a2.812,2.812,0,0,0,3.23-.847c3.719-3.763,7.47-7.492,11.212-11.232.162-.163.339-.312.509-.468l.586.594-4.532,4.533a2.877,2.877,0,0,0-.266.216q-2.833,2.829-5.66,5.663a2.764,2.764,0,0,0-.215.268c-.348.329-.716.64-1.039.991A2.725,2.725,0,0,1,2676.814,4072.458Z" transform="translate(-2671.338 -4031.913)" fill="#3f3e44"/>
      <path id="Path_30558" data-name="Path 30558" d="M2685.25,4054.346l.472-.562a4.1,4.1,0,0,0,.491-.35c.647-.613,1.283-1.237,1.923-1.858.615.629,1.23,1.257,1.842,1.889.285.294.513.189.785-.049.336-.3.717-.54,1.079-.805l1.508,1.513c-.127.184-.242.376-.383.548-.26.319-.534.625-.729.853l1.687,1.843c0,.037,0,.075.007.112l-.689.574c-.528-.631-1.024-.664-1.591-.091q-6.751,6.806-13.5,13.615c-.446.45-.466.75-.1,1.324l-.83.938-.207-.033q-1.621-1.589-3.24-3.176c-.15-.147-.308-.285-.463-.427a2.669,2.669,0,0,1-.249-3.68q1.6-1.56,3.2-3.122c.149-.147.282-.309.423-.465q1.744-1.726,3.487-3.453a.819.819,0,0,0,.112-.255l3.671-3.6Zm-8.612,16.582a4.47,4.47,0,0,0,.671-.49q6.685-6.668,13.357-13.352a2.526,2.526,0,0,0,.344-.389.8.8,0,0,0-.358-1.205c-.476-.234-.762.069-1.053.358q-6.759,6.76-13.516,13.522a1.664,1.664,0,0,0-.326.4C2675.488,4070.306,2675.856,4070.922,2676.639,4070.928Zm-3.2-2.9c.171.247.281.587.488.662a1.911,1.911,0,0,0,.906-.067c.094-.018.17-.149.251-.231q6.776-6.776,13.548-13.551c.068-.068.139-.134.2-.208a.726.726,0,0,0-.085-1.12.679.679,0,0,0-1.06.062q-6.935,6.94-13.871,13.883A3.828,3.828,0,0,0,2673.435,4068.027Z" transform="translate(-2672.343 -4033.98)" fill="#5584bc"/>
      <path id="Path_30559" data-name="Path 30559" d="M2674.762,4050.753c1.71.443,3.421.882,5.129,1.332.818.217,1.644.417,2.436.708a6.089,6.089,0,0,1,1.141.729c-1.491-.413-2.981-.831-4.473-1.239-1.052-.289-2.118-.529-3.157-.86A5.028,5.028,0,0,1,2674.762,4050.753Z" transform="translate(-2671.725 -4034.2)" fill="#3f3e44"/>
      <path id="Path_30560" data-name="Path 30560" d="M2681.631,4052.938l.161.118Z" transform="translate(-2669.893 -4033.616)" fill="#346fb6"/>
      <path id="Path_30561" data-name="Path 30561" d="M2676.054,4069.124l.207.033c.006.035.014.069.022.1l-.024.028-.208-.031Z" transform="translate(-2671.382 -4029.299)" fill="#2e5b8c"/>
      <path id="Path_30562" data-name="Path 30562" d="M2686.4,4053.516c-.64.621-1.276,1.246-1.923,1.858a4.128,4.128,0,0,1-.491.35c-.389-.331-.78-.657-1.164-.992-.245-.214-.479-.439-.717-.66l-.106-.1-.119-.11c-.171-.156-.317-.378-.517-.455-.7-.263-1.409-.489-2.122-.7-.361-.108-.292-.3-.145-.513a2.694,2.694,0,0,1,.321-.335c2.373-2.373,4.753-4.74,7.112-7.127.376-.382.684-.65,1.136-.147l.253.922.1.237.015.228.252.588q.383.549.765,1.1l1.767,1.832-1.835,1.466-.527,1.963Z" transform="translate(-2670.602 -4035.92)" fill="#e9e9e9"/>
      <path id="Path_30563" data-name="Path 30563" d="M2686.525,4047.129l-.015-.228-.1-.237-.253-.922c-.2-.88-.385-1.766-.618-2.637-.284-1.058-.611-2.1-.92-3.156a3.3,3.3,0,0,1,.693.793,15.3,15.3,0,0,1,.514,1.753c.115.44.223.885.347,1.324.338,1.186.684,2.369,1.026,3.554q.173.719.344,1.442-.381-.549-.765-1.1C2686.693,4047.521,2686.608,4047.324,2686.525,4047.129Z" transform="translate(-2669.096 -4037.082)" fill="#3f3e44"/>
      <path id="Path_30564" data-name="Path 30564" d="M2677.265,4045.591l.382.258Z" transform="translate(-2671.058 -4035.577)" fill="#fdfefe"/>
      <path id="Path_30565" data-name="Path 30565" d="M2686.872,4049.86l1.835-1.466q1.02.959,2.038,1.92l.365.37.815.813.812.807.229.233.343.337.594.6.593.667a1.936,1.936,0,0,1-.285.428c-.436.375-.893.729-1.342,1.09-.158-.139-.323-.271-.473-.418q-2.492-2.487-4.985-4.974A4.69,4.69,0,0,0,2686.872,4049.86Z" transform="translate(-2668.495 -4034.829)" fill="#5584bc"/>
      <path id="Path_30566" data-name="Path 30566" d="M2681.358,4051.935l.107.1Z" transform="translate(-2669.966 -4033.884)" fill="#efefef"/>
      <path id="Path_30567" data-name="Path 30567" d="M2695.835,4069.426a4.907,4.907,0,0,0-.674-1.425c-2.148-2.209-4.353-4.367-6.538-6.542-.2-.2-.39-.4-.586-.594.088-.1.173-.206.266-.3l2.594-2.69c.147-.514.315-1.023.435-1.545a.642.642,0,0,1,.546-.564c.54-.122,1.065-.3,1.6-.458l1.411-1.752.577.546a5.652,5.652,0,0,0-.729.96,2.205,2.205,0,0,1-1.87,1.155c-.605.093-.988.334-1.037.98-.117,1.489-1.306,2.24-2.207,3.186-.55.575-.561.566-.015,1.111,1.762,1.758,3.553,3.491,5.269,5.294a5.206,5.206,0,0,1,1.1,1.862,6.07,6.07,0,0,0,1.788,2.69l.938.683.226.01-.009.016a3.481,3.481,0,0,0,2.332.769,5.872,5.872,0,0,0,6.087-4.15,3.737,3.737,0,0,1,.165-.358,5.331,5.331,0,0,1-2.781,4.57,5.683,5.683,0,0,1-5.625.277,2.1,2.1,0,0,0-.385-.1l0,.008-.12-.117,0,0-.233-.123,0,0-.122-.13a6.314,6.314,0,0,1-2.164-2.907A1.857,1.857,0,0,0,2695.835,4069.426Z" transform="translate(-2668.184 -4033.453)" fill="#3f3e44"/>
      <path id="Path_30568" data-name="Path 30568" d="M2696.181,4068.768l.233.123Z" transform="translate(-2666.012 -4029.393)" fill="#2e5b8c"/>
      <path id="Path_30569" data-name="Path 30569" d="M2696.088,4068.669l.122.13Z" transform="translate(-2666.036 -4029.42)" fill="#2e5b8c"/>
      <path id="Path_30570" data-name="Path 30570" d="M2696.362,4068.863l.12.117Z" transform="translate(-2665.963 -4029.368)" fill="#2e5b8c"/>
      <path id="Path_30571" data-name="Path 30571" d="M2693.934,4053.719l-1.411,1.752-.916-1.024c.448-.36.906-.714,1.342-1.09a1.922,1.922,0,0,0,.285-.428Z" transform="translate(-2667.231 -4033.619)" fill="#5584bc"/>
      <path id="Path_30572" data-name="Path 30572" d="M2696.7,4070.207l-.937-.683-.223-.589a3.268,3.268,0,0,1,1.856-1.972,3.055,3.055,0,0,0,2.3,1.023,2.886,2.886,0,0,0,1.292-5.432,2.479,2.479,0,0,1,.3-.687c.455-.525.953-1.01,1.434-1.512l1.39,1.162a5.677,5.677,0,0,1,.8,5.714,5.39,5.39,0,0,1-4.286,3.455,5.766,5.766,0,0,1-3.2-.4,1.987,1.987,0,0,0-.506-.058l.009-.016-.129-.164Z" transform="translate(-2666.183 -4031.638)" fill="#d7d7d9"/>
      <path id="Path_30573" data-name="Path 30573" d="M2703.329,4060.822c-.481.5-.979.987-1.434,1.512a2.489,2.489,0,0,0-.3.688,2.814,2.814,0,0,0-4.155,2.63,8.643,8.643,0,0,0,.56,1.778,3.268,3.268,0,0,0-1.856,1.972,11.451,11.451,0,0,1-1.127-1.773,6.109,6.109,0,0,0-1.546-2.588c-.357-.3-.162-.613.066-.843q2.744-2.776,5.524-5.515a.527.527,0,0,1,.521-.014,6.547,6.547,0,0,0,2.881,1.625A4.148,4.148,0,0,1,2703.329,4060.822Z" transform="translate(-2666.787 -4032.104)" fill="#d7d7d9"/>
      <path id="Path_30574" data-name="Path 30574" d="M2703.4,4065.35c.033-.234.067-.468.1-.7C2703.467,4064.882,2703.433,4065.115,2703.4,4065.35Z" transform="translate(-2664.085 -4030.492)" fill="#848586"/>
      <path id="Path_30575" data-name="Path 30575" d="M2694.051,4057.157l-2.594,2.69c-.093.1-.177.2-.266.3-.17.156-.347.305-.509.468-3.742,3.741-7.493,7.47-11.212,11.232a2.811,2.811,0,0,1-3.23.847c-.009-.032-.016-.066-.022-.1q.414-.469.83-.937a1.019,1.019,0,0,0,1.283-.284q6.712-6.744,13.452-13.455a1.255,1.255,0,0,0,.458-1.109l.689-.574Z" transform="translate(-2671.338 -4032.737)" fill="#5584bc"/>
      <path id="Path_30576" data-name="Path 30576" d="M2675.96,4070.121c-.783-.006-1.151-.622-.881-1.156a1.67,1.67,0,0,1,.326-.4q6.757-6.763,13.516-13.522c.29-.29.577-.592,1.053-.358a.8.8,0,0,1,.358,1.205,2.526,2.526,0,0,1-.344.389q-6.676,6.679-13.357,13.352A4.438,4.438,0,0,1,2675.96,4070.121Z" transform="translate(-2671.665 -4033.173)" fill="#d7d7d9"/>
      <path id="Path_30577" data-name="Path 30577" d="M2692.118,4056.794a1.256,1.256,0,0,1-.459,1.109q-6.74,6.711-13.452,13.455a1.018,1.018,0,0,1-1.283.284c-.363-.574-.342-.874.1-1.324q6.747-6.809,13.5-13.616C2691.094,4056.13,2691.589,4056.163,2692.118,4056.794Z" transform="translate(-2671.216 -4032.72)" fill="#d7d7d9"/>
      <path id="Path_30578" data-name="Path 30578" d="M2673.227,4067.666a3.816,3.816,0,0,1,.377-.569q6.932-6.945,13.871-13.882a.679.679,0,0,1,1.06-.062.726.726,0,0,1,.085,1.119c-.062.074-.133.14-.2.208q-6.772,6.776-13.548,13.551c-.081.082-.157.213-.251.23a1.912,1.912,0,0,1-.906.067C2673.508,4068.254,2673.4,4067.913,2673.227,4067.666Z" transform="translate(-2672.135 -4033.62)" fill="#d7d7d9"/>
      <path id="Path_30579" data-name="Path 30579" d="M2691.319,4058.94l-1.122-.92c0-.037,0-.075-.008-.112.266-.362.55-.713.791-1.092.108-.167.247-.49.176-.571-.485-.553-1.022-1.06-1.542-1.581l-1.508-1.514-1.651-1.635.527-1.963a4.733,4.733,0,0,1,.541.405q2.5,2.481,4.984,4.974c.15.148.314.279.473.418l.916,1.024c-.532.156-1.058.337-1.6.458a.643.643,0,0,0-.546.564C2691.635,4057.917,2691.466,4058.426,2691.319,4058.94Z" transform="translate(-2668.606 -4034.52)" fill="#d7d7d9"/>
      <path id="Path_30580" data-name="Path 30580" d="M2686.889,4051.1l1.651,1.636c-.362.266-.744.51-1.079.806-.272.238-.5.343-.785.049q-.918-.947-1.842-1.888Z" transform="translate(-2669.039 -4034.106)" fill="#acaab0"/>
      <path id="Path_30581" data-name="Path 30581" d="M2689.183,4053.587c.519.521,1.057,1.028,1.542,1.581.071.081-.068.4-.176.571-.241.379-.525.729-.791,1.092-.541-.592-1.083-1.183-1.687-1.843.2-.227.47-.533.729-.853C2688.941,4053.963,2689.057,4053.771,2689.183,4053.587Z" transform="translate(-2668.175 -4033.444)" fill="#acaab0"/>
      <path id="Path_30582" data-name="Path 30582" d="M2686.123,4045.617c.083.2.169.392.252.588C2686.292,4046.008,2686.207,4045.812,2686.123,4045.617Z" transform="translate(-2668.695 -4035.569)" fill="#efefef"/>
      <path id="Path_30583" data-name="Path 30583" d="M2686.031,4045.25l.1.237Z" transform="translate(-2668.719 -4035.667)" fill="#efefef"/>
      <path id="Path_30584" data-name="Path 30584" d="M2696.454,4068.165l.1-.154.129.164Z" transform="translate(-2665.939 -4029.595)" fill="#c9c9c9"/>
      <path id="Path_30585" data-name="Path 30585" d="M2697.123,4066.575a8.642,8.642,0,0,1-.56-1.778,2.814,2.814,0,0,1,4.155-2.63,2.885,2.885,0,0,1-1.292,5.432A3.054,3.054,0,0,1,2697.123,4066.575Zm.46,0,.119.111a2.452,2.452,0,0,0,2.731.423,2.344,2.344,0,0,0,1.554-2.155,2.464,2.464,0,0,0-1.386-2.576,2.6,2.6,0,0,0-3.772,2.709l.757,1.492Z" transform="translate(-2665.912 -4031.25)" fill="#c9c9c9"/>
      <path id="Path_30586" data-name="Path 30586" d="M2701.939,4064.9l-.669-1.052-.136-.115,0,0a1.218,1.218,0,0,0-.2-.264,2.616,2.616,0,0,0-4.16,1.562,2.6,2.6,0,0,1,3.772-2.709A2.464,2.464,0,0,1,2701.939,4064.9Z" transform="translate(-2665.864 -4031.199)" fill="#848586"/>
      <path id="Path_30587" data-name="Path 30587" d="M2696.771,4064.842a2.616,2.616,0,0,1,4.16-1.562,1.215,1.215,0,0,1,.2.265,2.794,2.794,0,0,0-2.7.25,2.062,2.062,0,0,0-.9,2.539Z" transform="translate(-2665.854 -4031.005)" fill="#7f7f7f"/>
      <path id="Path_30588" data-name="Path 30588" d="M2697.366,4065.57l.119.111Z" transform="translate(-2665.695 -4030.247)" fill="#2e5b8c"/>
      <path id="Path_30589" data-name="Path 30589" d="M2700.207,4063.37l.136.115Z" transform="translate(-2664.938 -4030.833)" fill="#2e5b8c"/>
    </g>
  </g>
</svg>
