<svg xmlns="http://www.w3.org/2000/svg" width="34.041" height="17.974" viewBox="0 0 34.041 17.974">
  <g id="Group_72107" data-name="Group 72107" transform="translate(1257.706 -747.244)">
    <path id="Path_71798" data-name="Path 71798" d="M-1257.66,757.359c.627,0,1.2.007,1.779,0a.7.7,0,0,0,.682-.47.6.6,0,0,0-.161-.74,1.2,1.2,0,0,0-.638-.226c-.537-.031-1.077-.01-1.708-.01a13.007,13.007,0,0,1,.172-1.884,2.068,2.068,0,0,1,1.948-1.525,1.062,1.062,0,0,1,.246,0,2.208,2.208,0,0,0,2.162-.882c.94-1.051,1.974-2.018,2.979-3.011a4.5,4.5,0,0,1,3.264-1.358q4.271,0,8.543,0a4.528,4.528,0,0,1,3.294,1.374c1.235,1.228,2.462,2.465,3.7,3.687a.882.882,0,0,0,.477.242,34.1,34.1,0,0,1,5.255,1.02,2.693,2.693,0,0,1,1.965,3.157c-.565,0-1.137,0-1.709,0a.734.734,0,0,0-.777.58.708.708,0,0,0,.706.855c.47.018.941,0,1.412.008.126,0,.252.01.344.015a16.32,16.32,0,0,1-.019,2.315,2.638,2.638,0,0,1-2.983,2.1.7.7,0,0,1-.617-.738,4.616,4.616,0,0,0-.645-2.245,4.421,4.421,0,0,0-4.806-2.019,4.429,4.429,0,0,0-3.37,3.974c-.01.129-.014.259-.031.387a.684.684,0,0,1-.673.646c-.211.016-.423.01-.635.01q-3.636,0-7.272,0c-.687,0-.916-.217-.955-.888a4.4,4.4,0,0,0-4.38-4.241,4.421,4.421,0,0,0-4.446,4.219c-.049.728-.278.937-.994.9a2.08,2.08,0,0,1-2.077-1.921c-.073-.948-.029-1.9-.036-2.858C-1257.661,757.688-1257.66,757.548-1257.66,757.359Zm9.63-4.883h6.732v-3.794h-.411c-1.247,0-2.494,0-3.741,0-.374,0-.84-.116-1.1.063s-.314.656-.448,1.006C-1247.339,750.648-1247.677,751.547-1248.03,752.476Zm8.235-3.885v3.88h6.491c-.112-.12-.188-.206-.268-.286-.847-.847-1.676-1.715-2.553-2.53a2.939,2.939,0,0,0-1.2-.748A21.082,21.082,0,0,0-1239.795,748.591Zm1.071,5.25h0c-.176,0-.352-.014-.527,0a.735.735,0,0,0-.69.713.7.7,0,0,0,.641.715,6.3,6.3,0,0,0,1.121,0,.687.687,0,0,0,.647-.738.715.715,0,0,0-.7-.695C-1238.4,753.83-1238.56,753.841-1238.724,753.841Z" transform="translate(0)" fill="#3d6398"/>
    <path id="Path_71799" data-name="Path 71799" d="M-1209.4,873.918a3.317,3.317,0,0,1-3.323-3.318,3.325,3.325,0,0,1,3.344-3.335,3.336,3.336,0,0,1,3.31,3.339A3.329,3.329,0,0,1-1209.4,873.918Z" transform="translate(-40.74 -108.701)" fill="#b7b7b7"/>
    <path id="Path_71800" data-name="Path 71800" d="M-1014.606,873.918a3.319,3.319,0,0,1-3.32-3.321,3.325,3.325,0,0,1,3.347-3.332,3.323,3.323,0,0,1,3.3,3.342A3.317,3.317,0,0,1-1014.606,873.918Z" transform="translate(-217.165 -108.701)" fill="#b7b7b7"/>
  </g>
</svg>
