<svg xmlns="http://www.w3.org/2000/svg" width="21" height="21" viewBox="0 0 21 21">
  <g id="Group_73011" data-name="Group 73011" transform="translate(-30 -194)">
    <g id="Group_73010" data-name="Group 73010" transform="translate(34.053 199.7)">
      <path id="Path_76264" data-name="Path 76264" d="M-294,259.573v-2.292a.488.488,0,0,1,.48-.309,1.2,1.2,0,0,0,1.131-1.19,1.2,1.2,0,0,0-1.118-1.214.5.5,0,0,1-.493-.31v-2.292c.005-.006.014-.012.016-.019a1.215,1.215,0,0,1,1.315-1.014h9.265c.373,0,.747,0,1.12,0a1.207,1.207,0,0,1,1.123.841c.02.063.038.126.057.189v2.292a.5.5,0,0,1-.493.31,1.2,1.2,0,0,0-1.119,1.2,1.2,1.2,0,0,0,1.119,1.2.5.5,0,0,1,.493.31v2.292c-.005.006-.014.011-.016.018a1.213,1.213,0,0,1-1.314,1.014h-9.454c-.306,0-.613,0-.919,0a1.211,1.211,0,0,1-1.131-.83C-293.961,259.708-293.98,259.64-294,259.573Zm12.089-1.822a2.038,2.038,0,0,1-1.607-1.849,1.957,1.957,0,0,1,.285-1.167,2.038,2.038,0,0,1,1.323-.944c0-.543,0-1.076,0-1.609a.407.407,0,0,0-.449-.442h-10.386a.409.409,0,0,0-.448.455q0,.736,0,1.473v.12a2.039,2.039,0,0,1,1.608,1.849,1.953,1.953,0,0,1-.285,1.167,2.031,2.031,0,0,1-1.323.944c0,.527,0,1.043,0,1.559,0,.349.146.493.5.493h10.285c.038,0,.076,0,.113,0a.4.4,0,0,0,.383-.379C-281.908,258.866-281.911,258.312-281.911,257.751Z" transform="translate(294 -250.932)" fill="#3d6398"/>
      <path id="Path_76265" data-name="Path 76265" d="M-146.8,294.673l.755.282-2.417,6.445-.755-.282Z" transform="translate(154.082 -293.204)" fill="#3d6398"/>
      <path id="Path_76266" data-name="Path 76266" d="M-193.61,329.424A1.211,1.211,0,0,1-194.8,328.2a1.216,1.216,0,0,1,1.226-1.193,1.206,1.206,0,0,1,1.189,1.237A1.2,1.2,0,0,1-193.61,329.424Zm.416-1.211a.4.4,0,0,0-.4-.4.411.411,0,0,0-.4.4.405.405,0,0,0,.412.4A.4.4,0,0,0-193.194,328.213Z" transform="translate(198.135 -324.454)" fill="#3d6398"/>
      <path id="Path_76267" data-name="Path 76267" d="M-69.427,401.539a1.21,1.21,0,0,1,1.2,1.212,1.217,1.217,0,0,1-1.216,1.2,1.209,1.209,0,0,1-1.2-1.216A1.2,1.2,0,0,1-69.427,401.539Zm-.406,1.209a.4.4,0,0,0,.4.4.411.411,0,0,0,.4-.4.405.405,0,0,0-.41-.4A.4.4,0,0,0-69.833,402.748Z" transform="translate(78.14 -396.482)" fill="#3d6398"/>
    </g>
    <g id="Ellipse_1453" data-name="Ellipse 1453" transform="translate(30 194)" fill="none" stroke="#d60000" stroke-width="1">
      <circle cx="10.5" cy="10.5" r="10.5" stroke="none"/>
      <circle cx="10.5" cy="10.5" r="10" fill="none"/>
    </g>
    <line id="Line_219" data-name="Line 219" x1="14.25" y2="14.25" transform="translate(33.375 197.375)" fill="none" stroke="#d60000" stroke-width="1"/>
  </g>
</svg>
