<svg xmlns="http://www.w3.org/2000/svg" width="39.349" height="39.423" viewBox="0 0 39.349 39.423">
  <g id="Group_72890" data-name="Group 72890" transform="translate(2021.766 1534.772)">
    <path id="Path_75899" data-name="Path 75899" d="M-1982.417-1530.152v30.26a2.811,2.811,0,0,0-.131.337,5.307,5.307,0,0,1-4.175,4.105c-.1.025-.2.067-.3.1h-30.2a2.988,2.988,0,0,0-.375-.14,5.326,5.326,0,0,1-4.154-5.157q-.014-14.414,0-28.828a5.323,5.323,0,0,1,4.152-5.158c.154-.036.3-.093.454-.14h30.124a.645.645,0,0,0,.154.076,5.354,5.354,0,0,1,4.347,4.2C-1982.5-1530.378-1982.454-1530.266-1982.417-1530.152Zm-7.443,14.97c-.059-.625-.088-1.254-.182-1.875a12.185,12.185,0,0,0-13.812-10.183,12.23,12.23,0,0,0-9.26,17.324,1.13,1.13,0,0,1,.076.656c-.379,1.909-.781,3.814-1.174,5.72-.132.641.108.88.737.732,1.878-.441,3.755-.891,5.636-1.321a1.034,1.034,0,0,1,.612.06,12.164,12.164,0,0,0,7.155.953A12.269,12.269,0,0,0-1989.861-1515.182Z" fill="#29a61a"/>
    <path id="Path_75900" data-name="Path 75900" d="M-1924.557-1450.515a12.269,12.269,0,0,1-10.211,12.066,12.164,12.164,0,0,1-7.155-.953,1.033,1.033,0,0,0-.612-.06c-1.881.429-3.758.879-5.636,1.321-.63.148-.87-.091-.738-.732.393-1.906.794-3.811,1.174-5.72a1.131,1.131,0,0,0-.076-.657,12.23,12.23,0,0,1,9.26-17.324,12.186,12.186,0,0,1,13.812,10.184C-1924.646-1451.769-1924.617-1451.14-1924.557-1450.515Zm-21.1,9.046c1.077-.254,2.078-.464,3.063-.732a1.691,1.691,0,0,1,1.342.143,9.256,9.256,0,0,0,5.754,1.039,9.535,9.535,0,0,0,8.181-10.685,9.536,9.536,0,0,0-10.823-8.254,9.523,9.523,0,0,0-7.308,13.417,3.361,3.361,0,0,1,.284,2.652,1.512,1.512,0,0,0-.046.187C-1945.359-1442.978-1945.5-1442.254-1945.662-1441.469Z" transform="translate(-65.303 -64.667)" fill="#fcfdfc"/>
    <path id="Path_75901" data-name="Path 75901" d="M-1922.508-1418.321c.157-.785.3-1.509.449-2.233a1.468,1.468,0,0,1,.046-.186,3.363,3.363,0,0,0-.285-2.652,9.523,9.523,0,0,1,7.308-13.417,9.536,9.536,0,0,1,10.823,8.254,9.535,9.535,0,0,1-8.181,10.685,9.255,9.255,0,0,1-5.754-1.039,1.691,1.691,0,0,0-1.342-.143C-1920.43-1418.785-1921.431-1418.574-1922.508-1418.321Zm12.21-3.07a8.667,8.667,0,0,0,.874-.12,3.6,3.6,0,0,0,2.138-1.758.891.891,0,0,0-.521-1.448c-.513-.158-1.051-.251-1.542-.457a1.6,1.6,0,0,0-2.121.536.8.8,0,0,1-1.168.193,7.511,7.511,0,0,1-1.363-.922c-.836-.769-1.643-1.574-2.41-2.413a.836.836,0,0,1,.015-1.22,2.745,2.745,0,0,0,.43-.585,1.33,1.33,0,0,0,.114-.826c-.3-.8-.659-1.583-1.029-2.355a.8.8,0,0,0-1.176-.35,3.7,3.7,0,0,0-1.65,2.234,4.638,4.638,0,0,0,.57,3.154,13.886,13.886,0,0,0,4.943,5.106A7.242,7.242,0,0,0-1910.3-1421.391Z" transform="translate(-88.457 -87.815)" fill="#2aa71b"/>
    <path id="Path_75902" data-name="Path 75902" d="M-1880.59-1389.439a7.24,7.24,0,0,1-3.9-1.233,13.882,13.882,0,0,1-4.943-5.106,4.637,4.637,0,0,1-.57-3.154,3.7,3.7,0,0,1,1.65-2.234.8.8,0,0,1,1.176.35c.371.773.732,1.553,1.029,2.355a1.329,1.329,0,0,1-.115.826,2.74,2.74,0,0,1-.43.585.836.836,0,0,0-.015,1.22c.767.838,1.574,1.644,2.41,2.413a7.527,7.527,0,0,0,1.364.921.8.8,0,0,0,1.168-.193,1.6,1.6,0,0,1,2.12-.536c.492.206,1.03.3,1.542.457a.891.891,0,0,1,.521,1.448,3.6,3.6,0,0,1-2.139,1.758A8.7,8.7,0,0,1-1880.59-1389.439Z" transform="translate(-118.166 -119.767)" fill="#fcfdfc"/>
  </g>
</svg>
