<svg xmlns="http://www.w3.org/2000/svg" width="19.629" height="26.573" viewBox="0 0 19.629 26.573">
  <g id="Group_72255" data-name="Group 72255" transform="translate(897.843 -553.746)">
    <path id="Path_72072" data-name="Path 72072" d="M-887.509,553.746c.265.033.53.058.793.1a9.629,9.629,0,0,1,7.888,6.352,8.966,8.966,0,0,1,.13,6.172,13.148,13.148,0,0,1-1.557,3.206q-3.268,4.972-6.559,9.93a2.228,2.228,0,0,1-.625.64,1.184,1.184,0,0,1-1.525-.266,3.483,3.483,0,0,1-.3-.392q-3.272-4.954-6.542-9.911a12.309,12.309,0,0,1-1.913-4.665,8.958,8.958,0,0,1,.341-4.326,9.627,9.627,0,0,1,2.8-4.319,9.657,9.657,0,0,1,5.182-2.416c.281-.04.563-.071.845-.106Zm-.512,25.472c.107-.148.185-.25.255-.357,1.286-1.947,2.577-3.892,3.856-5.844,1.084-1.656,2.182-3.3,3.221-4.987a8.807,8.807,0,0,0,1.276-3.856,7.951,7.951,0,0,0-1.451-5.448,8.455,8.455,0,0,0-8.4-3.724,8.05,8.05,0,0,0-3.786,1.515,8.544,8.544,0,0,0-3.213,4.376,7.824,7.824,0,0,0-.354,3.555,10.806,10.806,0,0,0,1.751,4.448q3.3,5.03,6.626,10.043C-888.183,579.024-888.115,579.1-888.021,579.218Z" transform="translate(0 0)" fill="#3d6398"/>
    <path id="Path_72073" data-name="Path 72073" d="M-841.529,615.247a5.2,5.2,0,0,1-5.195-5.2,5.206,5.206,0,0,1,5.2-5.192,5.206,5.206,0,0,1,5.182,5.188A5.2,5.2,0,0,1-841.529,615.247Zm.059-9.233a4.059,4.059,0,0,0-4.1,3.962,4.057,4.057,0,0,0,3.89,4.117,4.049,4.049,0,0,0,4.193-3.944A4.057,4.057,0,0,0-841.47,606.013Z" transform="translate(-46.497 -46.493)" fill="#3d6398"/>
  </g>
</svg>
