<svg xmlns="http://www.w3.org/2000/svg" width="19.829" height="19.904" viewBox="0 0 19.829 19.904">
  <g id="Group_70654" data-name="Group 70654" transform="translate(1504.552 -180.089)">
    <path id="Path_30985" data-name="Path 30985" d="M-1500.314,180.089a2.945,2.945,0,0,1,1.527.969c.768.789,1.564,1.552,2.313,2.358a1.814,1.814,0,0,1,.007,2.55c-.48.533-1,1.03-1.514,1.535a.226.226,0,0,0-.062.311,11.481,11.481,0,0,0,2.054,2.836,14.178,14.178,0,0,0,2.737,2.316c.278.177.576.321.861.488a.16.16,0,0,0,.231-.039c.431-.439.856-.886,1.308-1.3a3.1,3.1,0,0,1,.816-.578,1.777,1.777,0,0,1,2.069.423c.856.829,1.685,1.686,2.535,2.521a1.964,1.964,0,0,1,.137,2.892c-.6.65-1.217,1.294-1.873,1.888a3.182,3.182,0,0,1-2.5.719,11.1,11.1,0,0,1-4.067-1.271,20.287,20.287,0,0,1-5.167-3.649,20.117,20.117,0,0,1-5.191-7.846,7.53,7.53,0,0,1-.454-2.626,3.224,3.224,0,0,1,.929-2.278q.77-.783,1.552-1.553a2.454,2.454,0,0,1,1.25-.663Zm10.982,18.9a2.141,2.141,0,0,0,1.607-.563q.872-.843,1.695-1.739a.908.908,0,0,0-.018-1.371c-.872-.9-1.759-1.777-2.651-2.653a.862.862,0,0,0-1.185-.061,2.441,2.441,0,0,0-.275.245c-.483.479-.961.963-1.445,1.441a.827.827,0,0,1-1.061.173c-.282-.144-.565-.289-.837-.452a14.923,14.923,0,0,1-3.266-2.7,12.03,12.03,0,0,1-2.259-3.209.893.893,0,0,1,.232-1.216c.476-.458.95-.918,1.413-1.39a.966.966,0,0,0,.009-1.569l-.027-.028c-.8-.8-1.591-1.6-2.393-2.389a1.613,1.613,0,0,0-.434-.32.949.949,0,0,0-1.125.281c-.511.5-1.023.993-1.507,1.516a2.74,2.74,0,0,0-.513.789,3.352,3.352,0,0,0-.063,1.989,12.089,12.089,0,0,0,1.378,3.571,20.417,20.417,0,0,0,9.659,8.888A8.28,8.28,0,0,0-1489.333,198.99Z" transform="translate(0 0)" fill="#3d6398"/>
  </g>
</svg>
