<svg xmlns="http://www.w3.org/2000/svg" xmlns:xlink="http://www.w3.org/1999/xlink" width="260.19" height="173.148" viewBox="0 0 260.19 173.148">
  <defs>
    <clipPath id="clip-path">
      <path id="Path_70339" data-name="Path 70339" d="M-3433.323,802.905s-18.539-.182-26.47-11.186c0,0,12.938-.364,17.642,2.487a29.981,29.981,0,0,1-16.347-17.7s13.11,3.075,16.994,7.768c0,0-5.685-4.855-8.426-15.373,0,0,9.825,3.334,13.5,7.9Z" transform="translate(3459.793 -768.902)" fill="#8b9a43"/>
    </clipPath>
    <clipPath id="clip-path-2">
      <path id="Path_70343" data-name="Path 70343" d="M-2915.818-246.2c-5.43-32.775-31.866-35.371-59.575-31.589-23.917.569-33.445-25.353-48.955-39.2-90.168-68.147-168.64,89.163-65.969,125.021C-3043.243-183.153-2909.321-172.217-2915.818-246.2Z" transform="translate(3138.886 333.907)" fill="#e3eefd"/>
    </clipPath>
    <clipPath id="clip-path-3">
      <path id="Path_70342" data-name="Path 70342" d="M-3059,267.609V219.064h30.572V254.27h11.388V238.61h28v27.031h23.858V247.713h32.886V225.566h40.46v45.258h16.85V257.052h39.646v49.88h-221.36l-2.3-39.324" transform="translate(3059.005 -219.064)" fill="#ccdffe"/>
    </clipPath>
    <clipPath id="clip-path-4">
      <path id="Path_70348" data-name="Path 70348" d="M-2846.726,702.095s-1.8-9.9,13.948-16.889c0,0-1.572,13.389-5.727,17.788,0,0-.114-5.548,17.267-6.074,0,0-7.3,13.042-12.776,16.112,0,0,5.493-3.144,19.476-2.852,0,0-10.023,10.485-17.1,12.33,0,0,4.866-2.427,14.188,0,0,0-14.984,5.98-25.261,5.98Z" transform="translate(2846.789 -685.206)" fill="#8b9a43"/>
    </clipPath>
    <clipPath id="clip-path-5">
      <path id="Path_70356" data-name="Path 70356" d="M-3273.359,390.421l-44,.013-11.782-77.951,44-.013Z" transform="translate(3329.146 -312.47)" fill="#b9d4fd"/>
    </clipPath>
    <clipPath id="clip-path-6">
      <path id="Path_70370" data-name="Path 70370" d="M-2759.932,738.729c-1.9.171-4.471,2.95-4.471,2.95h0c-1.94,1.691-5.056,6.907-4.071,9.851a2.044,2.044,0,0,0,2.316,1.66c4.645-.954,6.474-7.2,7.955-10.348C-2757.8,741.71-2758.445,738.55-2759.932,738.729Z" transform="translate(2768.662 -738.722)" fill="#38385c"/>
    </clipPath>
    <clipPath id="clip-path-7">
      <path id="Path_70376" data-name="Path 70376" d="M-2709.688-58.566l-6.9,3.247,7.314,15.044,5.134-3.414-1.569-3.483c1.571-1.045,3.805-2.28,2.185-4.415Z" transform="translate(2716.592 58.566)" fill="#ffb6a6"/>
    </clipPath>
    <clipPath id="clip-path-8">
      <path id="Path_70380" data-name="Path 70380" d="M-2745.124-103.3s.356-3.136,4.123-8.1l4.129-2.9a3.036,3.036,0,0,0,.661-3.947.474.474,0,0,0-.721-.222l-4,2.866C-2748.517-115.881-2751.415-107.53-2745.124-103.3Z" transform="translate(2748.562 118.564)" fill="#f85c3d"/>
    </clipPath>
    <clipPath id="clip-path-9">
      <path id="Path_70386" data-name="Path 70386" d="M-2731.652,96.574l-7.225,10.45a3.142,3.142,0,0,0,.625,4.243l4.506,3.594a3.9,3.9,0,0,0,5.518-.666l6.689-8.668Z" transform="translate(2739.435 -96.574)" fill="#f85c3d"/>
    </clipPath>
    <clipPath id="clip-path-10">
      <path id="Path_70390" data-name="Path 70390" d="M-2542.346-41.6l-30.468,2.922-17.968-2.922V-74.747l17.968-3.442,30.468,3.442Z" transform="translate(2590.781 78.189)" fill="#eecd76"/>
    </clipPath>
    <clipPath id="clip-path-11">
      <path id="Path_70394" data-name="Path 70394" d="M-2699.127,196.719c-.627-.206-5.489,1.764-7.139.1,3.8-4.829.046-2.527-2.56-.206l-24.86-3.655a4.757,4.757,0,0,0-4.749,2.221h0c-2.284,3.6,1.288,7.936,5.157,7.779l22.1-1.408,0,.01s7.426,1.494,9.148.953S-2698.777,197.049-2699.127,196.719Z" transform="translate(2739.152 -192.909)" fill="#ffb6a6"/>
    </clipPath>
  </defs>
  <g id="Group_71544" data-name="Group 71544" transform="translate(3459.793 333.907)">
    <g id="Group_71497" data-name="Group 71497" transform="translate(-3459.793 -211.453)">
      <path id="Path_70337" data-name="Path 70337" d="M-3433.323,802.905s-18.539-.182-26.47-11.186c0,0,12.938-.364,17.642,2.487a29.981,29.981,0,0,1-16.347-17.7s13.11,3.075,16.994,7.768c0,0-5.685-4.855-8.426-15.373,0,0,9.825,3.334,13.5,7.9Z" transform="translate(3459.793 -768.902)" fill="#8b9a43"/>
      <g id="Group_71496" data-name="Group 71496" clip-path="url(#clip-path)">
        <path id="Path_70338" data-name="Path 70338" d="M-3302.5,790.7s3.631,28.375,1.151,32.006l11.424.885-6.2-32.891Z" transform="translate(3319.968 -788.281)" fill="#8b9a43"/>
      </g>
    </g>
    <g id="Group_71510" data-name="Group 71510" transform="translate(-3424.16 -333.907)">
      <path id="Path_70340" data-name="Path 70340" d="M-2915.818-246.2c-5.43-32.775-31.866-35.371-59.575-31.589-23.917.569-33.445-25.353-48.955-39.2-90.168-68.147-168.64,89.163-65.969,125.021C-3043.243-183.153-2909.321-172.217-2915.818-246.2Z" transform="translate(3138.886 333.907)" fill="#e3eefd"/>
      <g id="Group_71509" data-name="Group 71509" transform="translate(0 0)" clip-path="url(#clip-path-2)">
        <g id="Group_71508" data-name="Group 71508" transform="translate(8.87 61.401)">
          <path id="Path_70341" data-name="Path 70341" d="M-3059,267.609V219.064h30.572V254.27h11.388V238.61h28v27.031h23.858V247.713h32.886V225.566h40.46v45.258h16.85V257.052h39.646v49.88h-221.36l-2.3-39.324" transform="translate(3059.005 -219.064)" fill="#ccdffe"/>
          <g id="Group_71507" data-name="Group 71507" transform="translate(0 0)" clip-path="url(#clip-path-3)">
            <g id="Group_71498" data-name="Group 71498" transform="translate(21.893 3.147)">
              <rect id="Rectangle_8129" data-name="Rectangle 8129" width="4.782" height="4.781" fill="#e3eefd"/>
              <rect id="Rectangle_8130" data-name="Rectangle 8130" width="4.782" height="4.781" transform="translate(0 7.42)" fill="#e3eefd"/>
              <rect id="Rectangle_8131" data-name="Rectangle 8131" width="4.782" height="4.781" transform="translate(0 14.84)" fill="#e3eefd"/>
              <rect id="Rectangle_8132" data-name="Rectangle 8132" width="4.782" height="4.781" transform="translate(0 22.26)" fill="#e3eefd"/>
            </g>
            <g id="Group_71502" data-name="Group 71502" transform="translate(44.231 21.635)">
              <g id="Group_71499" data-name="Group 71499" transform="translate(0.201)">
                <rect id="Rectangle_8133" data-name="Rectangle 8133" width="4.107" height="3.627" fill="#e3eefd"/>
                <rect id="Rectangle_8134" data-name="Rectangle 8134" width="4.107" height="3.627" transform="translate(6.191)" fill="#e3eefd"/>
              </g>
              <g id="Group_71500" data-name="Group 71500" transform="translate(0.101 4.893)">
                <rect id="Rectangle_8135" data-name="Rectangle 8135" width="4.107" height="3.627" fill="#e3eefd"/>
                <rect id="Rectangle_8136" data-name="Rectangle 8136" width="4.107" height="3.627" transform="translate(6.191)" fill="#e3eefd"/>
              </g>
              <g id="Group_71501" data-name="Group 71501" transform="translate(0 9.786)">
                <rect id="Rectangle_8137" data-name="Rectangle 8137" width="4.107" height="3.627" fill="#e3eefd"/>
                <rect id="Rectangle_8138" data-name="Rectangle 8138" width="4.107" height="3.627" transform="translate(6.191)" fill="#e3eefd"/>
              </g>
            </g>
            <g id="Group_71503" data-name="Group 71503" transform="translate(96.844 30.902)">
              <rect id="Rectangle_8139" data-name="Rectangle 8139" width="3.858" height="32.572" fill="#e3eefd"/>
              <rect id="Rectangle_8140" data-name="Rectangle 8140" width="3.858" height="25.687" transform="translate(5.611)" fill="#e3eefd"/>
            </g>
            <g id="Group_71504" data-name="Group 71504" transform="translate(130.448 9.25)">
              <rect id="Rectangle_8141" data-name="Rectangle 8141" width="5.777" height="5.776" fill="#e3eefd"/>
              <rect id="Rectangle_8142" data-name="Rectangle 8142" width="5.777" height="5.776" transform="translate(8.819)" fill="#e3eefd"/>
              <rect id="Rectangle_8143" data-name="Rectangle 8143" width="5.777" height="5.776" transform="translate(17.638)" fill="#e3eefd"/>
              <rect id="Rectangle_8144" data-name="Rectangle 8144" width="5.777" height="5.776" transform="translate(26.457)" fill="#e3eefd"/>
            </g>
            <g id="Group_71505" data-name="Group 71505" transform="translate(130.448 17.339)">
              <rect id="Rectangle_8145" data-name="Rectangle 8145" width="5.777" height="5.776" fill="#e3eefd"/>
              <rect id="Rectangle_8146" data-name="Rectangle 8146" width="5.777" height="5.776" transform="translate(8.819)" fill="#e3eefd"/>
              <rect id="Rectangle_8147" data-name="Rectangle 8147" width="5.777" height="5.776" transform="translate(17.638)" fill="#e3eefd"/>
              <rect id="Rectangle_8148" data-name="Rectangle 8148" width="5.777" height="5.776" transform="translate(26.457)" fill="#e3eefd"/>
            </g>
            <g id="Group_71506" data-name="Group 71506" transform="translate(130.448 25.428)">
              <rect id="Rectangle_8149" data-name="Rectangle 8149" width="5.777" height="5.776" fill="#e3eefd"/>
              <rect id="Rectangle_8150" data-name="Rectangle 8150" width="5.777" height="5.776" transform="translate(8.819)" fill="#e3eefd"/>
              <rect id="Rectangle_8151" data-name="Rectangle 8151" width="5.777" height="5.776" transform="translate(17.638)" fill="#e3eefd"/>
              <rect id="Rectangle_8152" data-name="Rectangle 8152" width="5.777" height="5.776" transform="translate(26.457)" fill="#e3eefd"/>
            </g>
            <rect id="Rectangle_8153" data-name="Rectangle 8153" width="27.448" height="4.02" transform="translate(187.945 40)" fill="#e3eefd"/>
            <rect id="Rectangle_8154" data-name="Rectangle 8154" width="27.448" height="4.02" transform="translate(187.888 46.744)" fill="#e3eefd"/>
          </g>
        </g>
      </g>
    </g>
    <g id="Group_71511" data-name="Group 71511" transform="translate(-3431.875 -177.571)">
      <path id="Path_70344" data-name="Path 70344" d="M-3181.53,1074.039l205.44.693-88.985,16.119-143.287-16.691Z" transform="translate(3208.362 -1074.039)" fill="#e3eefd"/>
      <path id="Path_70345" data-name="Path 70345" d="M-3090.873,1074.039l179.487,6.744c-11.425,9.494-169.936-6.509-186.613-6.627Z" transform="translate(3110.254 -1074.039)" fill="#fff"/>
    </g>
    <g id="Group_71513" data-name="Group 71513" transform="translate(-3391.726 -220.746)">
      <path id="Path_70346" data-name="Path 70346" d="M-2846.726,702.095s-1.8-9.9,13.948-16.889c0,0-1.572,13.389-5.727,17.788,0,0-.114-5.548,17.267-6.074,0,0-7.3,13.042-12.776,16.112,0,0,5.493-3.144,19.476-2.852,0,0-10.023,10.485-17.1,12.33,0,0,4.866-2.427,14.188,0,0,0-14.984,5.98-25.261,5.98Z" transform="translate(2846.789 -685.206)" fill="#8b9a43"/>
      <g id="Group_71512" data-name="Group 71512" transform="translate(0)" clip-path="url(#clip-path-4)">
        <path id="Path_70347" data-name="Path 70347" d="M-2863.612,738.739l6.018,27.762c.923,4.689,4.685,7.991,9.081,9.47l-18.969.741-1.4-33.762Z" transform="translate(2866.43 -732.795)" fill="#8b9a43"/>
      </g>
    </g>
    <g id="Group_71520" data-name="Group 71520" transform="translate(-3449.93 -268.855)">
      <g id="Group_71517" data-name="Group 71517" transform="translate(0 0)">
        <g id="Group_71516" data-name="Group 71516">
          <path id="Path_70349" data-name="Path 70349" d="M-3354.362,343.348l45.674-.013a2.7,2.7,0,0,0,2.757-3.2l-12.847-85a3.88,3.88,0,0,0-3.724-3.2l-45.674.013a2.7,2.7,0,0,0-2.757,3.2l12.847,85A3.88,3.88,0,0,0-3354.362,343.348Z" transform="translate(3370.969 -251.943)" fill="#38385c"/>
          <g id="Group_71515" data-name="Group 71515" transform="translate(4.644 6.721)">
            <path id="Path_70350" data-name="Path 70350" d="M-3273.359,390.421l-44,.013-11.782-77.951,44-.013Z" transform="translate(3329.146 -312.47)" fill="#b9d4fd"/>
            <g id="Group_71514" data-name="Group 71514" clip-path="url(#clip-path-5)">
              <path id="Path_70351" data-name="Path 70351" d="M-3296.791,300.425l-39.56,3.068,13.012,75.341-6.927-.446-11.985-79.469,45.459,1.5" transform="translate(3340.795 -300.425)" fill="#739bfd"/>
              <path id="Path_70352" data-name="Path 70352" d="M-3215.027,571.094l-46.45,49.018,2.19,14.491,46.082-48.9Z" transform="translate(3268.991 -542.377)" fill="#fff" opacity="0.2"/>
              <path id="Path_70353" data-name="Path 70353" d="M-3091.183,714.444l-46.45,49.018,2.19,14.491,46.082-48.9Z" transform="translate(3158.899 -669.809)" fill="#fff" opacity="0.2"/>
              <path id="Path_70354" data-name="Path 70354" d="M-3244.138,337.611l-46.45,49.018,2.19,14.491,46.082-48.9Z" transform="translate(3294.87 -334.819)" fill="#fff" opacity="0.2"/>
              <path id="Path_70355" data-name="Path 70355" d="M-3308.551,136.609-3355,185.626l2.19,14.491,46.082-48.9Z" transform="translate(3352.13 -156.136)" fill="#fff" opacity="0.2"/>
            </g>
          </g>
          <path id="Path_70357" data-name="Path 70357" d="M-3172.551,280.715l-8.325,0a.868.868,0,0,1-.833-.715h0a.6.6,0,0,1,.616-.715l8.324,0a.867.867,0,0,1,.833.715h0A.6.6,0,0,1-3172.551,280.715Z" transform="translate(3202.73 -276.249)" fill="#fff"/>
        </g>
      </g>
      <g id="Group_71519" data-name="Group 71519" transform="translate(21.028 34.566)">
        <g id="Group_71518" data-name="Group 71518">
          <path id="Path_70358" data-name="Path 70358" d="M-3159.3,574.213c-1.355-6.062-7.369-10.976-13.432-10.976-14.035,1.1-11.187,19.145,7.06,31.584A20.465,20.465,0,0,0-3159.3,574.213Z" transform="translate(3181.589 -563.237)" fill="#e50d23"/>
          <path id="Path_70359" data-name="Path 70359" d="M-3113.017,621.816c.9,6-7.316,4.652-8.122,0C-3122.035,615.821-3113.823,617.164-3113.017,621.816Z" transform="translate(3127.912 -611.748)" fill="#fff"/>
        </g>
      </g>
      <path id="Path_70360" data-name="Path 70360" d="M-3116.906,878.981c.564,1.6-24.1,1.6-23.531,0C-3141,877.377-3116.34,877.377-3116.906,878.981Z" transform="translate(3166.043 -808.286)" fill="#fff"/>
    </g>
    <g id="Group_71542" data-name="Group 71542" transform="translate(-3383.051 -309.996)">
      <g id="Group_71538" data-name="Group 71538" transform="translate(0 0)">
        <path id="Path_70361" data-name="Path 70361" d="M-2614.935,250.322a4.918,4.918,0,0,0-5.177-1.994l-34.037,6.832-13.028,9.407,1.869,3.314,1.012,21.953-16.818,12,2.691,5.044c28.4-7.531,25.3-.973,31.557-30.763l25.516-12.252,20.41,23.732,7.406-6.249Z" transform="translate(2690.834 -207.472)" fill="#38385c"/>
        <path id="Path_70362" data-name="Path 70362" d="M-2558.63,312.613s3.962-14.422,22.037-16.823C-2536.593,295.79-2551.858,302.986-2558.63,312.613Z" transform="translate(2581.951 -249.781)" fill="#1a1a35"/>
        <path id="Path_70363" data-name="Path 70363" d="M-2538.479,399.483l2.94-27.941-4.042,5.391Z" transform="translate(2565.018 -317.121)" fill="#1a1a35"/>
        <path id="Path_70364" data-name="Path 70364" d="M-2344.571,352.849c-2.333-3.068-5.175-1.392-7.577.513a18.475,18.475,0,0,1-18.681,1.434l-1.85,12.844,25.516-12.252,20.41,23.732Z" transform="translate(2416.648 -298.999)" fill="#1a1a35"/>
        <g id="Group_71521" data-name="Group 71521" transform="translate(89.083 57.057)">
          <path id="Path_70365" data-name="Path 70365" d="M-1963.534,415.621l2.754-14.425a6.768,6.768,0,0,1,5.147-5.247c-3.133-2.152-7.422,1.375-7.92,4.638l-2.754,14.425a4.654,4.654,0,0,0,5,5.5A4.652,4.652,0,0,1-1963.534,415.621Z" transform="translate(1966.393 -395.289)" fill="#38385c"/>
          <path id="Path_70366" data-name="Path 70366" d="M-1935.155,422.779c1.647-5.958,8.676-16.28,1.917-21.409h0q-.088-.074-.181-.142a6.768,6.768,0,0,0-5.147,5.247l-2.754,14.425a4.652,4.652,0,0,0,2.228,4.9A4.653,4.653,0,0,0-1935.155,422.779Z" transform="translate(1944.18 -400.569)" fill="#1a1a35"/>
        </g>
        <path id="Path_70367" data-name="Path 70367" d="M-1996.211,484.1a3.783,3.783,0,0,1-.727-3.341l2.2-11.511-6.11,9.458Z" transform="translate(2086.107 -403.974)" fill="#1a1a35"/>
        <g id="Group_71523" data-name="Group 71523" transform="translate(0 95.192)">
          <path id="Path_70368" data-name="Path 70368" d="M-2759.932,738.729c-1.9.171-4.471,2.95-4.471,2.95h0c-1.94,1.691-5.056,6.907-4.071,9.851a2.044,2.044,0,0,0,2.316,1.66c4.645-.954,6.474-7.2,7.955-10.348C-2757.8,741.71-2758.445,738.55-2759.932,738.729Z" transform="translate(2768.662 -738.722)" fill="#38385c"/>
          <g id="Group_71522" data-name="Group 71522" clip-path="url(#clip-path-6)">
            <path id="Path_70369" data-name="Path 70369" d="M-2772.186,777.852c.155,0,3.064.542,4.2-.061s6.227-8.376,6.227-8.376l1.019.528c-1.421,5.692-2.474,11.916-10.993,11.168Z" transform="translate(2771.794 -766.006)" fill="#1a1a35"/>
          </g>
        </g>
        <path id="Path_70371" data-name="Path 70371" d="M-2707.05,734.17l-2.092,1.351c-3.246,2.221.065,7.856,2.8,3l1.408-.4Z" transform="translate(2716.946 -639.484)" fill="#ffb6a6"/>
        <g id="Group_71532" data-name="Group 71532" transform="translate(2.232)">
          <g id="Group_71529" data-name="Group 71529">
            <g id="Group_71525" data-name="Group 71525" transform="translate(3.55 6.662)">
              <path id="Path_70372" data-name="Path 70372" d="M-2709.688-58.566l-6.9,3.247,7.314,15.044,5.134-3.414-1.569-3.483c1.571-1.045,3.805-2.28,2.185-4.415Z" transform="translate(2716.592 58.566)" fill="#ffb6a6"/>
              <g id="Group_71524" data-name="Group 71524" clip-path="url(#clip-path-7)">
                <path id="Path_70373" data-name="Path 70373" d="M-2693.317-47.963s3.025,1.723,8.24-.084l-2.7-3.172-5.537,3.256" transform="translate(2695.901 52.035)" fill="#ff8370"/>
                <path id="Path_70374" data-name="Path 70374" d="M-2643.118,4.243s-2.894.541-3.771.788S-2643.657,5.476-2643.118,4.243Z" transform="translate(2654.737 2.731)" fill="#fff"/>
                <path id="Path_70375" data-name="Path 70375" d="M-2661.368,15.428l-4.969-3.622s4-.417,5.546-.481,2.471-2.757,2.471-2.757c2.037,1.554-1.787,3.648-2.278,4.039l.876,2.34Z" transform="translate(2671.917 -1.114)" fill="#ff8370"/>
              </g>
            </g>
            <path id="Path_70377" data-name="Path 70377" d="M-2730.484-68.673a36.5,36.5,0,0,0,6.031-1.225l-3.191-.142s4.581-.208,6.77-1.839c0,0-4.574-4.26-9.227-1.95s-4.121,4.139-4.121,4.139c-3.5,3.052,4.205,8.278,5.231,8.58,1.19-2.1,1.553-2.651.072-4.863-1.77,1.487-3.8-2.552-.737-1.563Z" transform="translate(2736.618 79.407)" fill="#38385c"/>
            <g id="Group_71528" data-name="Group 71528">
              <g id="Group_71527" data-name="Group 71527">
                <path id="Path_70378" data-name="Path 70378" d="M-2745.124-103.3s.356-3.136,4.123-8.1l4.129-2.9a3.036,3.036,0,0,0,.661-3.947.474.474,0,0,0-.721-.222l-4,2.866C-2748.517-115.881-2751.415-107.53-2745.124-103.3Z" transform="translate(2748.562 118.564)" fill="#f85c3d"/>
                <g id="Group_71526" data-name="Group 71526" clip-path="url(#clip-path-8)">
                  <path id="Path_70379" data-name="Path 70379" d="M-2696.636-92.466a3.543,3.543,0,0,1-.07,4.208h0s-.131-3.964-2.028-4.136a6.886,6.886,0,0,1,2.1-.072" transform="translate(2704.268 95.42)" fill="#df4930"/>
                </g>
              </g>
              <path id="Path_70381" data-name="Path 70381" d="M-2743.216-67.558c-.658,1.075-1.422.6-.747-.466C-2743.3-69.1-2742.541-68.623-2743.216-67.558Z" transform="translate(2744.707 74.175)" fill="#df4930"/>
            </g>
          </g>
          <path id="Path_70382" data-name="Path 70382" d="M-2670.942,63.427c10.973-16.186,32.1,20.175,34.331,22.121,0,0-16.225,1.787-22.037,16.823l-8.062-20.644s-5.539-13.782-4.232-18.3" transform="translate(2679.738 -39.539)" fill="#f85c3d"/>
          <path id="Path_70383" data-name="Path 70383" d="M-2674.006,53.653l-.583-1.84a11.1,11.1,0,0,1,8-3.522l.523,1.112S-2672.844,51.225-2674.006,53.653Z" transform="translate(2682.803 -29.765)" fill="#38385c"/>
          <g id="Group_71531" data-name="Group 71531" transform="translate(1.013 23.889)">
            <path id="Path_70384" data-name="Path 70384" d="M-2731.652,96.574l-7.225,10.45a3.142,3.142,0,0,0,.625,4.243l4.506,3.594a3.9,3.9,0,0,0,5.518-.666l6.689-8.668Z" transform="translate(2739.435 -96.574)" fill="#f85c3d"/>
            <g id="Group_71530" data-name="Group 71530" clip-path="url(#clip-path-9)">
              <path id="Path_70385" data-name="Path 70385" d="M-2743.346,185.513c2.447-3.674,13.911,2.283,14.725,2.838l-6.042,6.332s-5.926.1-7.126-.965S-2743.9,187.361-2743.346,185.513Z" transform="translate(2743.058 -174.58)" fill="#df4930"/>
            </g>
          </g>
          <path id="Path_70387" data-name="Path 70387" d="M-2634.585,185.594l6.253-8.388s-.46,19.007,4.847,24.876a46.112,46.112,0,0,0-2.666,5.114Z" transform="translate(2647.241 -144.364)" fill="#df4930"/>
        </g>
        <g id="Group_71535" data-name="Group 71535" transform="translate(19.752 4.483)">
          <g id="Group_71534" data-name="Group 71534">
            <path id="Path_70388" data-name="Path 70388" d="M-2542.346-41.6l-30.468,2.922-17.968-2.922V-74.747l17.968-3.442,30.468,3.442Z" transform="translate(2590.781 78.189)" fill="#eecd76"/>
            <g id="Group_71533" data-name="Group 71533" clip-path="url(#clip-path-10)">
              <path id="Path_70389" data-name="Path 70389" d="M-2309.8-64.514l-.235,21.779,4.716-.575.23-20.544-4.71-.66" transform="translate(2341.205 66.032)" fill="#fff"/>
            </g>
          </g>
          <path id="Path_70391" data-name="Path 70391" d="M-2572.814-38.681l-17.968-2.922V-74.747l17.968-3.442Z" transform="translate(2590.781 78.189)" fill="#eda26a"/>
        </g>
        <g id="Group_71537" data-name="Group 71537" transform="translate(3.277 34.585)">
          <path id="Path_70392" data-name="Path 70392" d="M-2699.127,196.719c-.627-.206-5.489,1.764-7.139.1,3.8-4.829.046-2.527-2.56-.206l-24.86-3.655a4.757,4.757,0,0,0-4.749,2.221h0c-2.284,3.6,1.288,7.936,5.157,7.779l22.1-1.408,0,.01s7.426,1.494,9.148.953S-2698.777,197.049-2699.127,196.719Z" transform="translate(2739.152 -192.909)" fill="#ffb6a6"/>
          <g id="Group_71536" data-name="Group 71536" clip-path="url(#clip-path-11)">
            <path id="Path_70393" data-name="Path 70393" d="M-2748.329,215.2a10.979,10.979,0,0,0,8.027,4.764c5.381.435,19.835,1.4,19.835,1.4-2.594-.22-27.142,6.837-29.134-.85A23.965,23.965,0,0,1-2748.329,215.2Z" transform="translate(2748.44 -212.728)" fill="#ff8370"/>
          </g>
        </g>
      </g>
      <g id="Group_71541" data-name="Group 71541" transform="translate(96.091 59.405)">
        <g id="Group_71540" data-name="Group 71540">
          <g id="Group_71539" data-name="Group 71539">
            <path id="Path_70395" data-name="Path 70395" d="M-1856.135,439.513c-.142-30.785-46.946-30.777-47.082,0,0,0-2.419,24.652,23.541,44.189C-1853.715,464.166-1856.135,439.513-1856.135,439.513Z" transform="translate(1903.277 -416.427)" fill="#e50d23"/>
            <path id="Path_70396" data-name="Path 70396" d="M-1757.083,538.076c-.2,11.445-17.223,11.443-17.417,0C-1774.3,526.631-1757.277,526.633-1757.083,538.076Z" transform="translate(1788.799 -516.938)" fill="#fff"/>
          </g>
        </g>
      </g>
    </g>
    <path id="Path_70397" data-name="Path 70397" d="M-3018.461-246.937c-.372-.14-.187-.347-.519-1.135a.214.214,0,0,1,.135-.27.213.213,0,0,1,.27.135c.2.6.3.934.318,1l-.2.061.031.211Zm-.737-2.207c-.412-.188-.405-.949-.643-1.345a.213.213,0,0,1,.4-.15C-3019.4-250.28-3018.66-249.249-3019.2-249.145Zm-.9-2.406c-.421-.207-.425-.927-.676-1.324a.214.214,0,0,1,.4-.161C-3020.336-252.686-3019.553-251.657-3020.1-251.551Zm-.971-2.376c-.419-.207-.445-.914-.7-1.306a.214.214,0,0,1,.391-.171C-3021.332-255.057-3020.516-254.035-3021.073-253.927Zm-1.03-2.35c-.417-.206-.46-.9-.729-1.289a.214.214,0,0,1,.387-.18C-3022.381-257.4-3021.538-256.388-3022.1-256.277Zm-1.083-2.325c-.417-.207-.475-.88-.753-1.272a.214.214,0,0,1,.383-.189C-3023.483-259.712-3022.614-258.715-3023.186-258.6Zm-1.135-2.3c-.416-.207-.492-.87-.776-1.255a.214.214,0,0,1,.379-.2C-3024.639-262.009-3023.741-261.017-3024.321-260.9Zm-1.184-2.274c-.416-.207-.508-.859-.8-1.238a.214.214,0,0,1,.375-.205C-3025.842-264.262-3024.919-263.325-3025.505-263.175Zm-1.232-2.248c-.415-.206-.523-.848-.819-1.221a.213.213,0,0,1,.37-.213C-3027.094-266.505-3026.144-265.575-3026.737-265.423Zm-156.687-.514a.214.214,0,0,1-.214-.223c0-.019.022-.474.1-1.306a.214.214,0,0,1,.425.04C-3183.277-266.392-3183.03-266.052-3183.424-265.937Zm155.408-1.708c-.415-.206-.538-.837-.84-1.2a.213.213,0,0,1,.072-.293c.436-.134.685.9.951,1.175A.215.215,0,0,1-3028.016-267.644Zm-155.175-.87c-.471-.1-.011-1.132-.05-1.519a.214.214,0,0,1,.423.058C-3182.957-269.595-3182.782-268.618-3183.19-268.515Zm153.85-1.324c-.414-.205-.552-.825-.86-1.186a.214.214,0,0,1,.361-.228C-3029.735-270.911-3028.733-270-3029.341-269.839Zm-153.5-1.224c-.481-.1.025-1.143,0-1.517a.214.214,0,0,1,.421.073C-3182.576-272.138-3182.44-271.171-3182.843-271.063Zm152.132-.942c-.414-.2-.567-.812-.88-1.168a.214.214,0,0,1,.356-.236C-3031.124-273.071-3030.1-272.166-3030.711-272Zm-151.7-1.589c-.49-.1.057-1.147.04-1.516a.214.214,0,0,1,.418.086C-3182.116-274.644-3182-273.728-3182.407-273.594Zm150.281-.547c-.414-.2-.581-.8-.9-1.149a.214.214,0,0,1,.351-.243C-3032.558-275.2-3031.5-274.307-3032.126-274.141Zm-149.762-1.966c-.5-.1.088-1.149.081-1.513a.214.214,0,0,1,.416.1C-3181.57-277.146-3181.485-276.246-3181.888-276.108Zm148.3-.14c-.414-.2-.595-.786-.919-1.13a.214.214,0,0,1,.346-.25C-3034.035-277.3-3032.955-276.417-3033.585-276.248Zm-1.5-2.075c-.413-.2-.608-.772-.938-1.11a.214.214,0,0,1,.34-.258C-3035.557-279.369-3034.45-278.5-3035.088-278.323Zm-146.2-.28c-.509-.1.118-1.149.123-1.509a.214.214,0,0,1,.412.113C-3180.945-279.627-3180.89-278.745-3181.29-278.6Zm144.655-1.763c-.413-.2-.622-.758-.957-1.09a.213.213,0,0,1,.035-.3c.415-.187.791.805,1.091,1.046A.215.215,0,0,1-3036.635-280.366Zm-143.978-.711c-.52-.1.15-1.151.165-1.5a.214.214,0,0,1,.408.126C-3180.247-282.076-3180.206-281.242-3180.613-281.076Zm142.388-1.3c-.414-.2-.635-.743-.976-1.069a.213.213,0,0,1,.028-.3c.411-.2.808.788,1.114,1.022A.215.215,0,0,1-3038.225-282.375Zm-141.631-1.152c-.53-.1.18-1.146.206-1.5a.214.214,0,0,1,.4.139C-3179.464-284.508-3179.452-283.695-3179.856-283.527Zm140-.823c-.414-.2-.648-.728-.994-1.047a.214.214,0,0,1,.323-.279C-3040.382-285.37-3039.2-284.537-3039.858-284.35Zm-139.161-1.6c-.541-.1.212-1.142.25-1.491a.214.214,0,0,1,.4.153C-3178.606-286.9-3178.607-286.139-3179.019-285.95Zm137.485-.338c-.415-.2-.66-.713-1.012-1.026a.214.214,0,0,1,.016-.3c.4-.214.841.752,1.157.972A.215.215,0,0,1-3041.534-286.288Zm-1.718-1.9c-.415-.2-.673-.7-1.03-1a.214.214,0,0,1,.009-.3c.4-.223.858.733,1.178.946A.215.215,0,0,1-3043.251-288.189Zm-134.849-.154c-.552-.105.246-1.138.295-1.481a.214.214,0,0,1,.393.167C-3177.666-289.268-3177.68-288.55-3178.1-288.343Zm133.089-1.708c-.415-.195-.685-.68-1.047-.98-.2-.194.112-.5.3-.3C-3045.589-291.041-3044.327-290.255-3045.011-290.051Zm-132.086-.65c-.565-.108.28-1.131.341-1.469a.214.214,0,0,1,.386.181C-3176.636-291.608-3176.679-290.909-3177.1-290.7Zm130.285-1.172c-.416-.193-.7-.664-1.064-.956a.213.213,0,0,1,0-.3c.386-.241.889.693,1.219.893A.215.215,0,0,1-3046.812-291.874Zm-129.2-1.148c-.578-.144.314-1.106.387-1.456a.214.214,0,0,1,.38.2C-3175.519-293.908-3175.593-293.228-3176.008-293.021Zm127.355-.634c-.179-.057-1.409-1.067-1.092-1.233.381-.249.905.673,1.239.864A.215.215,0,0,1-3048.653-293.655Zm-126.178-1.643c-.591-.149.351-1.1.436-1.439a.214.214,0,0,1,.372.211C-3174.313-296.163-3174.417-295.5-3174.832-295.3Zm124.3-.1c-.188-.072-1.42-1.019-1.115-1.208.375-.259.924.654,1.259.836A.215.215,0,0,1-3050.534-295.394Zm-1.92-1.7c-.194-.083-1.432-.974-1.138-1.182.368-.268.941.635,1.277.807A.215.215,0,0,1-3052.455-297.089Zm-121.111-.436c-.6-.155.386-1.084.486-1.42a.214.214,0,0,1,.363.226C-3173.02-298.364-3173.153-297.73-3173.566-297.525Zm119.152-1.214c-.208-.1-1.441-.928-1.16-1.155.362-.276.947.606,1.3.777A.215.215,0,0,1-3054.414-298.74Zm-117.795-.959a.215.215,0,0,1-.179-.33c.282-.269.584-1.282,1.012-1.124a.214.214,0,0,1,.055.3C-3171.634-300.513-3171.8-299.9-3172.209-299.7Zm115.8-.645c-.214-.106-1.456-.89-1.182-1.128.355-.284.962.584,1.314.746A.215.215,0,0,1-3056.411-300.344Zm-114.35-1.467c-.635-.17.462-1.056.589-1.373a.214.214,0,0,1,.341.257C-3170.158-302.595-3170.349-302.013-3170.76-301.811Zm112.315-.09c-.224-.118-1.462-.841-1.2-1.1.348-.292.976.562,1.331.715A.215.215,0,0,1-3058.445-301.9Zm-2.07-1.509c-.239-.132-1.466-.791-1.224-1.071.342-.3.985.536,1.347.683A.215.215,0,0,1-3060.515-303.41Zm-108.7-.446a.215.215,0,0,1-.167-.346c.3-.241.7-1.224,1.109-1.028a.214.214,0,0,1,.028.3C-3168.588-304.609-3168.807-304.057-3169.219-303.857Zm106.6-1.013c-.237-.133-1.477-.751-1.243-1.042.334-.309,1,.517,1.363.652A.215.215,0,0,1-3062.62-304.87Zm-104.965-.959a.215.215,0,0,1-.161-.353c.316-.229.754-1.19,1.157-.974a.214.214,0,0,1,.014.3C-3166.924-306.55-3167.172-306.026-3167.585-305.829Zm102.826-.451c-.248-.143-1.477-.7-1.263-1.012.327-.317,1.017.494,1.378.619A.215.215,0,0,1-3064.759-306.279Zm-2.172-1.358c-.252-.146-1.487-.66-1.281-.982.32-.324,1.029.47,1.393.586A.215.215,0,0,1-3066.93-307.637Zm-98.929-.083c-.685-.2.579-.995.747-1.279.193-.2.5.11.3.3C-3165.174-308.4-3165.446-307.914-3165.859-307.72Zm96.726-1.224c-.257-.149-1.5-.622-1.3-.951.312-.331,1.037.444,1.406.553A.215.215,0,0,1-3069.134-308.944Zm-94.909-.581a.215.215,0,0,1-.147-.369c.335-.2.867-1.11,1.247-.856a.214.214,0,0,1-.016.3C-3163.331-310.171-3163.629-309.715-3164.043-309.525Zm92.676-.673c-.272-.159-1.49-.569-1.316-.92.3-.339,1.046.418,1.419.519A.215.215,0,0,1-3071.367-310.2Zm-90.772-1.039a.215.215,0,0,1-.139-.376c.344-.177.922-1.065,1.288-.791C-3160.691-312.211-3161.946-311.318-3162.139-311.236Zm88.509-.162c-.426-.149-.824-.418-1.237-.6a.214.214,0,0,1,.191-.382C-3074.44-312.193-3072.84-311.72-3073.63-311.4Zm-2.29-1.147c-.281-.16-1.5-.493-1.348-.858.288-.353,1.063.368,1.441.452A.215.215,0,0,1-3075.92-312.545Zm-84.23-.3a.215.215,0,0,1-.13-.383c.35-.158.976-1.016,1.327-.724C-3158.685-313.717-3159.937-312.958-3160.151-312.849Zm81.914-.789c-.281-.158-1.508-.455-1.363-.826.28-.359,1.076.345,1.452.418A.215.215,0,0,1-3078.236-313.638Zm-79.846-.719a.215.215,0,0,1-.122-.389c.359-.14,1.027-.965,1.362-.655C-3156.606-315.117-3157.847-314.49-3158.083-314.357Zm77.5-.319c-.3-.166-1.5-.4-1.377-.794.271-.366,1.082.32,1.461.384A.215.215,0,0,1-3080.578-314.676Zm-2.365-.984c-.3-.165-1.5-.367-1.39-.762.237-.374,1.1.3,1.469.351A.215.215,0,0,1-3082.943-315.659Zm-73-.1a.215.215,0,0,1-.112-.4c.367-.123,1.075-.91,1.395-.584C-3154.452-316.419-3155.686-315.906-3155.94-315.756Zm70.61-.832c-.3-.163-1.5-.331-1.4-.73.227-.38,1.111.27,1.477.317A.215.215,0,0,1-3085.33-316.588Zm-68.4-.456a.215.215,0,0,1-.1-.4c.372-.1,1.12-.855,1.422-.512C-3152.222-317.624-3153.466-317.2-3153.728-317.044Zm65.991-.418c-.307-.16-1.5-.3-1.413-.7.219-.385,1.116.245,1.484.283A.215.215,0,0,1-3087.737-317.462Zm-63.717-.756a.215.215,0,0,1-.094-.406c.375-.083,1.161-.8,1.446-.44C-3149.949-318.7-3151.177-318.379-3151.454-318.218Zm61.29-.064c-.31-.157-1.5-.26-1.424-.667.21-.39,1.121.22,1.49.25A.214.214,0,0,1-3090.163-318.282Zm-2.444-.765c-.324-.162-1.486-.213-1.433-.635.2-.394,1.126.2,1.495.217A.214.214,0,0,1-3092.608-319.047Zm-56.516-.23a.214.214,0,0,1-.083-.41c.365-.064,1.225-.742,1.465-.369C-3147.609-319.682-3148.836-319.437-3149.124-319.277Zm54.056-.481c-.432-.1-.858-.235-1.291-.343a.214.214,0,0,1,.109-.413C-3095.976-320.4-3094.231-320.181-3095.068-319.759Zm-51.677-.463a.214.214,0,0,1-.074-.414c.365-.046,1.259-.683,1.481-.3C-3145.242-320.537-3146.442-320.385-3146.745-320.222Zm49.2-.195c-.33-.154-1.484-.146-1.451-.572.184-.4,1.133.146,1.5.152A.214.214,0,0,1-3097.543-320.416Zm-2.489-.6c-.332-.15-1.483-.114-1.458-.542.176-.406,1.136.123,1.506.12A.214.214,0,0,1-3100.032-321.021Zm-44.293-.031a.214.214,0,0,1-.064-.417c.369-.029,1.289-.624,1.493-.23C-3142.819-321.294-3144.014-321.21-3144.325-321.052Zm41.792-.52c-.334-.145-1.48-.082-1.464-.512.167-.41,1.139.1,1.508.089A.214.214,0,0,1-3102.533-321.573Zm-39.335-.2a.214.214,0,0,1-.055-.42c.368-.012,1.315-.566,1.5-.163C-3140.383-321.932-3141.542-321.929-3141.868-321.771Zm36.823-.3c-.337-.141-1.477-.052-1.47-.481.16-.413,1.14.076,1.509.058A.214.214,0,0,1-3105.045-322.072Zm-34.338-.309a.214.214,0,0,1-.046-.422c.37,0,1.338-.509,1.508-.1C-3137.9-322.477-3139.05-322.531-3139.383-322.382Zm31.817-.139c-.34-.135-1.466-.021-1.472-.451.121-.415,1.155.05,1.507.026A.214.214,0,0,1-3107.566-322.521Zm-29.307-.366a.214.214,0,0,1-.038-.424c.369.019,1.356-.454,1.51-.038C-3135.4-322.921-3136.537-323.026-3136.874-322.887Zm26.777-.031c-.361-.137-1.447.021-1.48-.419.141-.419,1.136.026,1.511-.005A.214.214,0,0,1-3110.1-322.918Zm-2.539-.341c-.362-.13-1.442.055-1.485-.384.131-.422,1.137,0,1.51-.041A.214.214,0,0,1-3112.636-323.259Zm-21.71-.032a.214.214,0,0,1-.029-.425c.365.034,1.372-.4,1.511.02C-3132.9-323.257-3134-323.425-3134.346-323.291Zm19.164-.248c-.363-.122-1.436.091-1.489-.347.12-.426,1.139-.029,1.509-.079A.214.214,0,0,1-3115.182-323.538Zm-16.622-.059a.214.214,0,0,1-.022-.426c.362.048,1.388-.351,1.509.076C-3130.367-323.51-3131.452-323.721-3131.8-323.6Zm14.069-.155c-.428-.029-.862-.058-1.291-.082a.214.214,0,0,1,.024-.426c.356.106,1.424-.13,1.479.31A.214.214,0,0,1-3117.735-323.753Zm-11.518-.059a.213.213,0,0,1-.213-.2c.055-.439,1.12-.2,1.481-.3a.214.214,0,0,1,.021.426C-3128.4-323.866-3128.828-323.839-3129.253-323.812Zm8.96-.087c-.427-.018-.86-.034-1.286-.046a.214.214,0,0,1,.012-.427c.359.1,1.42-.169,1.487.269A.214.214,0,0,1-3120.293-323.9Zm-6.4-.039a.213.213,0,0,1-.213-.207c.07-.437,1.126-.161,1.49-.252a.214.214,0,0,1,.007.427C-3125.84-323.964-3126.272-323.952-3126.7-323.939Zm3.841-.035c-.333-.083-1.465.192-1.493-.221.041-.422,1.159-.134,1.5-.206A.214.214,0,0,1-3122.854-323.974Z" transform="translate(-245.491 -8.424)" fill="#38385c"/>
    <g id="Group_71543" data-name="Group 71543" transform="translate(-3302.29 -328.725)">
      <path id="Path_70398" data-name="Path 70398" d="M-1646.187-216.525H-1693.2c2.64-4.118,7.2-9.39,12.607-7.505,3.426-13.74,23.26-12.708,25.249,1.3C-1651.173-225.24-1645.8-221.037-1646.187-216.525Z" transform="translate(1731.857 239.738)" fill="#e3eefd"/>
      <path id="Path_70399" data-name="Path 70399" d="M-2008.137-280.94h-33.2a8.848,8.848,0,0,1,7.613-1.952c2.3-5.5,10.58-5.877,13.367-.611,1.689-1.426,3.943-.031,5.312,1.225C-2013.416-285.471-2008.9-283.9-2008.137-280.94Z" transform="translate(2041.338 287.243)" fill="#e3eefd"/>
    </g>
  </g>
</svg>
