<svg xmlns="http://www.w3.org/2000/svg" xmlns:xlink="http://www.w3.org/1999/xlink" width="40.139" height="40.178" viewBox="0 0 40.139 40.178">
  <defs>
    <filter id="Path_458" x="0" y="0" width="40.139" height="40.178" filterUnits="userSpaceOnUse">
      <feOffset dx="2" dy="3" input="SourceAlpha"/>
      <feGaussianBlur stdDeviation="3" result="blur"/>
      <feFlood flood-opacity="0.161"/>
      <feComposite operator="in" in2="blur"/>
      <feComposite in="SourceGraphic"/>
    </filter>
  </defs>
  <g id="Group_70676" data-name="Group 70676" transform="translate(481.341 -354.05)">
    <g transform="matrix(1, 0, 0, 1, -481.34, 354.05)" filter="url(#Path_458)">
      <path id="Path_458-2" data-name="Path 458" d="M-452.2,371.145a11.074,11.074,0,0,1-10.741,11.078,11.073,11.073,0,0,1-11.4-11.022,11.053,11.053,0,0,1,10.958-11.151A11.059,11.059,0,0,1-452.2,371.145Zm-3.135,5.365a9.587,9.587,0,0,0-1.681-12.667,9.575,9.575,0,0,0-13.476.975,9.525,9.525,0,0,0-.69,11.679A11.108,11.108,0,0,1-455.337,376.51Z" transform="translate(481.34 -354.05)" fill="#092853"/>
    </g>
    <path id="Path_459" data-name="Path 459" d="M-357.59,412.412A4.437,4.437,0,0,1-362,416.844a4.439,4.439,0,0,1-4.447-4.393,4.432,4.432,0,0,1,4.454-4.478A4.437,4.437,0,0,1-357.59,412.412Z" transform="translate(-101.249 -44.971)" fill="#8c8d8e"/>
  </g>
</svg>
