<svg xmlns="http://www.w3.org/2000/svg" width="31" height="31" viewBox="0 0 31 31">
  <g id="Group_72887" data-name="Group 72887" transform="translate(-755.737 -207.018)">
    <circle id="Ellipse_1446" data-name="Ellipse 1446" cx="14.5" cy="14.5" r="14.5" transform="translate(756.737 208.018)" fill="#fff" stroke="#092853" stroke-width="2"/>
    <g id="Group_72887-2" data-name="Group 72887" transform="translate(762.313 212.898)">
      <path id="WA_Logo" data-name="WA Logo" d="M1.181,12.489a8.324,8.324,0,1,1,7.214,4.17h0a8.318,8.318,0,0,1-3.978-1.013L0,16.8Zm3.689,1.8a6.9,6.9,0,0,0,3.521.965h0a6.92,6.92,0,1,0-5.861-3.243l.165.262L2,14.825l2.619-.687Zm4.883-2.079a11.935,11.935,0,0,1-1.186-.438A9.271,9.271,0,0,1,5.014,8.629a4.048,4.048,0,0,1-.849-2.152,2.333,2.333,0,0,1,.728-1.736.764.764,0,0,1,.555-.26c.139,0,.277,0,.4.007h.047c.121,0,.272,0,.422.357.173.417.589,1.441.641,1.545a.383.383,0,0,1,.018.364,1.419,1.419,0,0,1-.208.347c-.1.122-.219.271-.312.365s-.212.216-.091.425A6.266,6.266,0,0,0,7.519,9.332a5.675,5.675,0,0,0,1.673,1.033c.208.1.329.087.451-.052s.52-.607.659-.816.277-.174.468-.1,1.213.573,1.421.677.347.156.4.243a1.74,1.74,0,0,1-.121.989,2.143,2.143,0,0,1-1.4.989,3.414,3.414,0,0,1-.5.04A2.64,2.64,0,0,1,9.753,12.209Z" transform="translate(1 1)" fill="#3d6398"/>
    </g>
  </g>
</svg>
