<svg xmlns="http://www.w3.org/2000/svg" width="27.183" height="5.459" viewBox="0 0 27.183 5.459">
  <g id="Group_72269" data-name="Group 72269" transform="translate(896.967 454.978)">
    <path id="Path_72082" data-name="Path 72082" d="M-763.877-452.237a2.74,2.74,0,0,0-2.709-2.734,2.742,2.742,0,0,0-2.735,2.708,2.743,2.743,0,0,0,2.725,2.75A2.739,2.739,0,0,0-763.877-452.237Z" transform="translate(-116.777 -0.007)" fill="#b7b7b7"/>
    <path id="Path_72083" data-name="Path 72083" d="M-636.079-452.237a2.722,2.722,0,0,0-2.693-2.741,2.735,2.735,0,0,0-2.738,2.7,2.735,2.735,0,0,0,2.714,2.758A2.722,2.722,0,0,0-636.079-452.237Z" transform="translate(-233.705 0)" fill="#3d6398"/>
    <path id="Path_72084" data-name="Path 72084" d="M-891.536-452.259a2.735,2.735,0,0,0-2.723-2.717,2.725,2.725,0,0,0-2.708,2.726,2.724,2.724,0,0,0,2.733,2.732A2.733,2.733,0,0,0-891.536-452.259Z" transform="translate(0 -0.002)" fill="#3d6398"/>
  </g>
</svg>
