<svg xmlns="http://www.w3.org/2000/svg" width="18.698" height="18.698" viewBox="0 0 18.698 18.698">
  <g id="Group_72886" data-name="Group 72886" transform="translate(823.006 407.006)">
    <path id="Path_75872" data-name="Path 75872" d="M-823.006-397.109v-1.023c.012-.076.029-.153.034-.23a8.5,8.5,0,0,1,.351-1.933,9.3,9.3,0,0,1,2.231-3.84,9.133,9.133,0,0,1,5.1-2.726c.358-.064.72-.1,1.081-.147h1.1c.241.029.482.053.722.086a9.144,9.144,0,0,1,4.914,2.256,9.151,9.151,0,0,1,3.022,5.4c.061.351.1.708.144,1.062v1.1c-.011.064-.028.128-.033.193a9.065,9.065,0,0,1-1.111,3.745,9.3,9.3,0,0,1-4.141,3.928,8.617,8.617,0,0,1-2.509.8c-.323.049-.647.093-.97.14H-814.2a1.254,1.254,0,0,0-.16-.032,9.23,9.23,0,0,1-3.844-1.157.438.438,0,0,0-.36-.036q-1.689.458-3.38.906a.571.571,0,0,1-.667-.2.6.6,0,0,1-.072-.539c.3-1.126.6-2.254.907-3.38a.439.439,0,0,0-.038-.36,8.979,8.979,0,0,1-1.053-3.031C-822.921-396.461-822.961-396.785-823.006-397.109Zm1.665,7.139c.081-.019.128-.028.175-.04.863-.231,1.727-.458,2.587-.7a.915.915,0,0,1,.7.086,14.632,14.632,0,0,0,1.652.758A7.771,7.771,0,0,0-812-389.6a7.935,7.935,0,0,0,4-2.1,8.023,8.023,0,0,0,2.474-7.091,7.705,7.705,0,0,0-2.261-4.6,8,8,0,0,0-7.451-2.306,7.841,7.841,0,0,0-4.968,3.113,8.019,8.019,0,0,0-1.6,5.921,7.94,7.94,0,0,0,1.117,3.232.847.847,0,0,1,.091.713c-.238.854-.462,1.713-.691,2.569C-821.313-390.105-821.323-390.053-821.341-389.971Z" transform="translate(0)" fill="#3d6398"/>
    <path id="Path_75873" data-name="Path 75873" d="M-797.7-378.382a6.98,6.98,0,0,1-4.105-1.459,8.279,8.279,0,0,1-2.835-3.6,5.4,5.4,0,0,1-.333-3.367,3.178,3.178,0,0,1,1.577-2.121,1.323,1.323,0,0,1,1.547.163c.392.363.777.737,1.138,1.132a1.348,1.348,0,0,1-.213,2.074c-.133.1-.279.186-.408.292a.218.218,0,0,0-.073.171,3.948,3.948,0,0,0,.853,1.877,3.758,3.758,0,0,0,1.975,1.1.353.353,0,0,0,.466-.188,1.6,1.6,0,0,1,.812-.767,1.232,1.232,0,0,1,1.294.179,15.649,15.649,0,0,1,1.331,1.318,1.305,1.305,0,0,1,.094,1.5,3.285,3.285,0,0,1-2.476,1.627C-797.311-378.4-797.57-378.394-797.7-378.382Zm-6.2-7.413a5.253,5.253,0,0,0,.729,2.629,7.2,7.2,0,0,0,2.847,2.847,4.949,4.949,0,0,0,2.843.716,2.181,2.181,0,0,0,1.812-.983.245.245,0,0,0-.038-.356c-.31-.3-.611-.611-.918-.915-.162-.16-.23-.152-.365.041-.163.232-.323.466-.485.7a.632.632,0,0,1-.685.288c-.3-.057-.6-.094-.89-.175a4.6,4.6,0,0,1-2.591-1.649,5.738,5.738,0,0,1-1.014-2.58.774.774,0,0,1,.408-.872c.193-.116.372-.254.557-.384.219-.153.223-.209.03-.4-.218-.22-.438-.438-.656-.657-.43-.43-.536-.427-.962.027-.013.014-.025.03-.038.044A2.526,2.526,0,0,0-803.9-385.8Z" transform="translate(-13.906 -13.914)" fill="#3d6398"/>
  </g>
</svg>
