<svg xmlns="http://www.w3.org/2000/svg" width="44.563" height="50.716" viewBox="0 0 44.563 50.716">
  <g id="Group_70549" data-name="Group 70549" transform="translate(-2682.316 -3986.568)">
    <path id="Path_30516" data-name="Path 30516" d="M2709.467,4036.795l-.7.489h-.99a5.582,5.582,0,0,1-3.206-3.982c-.073-.285-.109-.58-.162-.87l.584-1.589.571-.316a2.642,2.642,0,0,1,1.893.57,6.248,6.248,0,0,1,.881.866,5,5,0,0,1,1.316,4.126C2709.615,4036.328,2709.532,4036.56,2709.467,4036.795Zm-2.727-4.457c-.563-.025-.8.183-.838.629a2.525,2.525,0,0,0,1.193,2.335c.294.212.683.348.941.04a1.31,1.31,0,0,0,.3-.919,3.325,3.325,0,0,0-.509-1.261A1.633,1.633,0,0,0,2706.74,4032.338Z" fill="#3f3e44"/>
    <path id="Path_30517" data-name="Path 30517" d="M2688.86,4018.657q0-7.511,0-15.022c.132.066.267.126.393.2q8.435,4.9,16.868,9.8c2.076,1.208,4.145,2.43,6.217,3.646q-1.091,5.04-2.175,10.08a9.068,9.068,0,0,0-.1,1.121,1.352,1.352,0,0,1-.533-.046c-2.13-1.214-4.252-2.444-6.373-3.673q-4.846-2.811-9.693-5.622c-.421-.244-.868-.442-1.3-.661l-1.516-1.015c0,.443.013.719,0,.993-.021.368-.066.736-.1,1.1Z" fill="#d7d7d9"/>
    <path id="Path_30518" data-name="Path 30518" d="M2694.406,3987.609c.494-.295.992-.583,1.481-.887a.8.8,0,0,1,1.007.051,4.225,4.225,0,0,1,.832.958c.754,1.254,1.458,2.538,2.2,3.795a1.79,1.79,0,0,0,.609.608q13.035,7.587,26.083,15.155c.07.041.135.092.2.139-.363.243-.713.508-1.09.727q-4.536,2.637-9.083,5.257c-1.066.613-2.146,1.2-3.219,1.8a5.042,5.042,0,0,1-.54-.237q-4.2-2.439-8.4-4.885-4.073-2.365-8.15-4.724c-2.815-1.634-5.634-3.263-8.435-4.921-.478-.283-1.043-.451-1.351-1.014-.718-1.312-1.485-2.6-2.233-3.892a1.976,1.976,0,0,0-1.442-1.158c.546-.327,1.073-.693,1.646-.963.227-.107.556,0,.838.009l1.294,1.68c.644,1.143,1.271,2.3,1.941,3.423a.987.987,0,0,0,1.383.3c1.194-.691,2.391-1.375,3.582-2.072,1.159-.68,2.311-1.372,3.467-2.058l2.045-1.067a5.585,5.585,0,0,1-1.052-.97c-.642-1.011-1.189-2.08-1.792-3.116C2695.778,3988.767,2695.415,3987.881,2694.406,3987.609Zm-.723,13.845c.513.319,1.019.652,1.542.956q2.854,1.657,5.718,3.3a.372.372,0,0,0,.068.069q6.1,3.555,12.215,7.095a.722.722,0,0,0,.606-.032c2.191-1.245,4.37-2.511,6.55-3.776a3.921,3.921,0,0,0,.385-.289l2.316-1.206c-.165-.118-.239-.179-.32-.226-1.1-.636-2.195-1.267-3.289-1.906q-3.71-2.164-7.416-4.334-4.521-2.636-9.049-5.259c-.68-.393-1.378-.756-2.067-1.133-.1.05-.21.095-.309.152q-3.243,1.871-6.484,3.743c-.893.517-1.78,1.041-2.779,1.625Z" fill="#e7e7e7"/>
    <path id="Path_30519" data-name="Path 30519" d="M2710.064,4028.485a9.067,9.067,0,0,1,.1-1.122q1.076-5.043,2.175-10.08l1.093.539c.119-.053.245-.095.357-.159,1.667-.962,3.329-1.93,5-2.89q2.625-1.514,5.258-3.015c-.281,1.363-.553,2.728-.844,4.089-.376,1.762-.781,3.517-1.14,5.283a.951.951,0,0,1-.522.71q-1.032.578-2.048,1.186a2.553,2.553,0,0,0-.4.378l-1.5.793-1.566.9-1.52.891-1.762.993Z" fill="#acaab0"/>
    <path id="Path_30520" data-name="Path 30520" d="M2713.429,4017.822l-1.093-.539c-2.072-1.216-4.141-2.438-6.217-3.646q-8.431-4.906-16.868-9.8c-.126-.073-.261-.133-.393-.2-.918-.542-1.841-1.076-2.751-1.632a1.419,1.419,0,0,1-.48-.469c-.994-1.7-1.984-3.407-2.942-5.129a3.636,3.636,0,0,1-.354-1.158.71.71,0,0,1,.553-.863,1.976,1.976,0,0,1,1.442,1.158c.748,1.295,1.515,2.58,2.233,3.892.308.563.873.731,1.351,1.014,2.8,1.658,5.62,3.287,8.435,4.921q4.073,2.366,8.15,4.724,4.2,2.44,8.4,4.885a5.042,5.042,0,0,0,.54.237Q2713.43,4016.518,2713.429,4017.822Z" fill="#5584bc"/>
    <path id="Path_30521" data-name="Path 30521" d="M2713.429,4017.822q0-1.3,0-2.607c1.073-.6,2.153-1.19,3.219-1.8q4.548-2.619,9.083-5.257c.377-.219.727-.484,1.09-.727.023.848.056,1.7.054,2.545,0,.094-.185.205-.3.276-.842.508-1.69,1.007-2.535,1.509q-2.629,1.506-5.258,3.015c-1.668.96-3.33,1.928-5,2.89C2713.674,4017.727,2713.548,4017.769,2713.429,4017.822Z" fill="#5584bc"/>
    <path id="Path_30522" data-name="Path 30522" d="M2705,4030.843l-.584,1.589c-.611-.307-1.238-.585-1.829-.927q-4.437-2.565-8.857-5.16c-.636-.371-1.262-.761-1.892-1.143a2.2,2.2,0,0,0,.61-1.584,1.208,1.208,0,0,1,.232.079q3.193,1.859,6.386,3.721Q2702.026,4029.137,2705,4030.843Z" fill="#d7d7d9"/>
    <path id="Path_30523" data-name="Path 30523" d="M2686.662,3995.11l-1.294-1.68c.845-.472,1.694-.935,2.533-1.418,1.866-1.074,3.726-2.159,5.588-3.24.113-.066.221-.14.331-.211.422-.2.823-.666,1.313-.155a2.345,2.345,0,0,1,.462.684c.233.546.123.788-.375,1.1a4.429,4.429,0,0,0-.527.45,1.49,1.49,0,0,0-.42.1c-1.44.829-2.87,1.674-4.309,2.5C2688.869,3993.875,2687.763,3994.489,2686.662,3995.11Z" fill="#dfdfe1"/>
    <path id="Path_30524" data-name="Path 30524" d="M2690.548,4025.9a1.718,1.718,0,0,1-1.735.357,5.5,5.5,0,0,1-3.143-5.355,1.882,1.882,0,0,1,1.306-1.455,9.6,9.6,0,0,1,1.095.384C2689.886,4020.709,2691.588,4023.686,2690.548,4025.9Zm-1.089-2.258a2.445,2.445,0,0,0-1.565-2.241.594.594,0,0,0-.806.484,2.527,2.527,0,0,0,1.14,2.458C2688.983,4024.758,2689.457,4024.489,2689.459,4023.64Z" fill="#3f3e44"/>
    <path id="Path_30525" data-name="Path 30525" d="M2717.586,4030.253q-1.665.945-3.329,1.888-1.5.844-3,1.684l-.519-1.565a2.532,2.532,0,0,1,.336-.279c1.988-1.15,3.984-2.286,5.967-3.444.789-.46,1.55-.968,2.323-1.454.033.4.044.792.1,1.182a1.058,1.058,0,0,1-.719,1.291A8.792,8.792,0,0,0,2717.586,4030.253Z" fill="#c5c4ca"/>
    <path id="Path_30526" data-name="Path 30526" d="M2710.743,4032.26l.519,1.565a8.906,8.906,0,0,1-.05,1.361c-.177.947-1.006,1.242-1.745,1.609.065-.235.148-.467.191-.706a5,5,0,0,0-1.316-4.126,6.248,6.248,0,0,0-.881-.866,2.642,2.642,0,0,0-1.893-.57l.831-.557a2.006,2.006,0,0,1,2.354.073c.388.271.732.6,1.1.911Z" fill="#58575d"/>
    <path id="Path_30527" data-name="Path 30527" d="M2690.548,4025.9c1.04-2.212-.662-5.189-2.477-6.069a9.6,9.6,0,0,0-1.095-.384,3.057,3.057,0,0,1,1.884-.788l1.683.906,1.509,2.076.393,1.979a2.2,2.2,0,0,1-.61,1.584Z" fill="#58575c"/>
    <path id="Path_30528" data-name="Path 30528" d="M2717.581,4024.2l1.5-.793a5.272,5.272,0,0,1,3.042,3.8,4.225,4.225,0,0,1,.1,1.315,1.617,1.617,0,0,1-.867,1.446c-.3.16-.6.322-.9.484a7.6,7.6,0,0,0,.194-.906,5.112,5.112,0,0,0-1.617-4.212A14.157,14.157,0,0,0,2717.581,4024.2Z" fill="#58575d"/>
    <path id="Path_30529" data-name="Path 30529" d="M2717.581,4024.2a14.157,14.157,0,0,1,1.454,1.135,5.112,5.112,0,0,1,1.617,4.212,7.6,7.6,0,0,1-.194.906,2.051,2.051,0,0,1-2.872-.2,8.792,8.792,0,0,1,1.167-.7,1.058,1.058,0,0,0,.719-1.291c-.059-.39-.07-.787-.1-1.182l-3.354-1.989Z" fill="#3f3e44"/>
    <path id="Path_30530" data-name="Path 30530" d="M2694.693,3990.643a4.429,4.429,0,0,1,.527-.45c.5-.315.608-.557.375-1.1a2.345,2.345,0,0,0-.462-.684c-.49-.511-.891-.044-1.313.155a.787.787,0,0,1,.586-.952c1.009.272,1.372,1.158,1.83,1.945.6,1.036,1.15,2.1,1.792,3.116a5.585,5.585,0,0,0,1.052.97l-2.045,1.067Z" fill="#5584bc"/>
    <path id="Path_30531" data-name="Path 30531" d="M2692.445,4023.618l-.393-1.979h.113q2.494,1.445,4.988,2.888c2.117,1.228,4.235,2.452,6.345,3.689.975.572,1.934,1.169,2.9,1.755l-.831.557-.571.316q-2.967-1.712-5.934-3.425-3.2-1.856-6.386-3.721A1.208,1.208,0,0,0,2692.445,4023.618Z" fill="#dfdfe1"/>
    <path id="Path_30532" data-name="Path 30532" d="M2706.74,4032.338a1.633,1.633,0,0,1,1.083.824,3.325,3.325,0,0,1,.509,1.261,1.31,1.31,0,0,1-.3.919c-.258.308-.647.172-.941-.04a2.525,2.525,0,0,1-1.193-2.335C2705.936,4032.521,2706.177,4032.313,2706.74,4032.338Z" fill="#56555b"/>
    <path id="Path_30533" data-name="Path 30533" d="M2692.162,4018.482l0,3.156h-.113l-1.509-2.076c.034-.367.079-.735.1-1.1.016-.274,0-.55,0-.993Z" fill="#abaab0"/>
    <path id="Path_30534" data-name="Path 30534" d="M2720.767,4008.776a3.921,3.921,0,0,1-.385.289c-2.18,1.265-4.359,2.531-6.55,3.776a.722.722,0,0,1-.606.032q-6.119-3.53-12.215-7.095a.372.372,0,0,1-.068-.069q0-4.2,0-8.408c.132.06.27.11.4.182q2.092,1.215,4.184,2.434Z" fill="#c5c4ca"/>
    <path id="Path_30535" data-name="Path 30535" d="M2720.767,4008.776l-15.244-8.859q-2.093-1.217-4.184-2.434c-.125-.072-.263-.122-.4-.182l.007-.04-.009-2.549c.689.377,1.387.74,2.067,1.133q4.53,2.622,9.049,5.259,3.711,2.161,7.416,4.334c1.094.639,2.193,1.27,3.289,1.906.081.047.155.108.32.226Z" fill="#5584bc"/>
    <path id="Path_30536" data-name="Path 30536" d="M2700.944,3997.3q0,4.2,0,8.408-2.859-1.648-5.718-3.3c-.523-.3-1.029-.637-1.542-.956l7.268-4.193Z" fill="#abaab0"/>
    <path id="Path_30537" data-name="Path 30537" d="M2700.951,3997.261l-7.268,4.193-2.313-1.222c1-.584,1.886-1.108,2.779-1.625q3.24-1.875,6.484-3.743c.1-.057.206-.1.309-.152Q2700.947,3995.987,2700.951,3997.261Z" fill="#5584bc"/>
    <path id="Path_30538" data-name="Path 30538" d="M2709.849,4030.954q2.28-1.314,4.559-2.633c.086-.05.137-.162.205-.245.478-.224.959-.441,1.433-.672.326-.158.329-.317,0-.5-.524-.294-1.035-.611-1.552-.918l1.52-.891,3.354,1.989c-.773.486-1.534.994-2.323,1.454-1.983,1.158-3.979,2.294-5.967,3.444a2.532,2.532,0,0,0-.336.279Z" fill="#dfdee1"/>
    <path id="Path_30539" data-name="Path 30539" d="M2714.5,4025.985c.517.307,1.028.624,1.552.918.328.184.325.343,0,.5-.474.231-.955.448-1.433.672l-1.88-1.1Z" fill="#d7d7d9"/>
    <path id="Path_30540" data-name="Path 30540" d="M2689.459,4023.64c0,.849-.476,1.118-1.231.7a2.527,2.527,0,0,1-1.14-2.458.594.594,0,0,1,.806-.484A2.445,2.445,0,0,1,2689.459,4023.64Z" fill="#56555b"/>
  </g>
</svg>
