<svg xmlns="http://www.w3.org/2000/svg" xmlns:xlink="http://www.w3.org/1999/xlink" width="27.42" height="21.389" viewBox="0 0 27.42 21.389">
  <defs>
    <clipPath id="clip-path">
      <rect id="Rectangle_15" data-name="Rectangle 15" width="21.973" height="20.08" fill="#3d6398"/>
    </clipPath>
  </defs>
  <g id="Group_70661" data-name="Group 70661" transform="translate(-250.458 -735.986)">
    <g id="Group_18967" data-name="Group 18967" transform="translate(250.458 735.986)">
      <g id="Group_27" data-name="Group 27" transform="translate(0 1.309)">
        <g id="Group_26" data-name="Group 26" clip-path="url(#clip-path)">
          <path id="Path_31" data-name="Path 31" d="M21.385,6.791c-.144.692-.277,1.329-.411,1.966q-.442,2.1-.884,4.2c-.119.568-.324.738-.912.738q-6.661,0-13.322,0a1.4,1.4,0,0,0-.38.035.673.673,0,0,0-.471.667.682.682,0,0,0,.535.639,1.674,1.674,0,0,0,.34.026l13.322,0a1.468,1.468,0,0,1,.381.032.679.679,0,0,1-.046,1.308,1.385,1.385,0,0,1-.3.027q-6.714,0-13.429,0a2.054,2.054,0,1,1-.088-4.1c.136,0,.276,0,.425,0a.044.044,0,0,0,.044-.046,1.232,1.232,0,0,0-.016-.161Q5.153,7.255,4.127,2.386a1.154,1.154,0,0,0-1.236-1c-.663,0-1.326-.021-1.988,0A.87.87,0,0,1,.019.934L0,.5A.787.787,0,0,1,.84,0C1.523.022,2.208.01,2.892.013A2.517,2.517,0,0,1,5.467,2.121c.094.453.2.9.285,1.359.027.15.092.176.226.175.8-.005,1.6,0,2.395,0H21.555a.418.418,0,0,1,.408.508Z" transform="translate(0 0)" fill="#3d6398"/>
          <path id="Path_32" data-name="Path 32" d="M144.879,306.248a1.368,1.368,0,1,1,1.376-1.366,1.371,1.371,0,0,1-1.376,1.366" transform="translate(-135.317 -286.167)" fill="#3d6398"/>
          <path id="Path_33" data-name="Path 33" d="M271.352,304.888a1.367,1.367,0,1,1,2.734-.008,1.376,1.376,0,0,1-1.356,1.367,1.362,1.362,0,0,1-1.378-1.359" transform="translate(-255.846 -286.168)" fill="#3d6398"/>
        </g>
      </g>
      <g id="Ellipse_1" data-name="Ellipse 1" transform="translate(15.574 0)" fill="#b7b7b7" stroke="#fff" stroke-width="1">
        <ellipse cx="5.923" cy="5.635" rx="5.923" ry="5.635" stroke="none"/>
        <ellipse cx="5.923" cy="5.635" rx="5.423" ry="5.135" fill="none"/>
      </g>
    </g>
    <text id="_0" data-name="0" transform="translate(272.426 743.68)" fill="#fff" font-size="6" font-family="Heebo" font-weight="700" letter-spacing="0.05em"><tspan x="-1" y="0">0</tspan></text>
  </g>
</svg>
