<svg xmlns="http://www.w3.org/2000/svg" width="18.929" height="18.929" viewBox="0 0 18.929 18.929">
  <g id="Group_72250" data-name="Group 72250" transform="translate(1073.033 -124.2)">
    <path id="Path_72059" data-name="Path 72059" d="M-1068.045,167.8h10.424a2.079,2.079,0,0,0,1.542-.586,2.7,2.7,0,0,0,.641-1.959l.02-.01s-.01,0-.011,0a.051.051,0,0,0-.007.015c-.174.1-.343.211-.521.3a4.959,4.959,0,0,1-5.364-.244,4.89,4.89,0,0,1-2.224-3.817c-.023-.26,0-.524,0-.8h-5.925c-.128-.633-.259-1.265-.384-1.9-.076-.383-.178-.47-.573-.471h-2.07a1.427,1.427,0,0,0-.2.01.386.386,0,0,0-.33.347.379.379,0,0,0,.264.4.92.92,0,0,0,.255.03c.634,0,1.268,0,1.9,0,.015.057.03.1.04.151q.93,4.658,1.858,9.316a2.789,2.789,0,0,0,2.864,2.364h8.816a1.109,1.109,0,0,0,.274-.026.381.381,0,0,0,.282-.385.389.389,0,0,0-.334-.364,1.788,1.788,0,0,0-.24-.01h-8.779a2.006,2.006,0,0,1-1.8-.925A3.634,3.634,0,0,1-1068.045,167.8Zm1.7,7.883a1.983,1.983,0,0,0,1.99-1.96,1.993,1.993,0,0,0-1.968-1.985,1.986,1.986,0,0,0-1.978,1.954A1.979,1.979,0,0,0-1066.347,175.682Zm9.876-1.961a1.984,1.984,0,0,0-1.966-1.984,1.993,1.993,0,0,0-1.98,1.973,1.985,1.985,0,0,0,1.959,1.972A1.979,1.979,0,0,0-1056.471,173.722Z" transform="translate(0 -32.553)" fill="#fefefd"/>
    <path id="Path_72060" data-name="Path 72060" d="M-842.938,129.043a1.439,1.439,0,0,0-.064.2,4.309,4.309,0,0,1-3.64,3.577,4.332,4.332,0,0,1-4.895-3.466,4.352,4.352,0,0,1,3.406-5.072c.129-.026.257-.055.386-.083h.924c.141.03.282.055.422.089a4.291,4.291,0,0,1,3.323,3.193c.055.2.092.4.137.6Zm-4.733-.9h-.17c-.345,0-.689,0-1.034.007a.362.362,0,0,0-.362.348.37.37,0,0,0,.31.414,1.3,1.3,0,0,0,.257.016c.33,0,.66,0,1,0,0,.221,0,.417,0,.613s-.008.382,0,.572a.385.385,0,0,0,.391.385.381.381,0,0,0,.387-.387c.007-.129,0-.258,0-.388q0-.393,0-.786c.051,0,.076-.009.1-.009.357,0,.714.005,1.071,0a.394.394,0,0,0,.408-.392.4.4,0,0,0-.409-.388c-.172-.007-.345,0-.517,0h-.653v-.23c0-.308,0-.615,0-.923a.391.391,0,0,0-.232-.387.392.392,0,0,0-.551.39C-847.676,127.372-847.671,127.747-847.671,128.147Z" transform="translate(-211.167 0)" fill="#c1d6ef"/>
    <path id="Path_72061" data-name="Path 72061" d="M-982.071,214.046a2.7,2.7,0,0,1-.641,1.959,2.079,2.079,0,0,1-1.542.586h-10.424c-.012-.041-.028-.081-.036-.123q-.194-.966-.387-1.933-.5-2.521-1-5.042h5.925c0,.275-.02.539,0,.8a4.89,4.89,0,0,0,2.224,3.817,4.959,4.959,0,0,0,5.364.244c.178-.093.347-.2.521-.3Z" transform="translate(-73.367 -81.345)" fill="#3d6398"/>
    <path id="Path_72062" data-name="Path 72062" d="M-1069.472,160.7q.5,2.521,1,5.042.193.967.387,1.933c.008.042.024.082.036.123a3.634,3.634,0,0,0,.416,1.441,2.006,2.006,0,0,0,1.8.925h8.779a1.788,1.788,0,0,1,.24.01.389.389,0,0,1,.334.364.381.381,0,0,1-.282.385,1.109,1.109,0,0,1-.274.026h-8.816a2.789,2.789,0,0,1-2.864-2.364q-.92-4.66-1.858-9.316c-.01-.047-.024-.093-.04-.151-.637,0-1.271,0-1.9,0a.92.92,0,0,1-.255-.03.379.379,0,0,1-.264-.4.386.386,0,0,1,.33-.347,1.427,1.427,0,0,1,.2-.01h2.07c.4,0,.5.088.573.471C-1069.73,159.438-1069.6,160.07-1069.472,160.7Z" transform="translate(0 -32.553)" fill="#465b64"/>
    <path id="Path_72063" data-name="Path 72063" d="M-968.909,451.77a1.979,1.979,0,0,1-1.956-1.991,1.986,1.986,0,0,1,1.977-1.954,1.993,1.993,0,0,1,1.968,1.985A1.983,1.983,0,0,1-968.909,451.77Z" transform="translate(-97.438 -308.642)" fill="#465a64"/>
    <path id="Path_72064" data-name="Path 72064" d="M-796.6,449.812a1.979,1.979,0,0,1-1.986,1.961,1.985,1.985,0,0,1-1.959-1.972,1.992,1.992,0,0,1,1.98-1.973A1.984,1.984,0,0,1-796.6,449.812Z" transform="translate(-259.875 -308.644)" fill="#465a64"/>
    <path id="Path_72065" data-name="Path 72065" d="M-692.989,307.573a.064.064,0,0,1,.007-.015s.007,0,.011,0l-.02.01Z" transform="translate(-362.446 -174.869)" fill="#fec008"/>
  </g>
</svg>
