<svg id="Group_70060" data-name="Group 70060" xmlns="http://www.w3.org/2000/svg" xmlns:xlink="http://www.w3.org/1999/xlink" width="239.803" height="85.114" viewBox="0 0 239.803 85.114">
  <defs>
    <clipPath id="clip-path">
      <rect id="Rectangle_6322" data-name="Rectangle 6322" width="239.803" height="85.114" fill="none"/>
    </clipPath>
  </defs>
  <path id="Path_30025" data-name="Path 30025" d="M23.255,0V13.221H8.262V0H0V34.7H8.262V20.75H23.255V34.7h8.26V0Z" transform="translate(0 0)" fill="#092853"/>
  <path id="Path_30026" data-name="Path 30026" d="M66.655,0,58.011,13.742,49.376,0H39.626L53.889,22.684V34.7h8.255V22.684L76.41,0Z" transform="translate(-4.856 0)" fill="#092853"/>
  <g id="Group_70054" data-name="Group 70054" transform="translate(0 0)">
    <g id="Group_70053" data-name="Group 70053" clip-path="url(#clip-path)">
      <path id="Path_30027" data-name="Path 30027" d="M108.584,0V25.44a1.715,1.715,0,0,1-1.758,1.747H93.583V0h-8.26V34.7h24.41a7.071,7.071,0,0,0,5.2-1.91,7.062,7.062,0,0,0,1.9-5.18V0h-8.247Z" transform="translate(-10.456 0)" fill="#092853"/>
      <path id="Path_30028" data-name="Path 30028" d="M154.379,0H129.962V34.7h8.258V7.515h13.252a1.717,1.717,0,0,1,1.751,1.737V34.7h8.249V7.1a7.062,7.062,0,0,0-1.9-5.181A7.048,7.048,0,0,0,154.379,0" transform="translate(-15.926 0)" fill="#092853"/>
      <path id="Path_30029" data-name="Path 30029" d="M199.015,0H174.6V34.7h24.414a7.036,7.036,0,0,0,5.177-1.91,7.033,7.033,0,0,0,1.913-5.18V7.1a7.034,7.034,0,0,0-1.913-5.187A7.037,7.037,0,0,0,199.015,0m-1.163,9.31V25.393a1.749,1.749,0,0,1-1.765,1.794h-13.24V7.515h13.188a1.73,1.73,0,0,1,1.816,1.8" transform="translate(-21.396 0)" fill="#092853"/>
      <path id="Path_30030" data-name="Path 30030" d="M225.914,0a7.005,7.005,0,0,0-5.181,1.915A7.012,7.012,0,0,0,218.824,7.1V34.705h8.241V23.969h15V34.705h8.25V0ZM242.07,7.515v8.94h-15V9.279a1.754,1.754,0,0,1,1.761-1.765Z" transform="translate(-26.815 0)" fill="#092853"/>
      <rect id="Rectangle_6311" data-name="Rectangle 6311" width="8.258" height="34.704" transform="translate(231.544 0.001)" fill="#092853"/>
      <path id="Path_30031" data-name="Path 30031" d="M203.981,59.774V81.12a2.152,2.152,0,0,1-1.949,2.292h-2.814V62.042a2.243,2.243,0,0,1,1.994-2.268Z" transform="translate(-24.413 -7.324)" fill="#1a1818"/>
      <path id="Path_30032" data-name="Path 30032" d="M190.408,59.774c-1,0-1.992.536-1.992,2.66V78.34h-1.551V68.811H164.938a3.124,3.124,0,0,0-3.276,3.031v8.8c0,2.546,2.279,2.77,3.942,2.77H182a10.243,10.243,0,0,1-2,3.826,33.774,33.774,0,0,1-4.322,3.985h5.981c.785,0,2.631-1.8,3.89-3.731a9.946,9.946,0,0,0,1.285-4.079h4.241a2.611,2.611,0,0,0,2.1-2.6V59.774ZM182.075,78.34H166.654V74.13h15.421Z" transform="translate(-19.81 -7.324)" fill="#1a1818"/>
      <path id="Path_30033" data-name="Path 30033" d="M126.756,70.073v3.109a2.328,2.328,0,0,0,2.273,2.209h18.814V79.6h-22.86V70.073H100.03v3.109a2.326,2.326,0,0,0,2.268,2.209h17.286V79.6H99.762v2.822a2.366,2.366,0,0,0,2.273,2.25h48.993a2.226,2.226,0,0,0,2.209-2.238V70.073Z" transform="translate(-12.225 -8.586)" fill="#1a1818"/>
      <path id="Path_30034" data-name="Path 30034" d="M70.8,70.073a2.187,2.187,0,0,0-2.158,2.2v10.2a2.185,2.185,0,0,0,2.158,2.2H91.813a2.169,2.169,0,0,0,2.141-2.2v-12.4ZM88.983,79.6H73.719v-4.21H88.983Z" transform="translate(-8.412 -8.586)" fill="#1a1818"/>
      <path id="Path_30035" data-name="Path 30035" d="M81.129,62.491a2.758,2.758,0,1,1-2.759-2.756,2.759,2.759,0,0,1,2.759,2.756" transform="translate(-9.266 -7.32)" fill="#1a1818"/>
      <path id="Path_30036" data-name="Path 30036" d="M89.686,62.491a2.76,2.76,0,1,1-2.761-2.756,2.761,2.761,0,0,1,2.761,2.756" transform="translate(-10.314 -7.32)" fill="#1a1818"/>
      <path id="Path_30037" data-name="Path 30037" d="M70.007,92.517a1.288,1.288,0,0,0-1.322,1.35,1.3,1.3,0,0,0,1.322,1.367,1.278,1.278,0,0,0,1.312-1.344,1.3,1.3,0,0,0-1.312-1.373m.017,2.156a.741.741,0,0,1-.695-.812c0-.449.245-.79.656-.79a.731.731,0,0,1,.695.819.694.694,0,0,1-.656.783" transform="translate(-8.417 -11.337)" fill="#1a1818"/>
      <rect id="Rectangle_6312" data-name="Rectangle 6312" width="0.612" height="0.616" transform="translate(61.802 80.051)" fill="#1a1818"/>
      <rect id="Rectangle_6313" data-name="Rectangle 6313" width="0.612" height="0.616" transform="translate(60.746 80.051)" fill="#1a1818"/>
      <path id="Path_30038" data-name="Path 30038" d="M72.881,94.861a.687.687,0,0,1-.773.79v.534c.956,0,1.4-.418,1.4-1.418V92.738h-.622Z" transform="translate(-8.836 -11.364)" fill="#1a1818"/>
      <rect id="Rectangle_6314" data-name="Rectangle 6314" width="0.612" height="0.622" transform="translate(80.482 84.492)" fill="#1a1818"/>
      <rect id="Rectangle_6315" data-name="Rectangle 6315" width="0.612" height="0.617" transform="translate(84.09 80.24)" fill="#1a1818"/>
      <rect id="Rectangle_6316" data-name="Rectangle 6316" width="0.612" height="0.617" transform="translate(83.035 80.24)" fill="#1a1818"/>
      <path id="Path_30039" data-name="Path 30039" d="M97.922,93.9a1.208,1.208,0,0,1-.045.4.4.4,0,0,1-.395.183H96.073a1.068,1.068,0,0,0,.133-.645V91.527H95.59v2.341a.992.992,0,0,1-.066.423.382.382,0,0,1-.373.189H93.679a1.068,1.068,0,0,0,.133-.645V92.589H93.2v1.279a.973.973,0,0,1-.068.423.379.379,0,0,1-.372.189h-1a1.778,1.778,0,0,0-1.845-1.891,1.828,1.828,0,0,0-.734.157,2.069,2.069,0,0,0-.594.394c.139.211.239.372.3.49a1.341,1.341,0,0,1,.5-.35,1.2,1.2,0,0,1,.466-.107,1.165,1.165,0,0,1,.957.424,1.374,1.374,0,0,1,.288.884H75.621a.862.862,0,0,1-.477-.095.63.63,0,0,1-.178-.533V91.527h-.617V94.1a1.078,1.078,0,0,0,.223.723.84.84,0,0,0,.689.289H97.61c.623,0,.934-.334.934-1.006v-2.58h-.623Z" transform="translate(-9.111 -11.215)" fill="#1a1818"/>
      <rect id="Rectangle_6317" data-name="Rectangle 6317" width="0.611" height="0.616" transform="translate(91.599 80.051)" fill="#1a1818"/>
      <rect id="Rectangle_6318" data-name="Rectangle 6318" width="0.612" height="0.616" transform="translate(92.654 80.051)" fill="#1a1818"/>
      <path id="Path_30040" data-name="Path 30040" d="M105.169,92.517a1.289,1.289,0,0,0-1.324,1.35,1.3,1.3,0,0,0,1.324,1.367,1.278,1.278,0,0,0,1.311-1.344,1.3,1.3,0,0,0-1.311-1.373m.016,2.156a.741.741,0,0,1-.695-.812c0-.449.245-.79.656-.79a.731.731,0,0,1,.695.819.694.694,0,0,1-.656.783" transform="translate(-12.725 -11.337)" fill="#1a1818"/>
      <path id="Path_30041" data-name="Path 30041" d="M125.923,93.043a1.845,1.845,0,0,0-1.067-.305,1.824,1.824,0,0,0-.734.156,2.045,2.045,0,0,0-.594.394c.139.211.239.372.3.49a1.341,1.341,0,0,1,.5-.35,1.2,1.2,0,0,1,.467-.107,1.164,1.164,0,0,1,.956.424,1.374,1.374,0,0,1,.288.884h-16a1.685,1.685,0,0,0-1.121-1.8,1.346,1.346,0,0,0-.333-.077c-.079-.006-.273-.011-.578-.011V93.3a2.531,2.531,0,0,1,.561.05c.562.123.845.544.845,1.273H107.4v.634h19.316v-.39a2.024,2.024,0,0,0-.79-1.829" transform="translate(-13.161 -11.364)" fill="#1a1818"/>
      <path id="Path_30042" data-name="Path 30042" d="M133.973,93.9a1.227,1.227,0,0,1-.045.4.394.394,0,0,1-.395.183H132.4v-.645a1.16,1.16,0,0,0-1.157-1.25A1.2,1.2,0,0,0,130,93.818a1.246,1.246,0,0,0,1.217,1.3h.594a.57.57,0,0,1-.617.428v.49q1.085,0,1.213-.918h1.252c.623,0,.934-.334.934-1.006v-2.58h-.622Zm-2.192.584h-.551a.648.648,0,0,1-.594-.695.579.579,0,0,1,.6-.628.549.549,0,0,1,.546.562Z" transform="translate(-15.931 -11.215)" fill="#1a1818"/>
      <rect id="Rectangle_6319" data-name="Rectangle 6319" width="0.617" height="3.591" transform="translate(119.235 80.307)" fill="#1a1818"/>
      <rect id="Rectangle_6320" data-name="Rectangle 6320" width="0.611" height="0.622" transform="translate(122.351 79.762)" fill="#1a1818"/>
      <rect id="Rectangle_6321" data-name="Rectangle 6321" width="0.612" height="0.622" transform="translate(123.401 79.762)" fill="#1a1818"/>
      <path id="Path_30043" data-name="Path 30043" d="M163.5,93.941c0,.405-.154.612-.471.612h-.606a1.138,1.138,0,0,0,.128-.679V92.663h-.628v1.273c0,.411-.156.617-.473.617h-.578v-.033a1.348,1.348,0,0,0,.1-.646V92.663h-.628V93.9c0,.44-.154.656-.471.656h-1.24a1.6,1.6,0,0,0,.139-.69v-1.2h-.628v1.278c0,.405-.156.612-.473.612h-.605a1.14,1.14,0,0,0,.127-.679V92.663h-.627v1.273c0,.411-.155.617-.473.617h-.577v-.033a1.37,1.37,0,0,0,.1-.646V92.663h-.628V93.9c0,.44-.156.656-.473.656H141.659c-.417,0-.623-.234-.623-.667V92.123h-1.373c-.712,0-1.15.518-1.15,1.351a1.161,1.161,0,0,0,1.15,1.307.855.855,0,0,0,.712-.417,1.039,1.039,0,0,0,1.006.822h21.674c.633,0,1.078-.523,1.078-1.323v-1.2H163.5Zm-23.113-.528c0,.473-.245.85-.651.85-.372,0-.612-.367-.612-.795,0-.516.267-.861.7-.861h.562Z" transform="translate(-16.974 -11.289)" fill="#1a1818"/>
      <path id="Path_30044" data-name="Path 30044" d="M170.156,91.875h-.534a.186.186,0,0,1-.1-.194c0-.139.055-.212.161-.212.073,0,.123.049.156.144l.312-.144a.484.484,0,0,0-.468-.328.528.528,0,0,0-.521.55.765.765,0,0,0,.027.183h-.267v.35h1.234Z" transform="translate(-20.7 -11.168)" fill="#1a1818"/>
      <path id="Path_30045" data-name="Path 30045" d="M173.356,93.171a1.258,1.258,0,0,0-1.245,1.429l.005.028h-1.376v-.645a1.16,1.16,0,0,0-1.156-1.25,1.2,1.2,0,0,0-1.245,1.234,1.246,1.246,0,0,0,1.217,1.3h.595a.571.571,0,0,1-.617.428v.49c.722,0,1.128-.306,1.212-.918h1.6a1.182,1.182,0,0,0,1.006.495,1.216,1.216,0,0,0,1.244-1.285,1.236,1.236,0,0,0-1.244-1.3m-3.238,1.457h-.551a.647.647,0,0,1-.594-.695.579.579,0,0,1,.6-.628.551.551,0,0,1,.546.562Zm3.254.55a.668.668,0,0,1-.634-.733.637.637,0,0,1,.6-.712.664.664,0,0,1,.622.738.625.625,0,0,1-.59.706" transform="translate(-20.629 -11.363)" fill="#1a1818"/>
    </g>
  </g>
</svg>
