<svg xmlns="http://www.w3.org/2000/svg" xmlns:xlink="http://www.w3.org/1999/xlink" width="161" height="57.145" viewBox="0 0 161 57.145">
  <defs>
    <clipPath id="clip-path">
      <rect id="Rectangle_6322" data-name="Rectangle 6322" width="161" height="57.145" fill="none"/>
    </clipPath>
  </defs>
  <g id="Group_70060" data-name="Group 70060" transform="translate(0 0)">
    <path id="Path_30025" data-name="Path 30025" d="M15.613,0V8.876H5.547V0H0V23.3H5.547V13.932H15.613V23.3h5.546V0Z" transform="translate(0 0)" fill="#092853"/>
    <path id="Path_30026" data-name="Path 30026" d="M57.773,0l-5.8,9.226L46.172,0H39.626L49.2,15.23V23.3h5.542V15.23L64.322,0Z" transform="translate(-16.282 0)" fill="#092853"/>
    <g id="Group_70054" data-name="Group 70054" transform="translate(0 0)">
      <g id="Group_70053" data-name="Group 70053" clip-path="url(#clip-path)">
        <path id="Path_30027" data-name="Path 30027" d="M100.94,0V17.08a1.152,1.152,0,0,1-1.18,1.173H90.869V0H85.323V23.3h16.389a4.747,4.747,0,0,0,3.488-1.282,4.741,4.741,0,0,0,1.277-3.478V0H100.94Z" transform="translate(-35.058 0)" fill="#092853"/>
        <path id="Path_30028" data-name="Path 30028" d="M146.355,0H129.962V23.3h5.544V5.045h8.9a1.153,1.153,0,0,1,1.175,1.166V23.3h5.538V4.764a4.741,4.741,0,0,0-1.277-3.479A4.732,4.732,0,0,0,146.355,0" transform="translate(-53.4 0)" fill="#092853"/>
        <path id="Path_30029" data-name="Path 30029" d="M190.992,0H174.6V23.3h16.392a4.724,4.724,0,0,0,3.476-1.282,4.722,4.722,0,0,0,1.284-3.478V4.764a4.723,4.723,0,0,0-1.284-3.482A4.725,4.725,0,0,0,190.992,0m-.781,6.25v10.8a1.174,1.174,0,0,1-1.185,1.2h-8.889V5.045h8.854a1.161,1.161,0,0,1,1.219,1.205" transform="translate(-71.741 0)" fill="#092853"/>
        <path id="Path_30030" data-name="Path 30030" d="M223.584,0a4.7,4.7,0,0,0-3.478,1.285,4.707,4.707,0,0,0-1.282,3.479V23.3h5.533V16.092h10.074V23.3h5.539V0Zm10.847,5.045v6H224.357V6.23a1.178,1.178,0,0,1,1.182-1.185Z" transform="translate(-89.912 0)" fill="#092853"/>
        <rect id="Rectangle_6311" data-name="Rectangle 6311" width="5.544" height="23.3" transform="translate(155.456 0.001)" fill="#092853"/>
        <path id="Path_30031" data-name="Path 30031" d="M202.416,59.774V74.105a1.445,1.445,0,0,1-1.308,1.539h-1.889V61.3a1.506,1.506,0,0,1,1.338-1.523Z" transform="translate(-81.856 -24.56)" fill="#1a1818"/>
        <path id="Path_30032" data-name="Path 30032" d="M180.961,59.774c-.669,0-1.337.36-1.337,1.786V72.239h-1.042v-6.4H163.862a2.1,2.1,0,0,0-2.2,2.035v5.908c0,1.71,1.53,1.86,2.646,1.86h11.005a6.877,6.877,0,0,1-1.34,2.569,22.677,22.677,0,0,1-2.9,2.675h4.015c.527,0,1.766-1.211,2.612-2.5a6.678,6.678,0,0,0,.862-2.739h2.847a1.753,1.753,0,0,0,1.412-1.745V59.774Zm-5.594,12.465H165.013V69.412h10.354Z" transform="translate(-66.425 -24.56)" fill="#1a1818"/>
        <path id="Path_30033" data-name="Path 30033" d="M117.885,70.073V72.16a1.563,1.563,0,0,0,1.526,1.483h12.631v2.827H116.694v-6.4H99.942V72.16a1.562,1.562,0,0,0,1.523,1.483H113.07v2.827H99.762v1.895a1.589,1.589,0,0,0,1.526,1.51h32.893a1.5,1.5,0,0,0,1.483-1.5v-8.3Z" transform="translate(-40.991 -28.792)" fill="#1a1818"/>
        <path id="Path_30034" data-name="Path 30034" d="M70.095,70.073a1.468,1.468,0,0,0-1.449,1.478V78.4a1.467,1.467,0,0,0,1.449,1.478H84.2A1.456,1.456,0,0,0,85.637,78.4V70.073Zm12.205,6.4H72.052V73.644H82.3Z" transform="translate(-28.206 -28.792)" fill="#1a1818"/>
        <path id="Path_30035" data-name="Path 30035" d="M79.316,61.585a1.852,1.852,0,1,1-1.852-1.85,1.853,1.853,0,0,1,1.852,1.85" transform="translate(-31.068 -24.544)" fill="#1a1818"/>
        <path id="Path_30036" data-name="Path 30036" d="M87.873,61.585a1.853,1.853,0,1,1-1.853-1.85,1.854,1.854,0,0,1,1.853,1.85" transform="translate(-34.583 -24.544)" fill="#1a1818"/>
        <path id="Path_30037" data-name="Path 30037" d="M69.573,92.517a.865.865,0,0,0-.888.907.874.874,0,0,0,.888.918.858.858,0,0,0,.881-.9.87.87,0,0,0-.881-.922m.011,1.447a.5.5,0,0,1-.467-.545c0-.3.164-.53.441-.53a.491.491,0,0,1,.467.55.466.466,0,0,1-.441.526" transform="translate(-28.222 -38.014)" fill="#1a1818"/>
        <rect id="Rectangle_6312" data-name="Rectangle 6312" width="0.411" height="0.414" transform="translate(41.493 53.745)" fill="#1a1818"/>
        <rect id="Rectangle_6313" data-name="Rectangle 6313" width="0.411" height="0.414" transform="translate(40.784 53.745)" fill="#1a1818"/>
        <path id="Path_30038" data-name="Path 30038" d="M72.627,94.164a.461.461,0,0,1-.519.53v.358c.642,0,.937-.28.937-.952V92.738h-.418Z" transform="translate(-29.628 -38.105)" fill="#1a1818"/>
        <rect id="Rectangle_6314" data-name="Rectangle 6314" width="0.411" height="0.418" transform="translate(54.035 56.727)" fill="#1a1818"/>
        <rect id="Rectangle_6315" data-name="Rectangle 6315" width="0.411" height="0.414" transform="translate(56.457 53.872)" fill="#1a1818"/>
        <rect id="Rectangle_6316" data-name="Rectangle 6316" width="0.411" height="0.414" transform="translate(55.748 53.872)" fill="#1a1818"/>
        <path id="Path_30039" data-name="Path 30039" d="M90.176,93.118a.811.811,0,0,1-.03.269.266.266,0,0,1-.265.123h-.946a.717.717,0,0,0,.09-.433V91.527H88.61V93.1a.666.666,0,0,1-.044.284.256.256,0,0,1-.25.127h-.988a.717.717,0,0,0,.09-.433V92.24H87V93.1a.653.653,0,0,1-.045.284.255.255,0,0,1-.25.127h-.673A1.193,1.193,0,0,0,84.8,92.24a1.228,1.228,0,0,0-.492.105,1.389,1.389,0,0,0-.4.265c.093.141.16.25.2.329a.9.9,0,0,1,.336-.235.808.808,0,0,1,.313-.072.782.782,0,0,1,.643.285.923.923,0,0,1,.193.593H75.2a.579.579,0,0,1-.32-.064.423.423,0,0,1-.12-.358V91.527h-.414v1.728a.724.724,0,0,0,.15.485.564.564,0,0,0,.462.194H89.966c.418,0,.627-.224.627-.676V91.527h-.418Z" transform="translate(-30.549 -37.607)" fill="#1a1818"/>
        <rect id="Rectangle_6317" data-name="Rectangle 6317" width="0.41" height="0.414" transform="translate(61.498 53.745)" fill="#1a1818"/>
        <rect id="Rectangle_6318" data-name="Rectangle 6318" width="0.411" height="0.414" transform="translate(62.207 53.745)" fill="#1a1818"/>
        <path id="Path_30040" data-name="Path 30040" d="M104.734,92.517a.865.865,0,0,0-.889.907.875.875,0,0,0,.889.918.858.858,0,0,0,.88-.9.87.87,0,0,0-.88-.922m.011,1.447a.5.5,0,0,1-.467-.545c0-.3.164-.53.441-.53a.491.491,0,0,1,.467.55.466.466,0,0,1-.441.526" transform="translate(-42.669 -38.014)" fill="#1a1818"/>
        <path id="Path_30041" data-name="Path 30041" d="M119.835,92.943a1.239,1.239,0,0,0-.716-.205,1.224,1.224,0,0,0-.492.1,1.373,1.373,0,0,0-.4.265c.093.141.16.25.2.329a.9.9,0,0,1,.336-.235.807.807,0,0,1,.313-.072.782.782,0,0,1,.642.285.923.923,0,0,1,.193.593H109.168a1.131,1.131,0,0,0-.753-1.209.9.9,0,0,0-.224-.052c-.053,0-.183-.008-.388-.008v.381a1.7,1.7,0,0,1,.376.034c.377.082.567.365.567.855H107.4v.425h12.969v-.262a1.359,1.359,0,0,0-.53-1.228" transform="translate(-44.128 -38.105)" fill="#1a1818"/>
        <path id="Path_30042" data-name="Path 30042" d="M132.668,93.118a.824.824,0,0,1-.03.269.265.265,0,0,1-.265.123h-.758v-.433a.779.779,0,0,0-.776-.839.8.8,0,0,0-.836.828.837.837,0,0,0,.817.87h.4a.383.383,0,0,1-.414.287v.329q.728,0,.814-.616h.841c.418,0,.627-.224.627-.676V91.527h-.418Zm-1.472.392h-.37a.435.435,0,0,1-.4-.467.389.389,0,0,1,.4-.422A.369.369,0,0,1,131.2,93Z" transform="translate(-53.416 -37.607)" fill="#1a1818"/>
        <rect id="Rectangle_6319" data-name="Rectangle 6319" width="0.414" height="2.411" transform="translate(80.053 53.917)" fill="#1a1818"/>
        <rect id="Rectangle_6320" data-name="Rectangle 6320" width="0.41" height="0.418" transform="translate(82.145 53.551)" fill="#1a1818"/>
        <rect id="Rectangle_6321" data-name="Rectangle 6321" width="0.411" height="0.418" transform="translate(82.85 53.551)" fill="#1a1818"/>
        <path id="Path_30043" data-name="Path 30043" d="M155.292,93.344c0,.272-.1.411-.316.411h-.407a.764.764,0,0,0,.086-.456v-.813h-.422v.855c0,.276-.1.414-.318.414h-.388v-.022a.9.9,0,0,0,.067-.434v-.813h-.422v.828c0,.3-.1.441-.316.441h-.832a1.076,1.076,0,0,0,.093-.463v-.806h-.422v.858c0,.272-.1.411-.318.411h-.406a.765.765,0,0,0,.085-.456v-.813h-.421v.855c0,.276-.1.414-.318.414h-.388v-.022A.92.92,0,0,0,150,93.3v-.813h-.422v.828c0,.3-.1.441-.318.441h-8.633c-.28,0-.418-.157-.418-.448V92.123h-.922c-.478,0-.772.348-.772.907a.78.78,0,0,0,.772.877.574.574,0,0,0,.478-.28.7.7,0,0,0,.676.552h14.552c.425,0,.724-.351.724-.888v-.806h-.422Zm-15.518-.355c0,.318-.164.571-.437.571-.25,0-.411-.246-.411-.534,0-.346.179-.578.471-.578h.377Z" transform="translate(-56.913 -37.852)" fill="#1a1818"/>
        <path id="Path_30044" data-name="Path 30044" d="M169.75,91.633h-.358a.125.125,0,0,1-.067-.13c0-.093.037-.142.108-.142.049,0,.083.033.1.1l.209-.1a.325.325,0,0,0-.314-.22.354.354,0,0,0-.35.369.513.513,0,0,0,.018.123h-.179v.235h.828Z" transform="translate(-69.408 -37.448)" fill="#1a1818"/>
        <path id="Path_30045" data-name="Path 30045" d="M171.708,93.027a.845.845,0,0,0-.836.959l0,.019h-.924v-.433a.779.779,0,0,0-.776-.839.8.8,0,0,0-.836.828.836.836,0,0,0,.817.87h.4a.383.383,0,0,1-.414.287v.329c.485,0,.757-.206.814-.616h1.076a.793.793,0,0,0,.676.332.816.816,0,0,0,.835-.862.83.83,0,0,0-.835-.873M169.534,94h-.37a.434.434,0,0,1-.4-.467.389.389,0,0,1,.4-.422.37.37,0,0,1,.366.378Zm2.184.369a.448.448,0,0,1-.425-.492.428.428,0,0,1,.4-.478.446.446,0,0,1,.418.5.419.419,0,0,1-.4.474" transform="translate(-69.169 -38.102)" fill="#1a1818"/>
      </g>
    </g>
  </g>
</svg>
