<svg xmlns="http://www.w3.org/2000/svg" width="25.512" height="20.122" viewBox="0 0 25.512 20.122">
  <g id="Group_71272" data-name="Group 71272" transform="translate(883.251 -594.649)">
    <g id="Group_71273" data-name="Group 71273" transform="translate(-883.251 594.649)">
      <g id="Group_71272-2" data-name="Group 71272" transform="translate(0)">
        <path id="Path_32583" data-name="Path 32583" d="M-738.014,607.135c-.068.219-.119.446-.208.657a1.658,1.658,0,0,1-1.459,1.076c-.082.008-.164.01-.271.017l.568,2.323c-.127-.068-.2-.108-.28-.152-1.172-.689-2.343-1.382-3.519-2.064a.883.883,0,0,0-.419-.112c-3.354-.006-6.707,0-10.061-.005a2.634,2.634,0,0,1-2.315-1.222,1.79,1.79,0,0,1-.272-1.267h.313q6.613,0,13.224,0a2.074,2.074,0,0,0,1.6-.61,2.166,2.166,0,0,0,.561-1.2,4.326,4.326,0,0,0,.045-.645q0-3.585,0-7.172v-.3a2.066,2.066,0,0,1,2.193.676,4.446,4.446,0,0,1,.3.725Z" transform="translate(763.526 -591.085)" fill="#b7b7b7"/>
        <path id="Path_32584" data-name="Path 32584" d="M-761.427,608.593l.83-3.166c-.457-.147-.89-.261-1.3-.423a2.055,2.055,0,0,1-1.042-.815,1.729,1.729,0,0,1-.294-.822q-.03-4.82-.007-9.64a2.193,2.193,0,0,1,1.055-1.719,3.531,3.531,0,0,1,2.225-.723c5.165.012,10.329,0,15.494.007a2.758,2.758,0,0,1,2.557,1.56,2.189,2.189,0,0,1,.226,1c.017,3.1-.006,6.2.02,9.291a2.078,2.078,0,0,1-1.317,1.952,3.647,3.647,0,0,1-1.552.3q-5.591,0-11.184.005a1.012,1.012,0,0,0-.485.135c-1.642.955-3.278,1.92-4.915,2.883Zm3.667-12.039a1.434,1.434,0,0,0-1.495,1.377,1.443,1.443,0,0,0,1.347,1.478,1.441,1.441,0,0,0,1.519-1.379A1.437,1.437,0,0,0-757.76,596.554Zm10.648,2.858a1.449,1.449,0,0,0,1.445-1.435,1.443,1.443,0,0,0-1.427-1.427,1.447,1.447,0,0,0-1.446,1.434A1.449,1.449,0,0,0-747.111,599.412Zm-6.777-1.445a1.429,1.429,0,0,0,1.426,1.446,1.434,1.434,0,0,0,1.429-1.42,1.434,1.434,0,0,0-1.428-1.446A1.43,1.43,0,0,0-753.888,597.967Z" transform="translate(763.251 -591.285)" fill="#3d6398"/>
      </g>
    </g>
  </g>
</svg>
