<svg xmlns="http://www.w3.org/2000/svg" width="30.845" height="30.845" viewBox="0 0 30.845 30.845">
  <g id="Group_72278" data-name="Group 72278" transform="translate(0.75 0.75)">
    <path id="Path_72093" data-name="Path 72093" d="M441.362,157.85h0a14.672,14.672,0,0,1-14.672-14.672h0a14.672,14.672,0,0,1,14.672-14.673h0a14.673,14.673,0,0,1,14.673,14.673h0A14.673,14.673,0,0,1,441.362,157.85Z" transform="translate(-426.69 -128.505)" fill="none" stroke="#092853" stroke-width="1.5"/>
    <g id="Group_72277" data-name="Group 72277" transform="translate(6.627 6.627)">
      <path id="Path_72094" data-name="Path 72094" d="M443.331,138.55c2.148,0,2.4.008,3.251.047a4.457,4.457,0,0,1,1.493.278A2.659,2.659,0,0,1,449.6,140.4a4.458,4.458,0,0,1,.278,1.493c.039.849.047,1.1.047,3.251s-.008,2.4-.047,3.251a4.46,4.46,0,0,1-.278,1.494,2.659,2.659,0,0,1-1.527,1.527,4.442,4.442,0,0,1-1.493.277c-.849.039-1.1.047-3.251.047s-2.4-.008-3.25-.047a4.449,4.449,0,0,1-1.494-.277,2.665,2.665,0,0,1-1.527-1.527,4.444,4.444,0,0,1-.277-1.494c-.039-.848-.047-1.1-.047-3.251s.008-2.4.047-3.251a4.443,4.443,0,0,1,.277-1.493,2.665,2.665,0,0,1,1.527-1.527,4.463,4.463,0,0,1,1.494-.278c.848-.039,1.1-.047,3.25-.047m0-1.449c-2.185,0-2.459.01-3.317.049a5.91,5.91,0,0,0-1.953.374,4.114,4.114,0,0,0-2.352,2.353,5.891,5.891,0,0,0-.374,1.953c-.039.858-.049,1.132-.049,3.317s.009,2.459.049,3.317a5.891,5.891,0,0,0,.374,1.953,4.114,4.114,0,0,0,2.352,2.353,5.931,5.931,0,0,0,1.953.374c.858.039,1.132.048,3.317.048s2.459-.009,3.317-.048a5.931,5.931,0,0,0,1.953-.374,4.118,4.118,0,0,0,2.353-2.353,5.91,5.91,0,0,0,.374-1.953c.039-.858.049-1.132.049-3.317s-.009-2.459-.049-3.317a5.91,5.91,0,0,0-.374-1.953,4.118,4.118,0,0,0-2.353-2.353,5.911,5.911,0,0,0-1.953-.374c-.858-.039-1.132-.049-3.317-.049" transform="translate(-435.286 -137.101)" fill="#3d6398"/>
      <path id="Path_72095" data-name="Path 72095" d="M444.493,142.178a4.131,4.131,0,1,0,4.131,4.131,4.131,4.131,0,0,0-4.131-4.131m0,6.813a2.682,2.682,0,1,1,2.682-2.682,2.681,2.681,0,0,1-2.682,2.682" transform="translate(-436.448 -138.264)" fill="#3d6398"/>
      <path id="Path_72096" data-name="Path 72096" d="M451.969,141.679a.965.965,0,1,1-.965-.965.965.965,0,0,1,.965.965" transform="translate(-438.664 -137.928)" fill="#3d6398"/>
    </g>
  </g>
</svg>
