<svg xmlns="http://www.w3.org/2000/svg" width="30.845" height="30.845" viewBox="0 0 30.845 30.845">
  <g id="Group_72271" data-name="Group 72271" transform="translate(0.75 0.75)">
    <path id="Path_72085" data-name="Path 72085" d="M330.183,319.625h0a14.672,14.672,0,0,1-14.672-14.672h0a14.672,14.672,0,0,1,14.672-14.673h0a14.672,14.672,0,0,1,14.673,14.673h0A14.672,14.672,0,0,1,330.183,319.625Z" transform="translate(-315.511 -290.28)" fill="none" stroke="#092853" stroke-width="1.5"/>
    <g id="Group_72270" data-name="Group 72270" transform="translate(5.977 8.546)">
      <path id="Path_72086" data-name="Path 72086" d="M336.34,300.493a2.185,2.185,0,0,0-1.538-1.547,63.263,63.263,0,0,0-13.59,0,2.186,2.186,0,0,0-1.538,1.547,24.629,24.629,0,0,0,0,8.427,2.187,2.187,0,0,0,1.538,1.548,63.358,63.358,0,0,0,13.59,0,2.187,2.187,0,0,0,1.538-1.548,24.625,24.625,0,0,0,0-8.427Z" transform="translate(-319.311 -298.58)" fill="#3d6398"/>
      <path id="Path_72087" data-name="Path 72087" d="M331.426,309.953v-5.172l4.546,2.586Z" transform="translate(-324.509 -301.241)" fill="#fff"/>
    </g>
  </g>
</svg>
