<svg xmlns="http://www.w3.org/2000/svg" width="23.648" height="18.83" viewBox="0 0 23.648 18.83">
  <g id="Group_70668" data-name="Group 70668" transform="translate(402 -356.141)">
    <path id="Path_29964" data-name="Path 29964" d="M-402,365.557a2.543,2.543,0,0,1,.292-.346q5.131-4.283,10.269-8.558a1.815,1.815,0,0,1,2.53,0q1.605,1.338,3.206,2.68c.058.049.119.094.21.167.006-.107.013-.178.013-.25,0-.816,0-1.632,0-2.448,0-.467.153-.617.625-.617q1.259,0,2.517,0c.449,0,.61.164.611.615,0,1.87,0,3.741,0,5.611a.446.446,0,0,0,.184.387c.963.792,1.92,1.591,2.879,2.387.39.324.412.546.091.93-.237.283-.473.568-.712.849a.513.513,0,0,1-.834.071l-9.753-8.132-.3-.249-1.1.914-8.937,7.452a.523.523,0,0,1-.868-.074c-.309-.37-.614-.744-.92-1.116Z" transform="translate(0 0)" fill="#b7b7b7"/>
    <path id="Path_29965" data-name="Path 29965" d="M-339.271,430.385v-5.6h-3.764V430.4h-5.453a.986.986,0,0,1-1.119-1.12q0-3.348,0-6.7a.428.428,0,0,1,.161-.377q4.048-3.327,8.089-6.663c.064-.053.132-.1.209-.162l1.8,1.485q3.233,2.665,6.467,5.328a.429.429,0,0,1,.178.369c0,2.27,0,4.541,0,6.811a.951.951,0,0,1-1.005,1.022c-1.8.006-3.6,0-5.4,0C-339.158,430.4-339.2,430.392-339.271,430.385Z" transform="translate(-49.02 -55.431)" fill="#3d6398"/>
  </g>
</svg>
