<svg xmlns="http://www.w3.org/2000/svg" width="48.42" height="59.084" viewBox="0 0 48.42 59.084">
  <g id="Group_72224" data-name="Group 72224" transform="translate(-1178.582 -674.646)">
    <g id="Group_72229" data-name="Group 72229" transform="translate(1178.582 674.646)">
      <path id="Path_72042" data-name="Path 72042" d="M1218.859,684.266H1211.5l-.51-2.189a1.532,1.532,0,0,0-1.493-1.192h-1.033a5.551,5.551,0,0,0-11.1,0h-1.033a1.531,1.531,0,0,0-1.493,1.192l-.511,2.189h-7.364a7.612,7.612,0,0,0-7.591,7.59v33.732a7.612,7.612,0,0,0,7.591,7.59h31.9a7.611,7.611,0,0,0,7.59-7.59V691.85A7.611,7.611,0,0,0,1218.859,684.266Zm-15.952-6.184a2.882,2.882,0,0,1,2.878,2.81h-5.755a2.884,2.884,0,0,1,2.877-2.816Z" transform="translate(-1178.031 -674.094)" fill="#d9d9d9"/>
      <rect id="Rectangle_8962" data-name="Rectangle 8962" width="47.084" height="48.911" rx="4" transform="translate(0 8.832)" fill="#092853"/>
      <rect id="Rectangle_8963" data-name="Rectangle 8963" width="40.13" height="41.32" rx="4" transform="translate(3.476 11.501)" fill="#fff"/>
      <g id="Group_72224-2" data-name="Group 72224-2" transform="translate(14.875 8.827)">
        <path id="Path_72043" data-name="Path 72043" d="M1187.361,683.577a1.534,1.534,0,0,0,1.493,1.881h15.671a1.533,1.533,0,0,0,1.534-1.53,1.515,1.515,0,0,0-.041-.351l-.873-3.745h-16.912Z" transform="translate(-1187.32 -679.832)" fill="#aaa39d"/>
      </g>
      <path id="Path_72044" data-name="Path 72044" d="M1205.6,686.657l-1.253-5.366a1.532,1.532,0,0,0-1.493-1.192h-1.033a5.551,5.551,0,0,0-11.1,0H1189.7a1.532,1.532,0,0,0-1.493,1.192l-1.253,5.366a1.533,1.533,0,0,0,1.493,1.881h15.671a1.532,1.532,0,0,0,1.529-1.535A1.66,1.66,0,0,0,1205.6,686.657Zm-9.328-9.362a2.882,2.882,0,0,1,2.877,2.81H1193.4a2.882,2.882,0,0,1,2.879-2.81Z" transform="translate(-1172.733 -674.647)" fill="#c4c4c4"/>
      <g id="Group_72226" data-name="Group 72226" transform="translate(8.906 18.95)">
        <path id="Path_72045" data-name="Path 72045" d="M1188.81,695.773h0a5.012,5.012,0,0,1-5-5h0a5.011,5.011,0,0,1,5-5h0a5.011,5.011,0,0,1,5,5h0A5.013,5.013,0,0,1,1188.81,695.773Z" transform="translate(-1183.814 -685.779)" fill="#092853"/>
        <path id="Path_72046" data-name="Path 72046" d="M1188.059,693.2h0a3.186,3.186,0,0,1-3.176-3.176h0a3.186,3.186,0,0,1,3.176-3.176h0a3.187,3.187,0,0,1,3.177,3.176h0A3.187,3.187,0,0,1,1188.059,693.2Z" transform="translate(-1183.063 -685.028)" fill="#3d6398"/>
        <g id="Group_72225" data-name="Group 72225" transform="translate(3.168 1.469)">
          <path id="Path_72047" data-name="Path 72047" d="M1187.519,691.6a.462.462,0,0,1-.341-.153l-1.343-1.491a.463.463,0,0,1,.606-.7.426.426,0,0,1,.075.082l.839.931a7.121,7.121,0,0,1,3.321-3.592.463.463,0,0,1,.39.839,6.6,6.6,0,0,0-3.108,3.754.463.463,0,0,1-.443.332Z" transform="translate(-1185.675 -686.642)" fill="#fff"/>
        </g>
      </g>
      <g id="Group_72228" data-name="Group 72228" transform="translate(8.906 32.163)">
        <path id="Path_72048" data-name="Path 72048" d="M1188.81,703.535h0a5.012,5.012,0,0,1-5-5h0a5.011,5.011,0,0,1,5-5h0a5.011,5.011,0,0,1,5,5h0A5.013,5.013,0,0,1,1188.81,703.535Z" transform="translate(-1183.814 -693.541)" fill="#092853"/>
        <path id="Path_72049" data-name="Path 72049" d="M1188.059,700.964h0a3.186,3.186,0,0,1-3.176-3.176h0a3.186,3.186,0,0,1,3.176-3.176h0a3.186,3.186,0,0,1,3.177,3.176h0A3.187,3.187,0,0,1,1188.059,700.964Z" transform="translate(-1183.063 -692.79)" fill="#3d6398"/>
        <g id="Group_72227" data-name="Group 72227" transform="translate(3.242 1.455)">
          <path id="Path_72050" data-name="Path 72050" d="M1187.488,699.37a.463.463,0,0,1-.341-.153l-1.343-1.491a.463.463,0,0,1,.681-.618l.839.931a7.123,7.123,0,0,1,3.321-3.592.463.463,0,1,1,.422.824l-.032.015a6.6,6.6,0,0,0-3.108,3.754.461.461,0,0,1-.443.332Z" transform="translate(-1185.719 -694.396)" fill="#fff"/>
        </g>
      </g>
      <path id="Path_72051" data-name="Path 72051" d="M1205.441,690.621h-11.805a1.268,1.268,0,0,1-1.265-1.265h0a1.268,1.268,0,0,1,1.265-1.265h11.805a1.268,1.268,0,0,1,1.265,1.265h0A1.268,1.268,0,0,1,1205.441,690.621Z" transform="translate(-1168.899 -665.205)" fill="#3d6398"/>
      <path id="Path_72052" data-name="Path 72052" d="M1205.452,697.91h-11.807a1.191,1.191,0,0,1-1.192-1.192h0a1.191,1.191,0,0,1,1.192-1.192h11.807a1.192,1.192,0,0,1,1.192,1.192h0a1.192,1.192,0,0,1-1.192,1.192Z" transform="translate(-1168.84 -659.983)" fill="#3d6398"/>
    </g>
  </g>
</svg>
