<svg xmlns="http://www.w3.org/2000/svg" width="19.679" height="19.72" viewBox="0 0 19.679 19.72">
  <g id="Group_71483" data-name="Group 71483" transform="translate(1435.939 -616.2)">
    <path id="Path_30990" data-name="Path 30990" d="M-1426.675,616.2h1.153c.062.012.124.026.187.035.43.062.866.1,1.289.189a9.619,9.619,0,0,1,5.747,3.643,9.6,9.6,0,0,1,1.988,6.982,9.536,9.536,0,0,1-2.389,5.5,9.659,9.659,0,0,1-5.7,3.221c-.37.066-.746.1-1.119.153h-1.153a1.057,1.057,0,0,0-.148-.032,9.351,9.351,0,0,1-4.293-1.357,9.732,9.732,0,0,1-4.669-6.775c-.069-.37-.1-.746-.153-1.119v-1.155c.016-.139.032-.277.047-.416a9.751,9.751,0,0,1,2.472-5.58,9.648,9.648,0,0,1,5.627-3.133C-1427.423,616.288-1427.048,616.25-1426.675,616.2Zm.582.82a9.054,9.054,0,0,0-9.028,9.034,9.054,9.054,0,0,0,9.017,9.046,9.054,9.054,0,0,0,9.028-9.034A9.054,9.054,0,0,0-1426.093,617.02Z" fill="#3d6398"/>
    <path id="Path_30991" data-name="Path 30991" d="M-1247.285,670.989c0,.995,0,1.989,0,2.984a.328.328,0,0,0,.128.3.683.683,0,0,1,.266.646.3.3,0,0,0,.111.281q1.476,1.474,2.948,2.953c.268.268.3.509.106.7s-.422.145-.684-.117q-1.481-1.483-2.961-2.968a.287.287,0,0,0-.266-.1.793.793,0,0,1-.813-.489.778.778,0,0,1,.215-.907.332.332,0,0,0,.128-.3q0-2.955,0-5.91a1.383,1.383,0,0,1,.029-.3.4.4,0,0,1,.383-.293.4.4,0,0,1,.383.293,1.279,1.279,0,0,1,.028.286Q-1247.283,669.517-1247.285,670.989Z" transform="translate(-178.401 -48.797)" fill="#3d6398"/>
  </g>
</svg>
