<svg xmlns="http://www.w3.org/2000/svg" width="34.163" height="45.247" viewBox="0 0 34.163 45.247">
  <g id="Group_72991" data-name="Group 72991" transform="translate(-88.592 -178.5)">
    <path id="Subtraction_1" data-name="Subtraction 1" d="M-5768.418-3467.878h0c-.042-.046-4.208-4.682-8.29-10.336a73.491,73.491,0,0,1-5.7-9.037c-1.719-3.33-2.591-6.078-2.591-8.166a16.473,16.473,0,0,1,4.856-11.725,16.473,16.473,0,0,1,11.725-4.856,16.473,16.473,0,0,1,11.725,4.856,16.473,16.473,0,0,1,4.856,11.725c0,2.089-.872,4.836-2.591,8.166a73.491,73.491,0,0,1-5.7,9.037c-4.083,5.653-8.249,10.29-8.29,10.336Zm0-40.951a12.7,12.7,0,0,0-12.688,12.689,12.7,12.7,0,0,0,12.688,12.689,12.7,12.7,0,0,0,12.689-12.689A12.7,12.7,0,0,0-5768.418-3508.829Z" transform="translate(5874.092 3691)" fill="#fff" stroke="rgba(0,0,0,0)" stroke-width="1"/>
    <circle id="Ellipse_1420" data-name="Ellipse 1420" cx="12.689" cy="12.689" r="12.689" transform="translate(92.984 182.172)" fill="none" stroke="#c1d6ef" stroke-width="1"/>
  </g>
</svg>
