<svg xmlns="http://www.w3.org/2000/svg" width="23.742" height="23.746" viewBox="0 0 23.742 23.746">
  <g id="Group_73000" data-name="Group 73000" transform="translate(134.975 -122)">
    <path id="Path_76198" data-name="Path 76198" d="M-134.972,134.412c0-2.065-.009-4.13,0-6.194a4.852,4.852,0,0,1,3.816-4.8,5.647,5.647,0,0,1,1.191-.122c2.357-.011,4.715-.006,7.074-.006.054,0,.107,0,.161,0a.776.776,0,0,1,.8.786.77.77,0,0,1-.828.754q-3.591,0-7.181,0a4.018,4.018,0,0,0-.585.033,3.312,3.312,0,0,0-2.917,3.315q-.024,6.261,0,12.522a3.3,3.3,0,0,0,3.33,3.328q6.259.032,12.518,0a3.327,3.327,0,0,0,3.346-3.425q0-3.565,0-7.129a1.457,1.457,0,0,1,.055-.445.748.748,0,0,1,.717-.5.762.762,0,0,1,.719.541,1.474,1.474,0,0,1,.044.394q.005,3.552,0,7.1a4.875,4.875,0,0,1-4.994,5q-6.153.01-12.306,0a5.345,5.345,0,0,1-1.086-.1,4.847,4.847,0,0,1-3.884-4.829C-134.98,138.56-134.972,136.486-134.972,134.412Z" transform="translate(0 0.178)" fill="#3d6398"/>
    <path id="Path_76199" data-name="Path 76199" d="M-118.315,132.75a1.436,1.436,0,0,1-.356.926c-.491.587-.99,1.167-1.468,1.764a.685.685,0,0,0-.139.426c.035.737.076,1.475.154,2.209a1.439,1.439,0,0,1-2.076,1.473c-.654-.3-1.335-.539-2-.819a.6.6,0,0,0-.507,0c-.664.277-1.332.544-2,.812a1.427,1.427,0,0,1-2.069-1.5c.046-.737.112-1.474.148-2.211a.655.655,0,0,0-.138-.4c-.468-.581-.959-1.146-1.434-1.723a1.411,1.411,0,0,1,.794-2.376c.715-.177,1.433-.347,2.143-.542a.681.681,0,0,0,.362-.261c.41-.625.8-1.264,1.2-1.9a1.418,1.418,0,0,1,2.509,0c.4.631.785,1.271,1.192,1.9a.65.65,0,0,0,.341.248c.746.2,1.5.371,2.247.567A1.411,1.411,0,0,1-118.315,132.75Zm-10.629.056.227.274c.479.572.975,1.133,1.432,1.723a1.314,1.314,0,0,1,.23.654,5.35,5.35,0,0,1-.051.85c-.041.584-.08,1.168-.121,1.779.1-.034.173-.057.246-.087.708-.285,1.418-.565,2.122-.86a1.017,1.017,0,0,1,.826,0c.689.284,1.381.56,2.073.839.085.035.172.068.292.116-.046-.683-.039-1.329-.143-1.957a1.938,1.938,0,0,1,.59-1.827c.456-.457.838-.984,1.273-1.5-.811-.2-1.581-.416-2.357-.587a1.226,1.226,0,0,1-.852-.61c-.407-.687-.84-1.356-1.28-2.061-.067.1-.12.164-.165.236-.391.625-.79,1.246-1.167,1.879a1.115,1.115,0,0,1-.749.542C-127.317,132.39-128.107,132.6-128.944,132.805Z" transform="translate(0.609 0.817)" fill="#4e4e4e"/>
    <path id="Path_76200" data-name="Path 76200" d="M-122.217,126.608A4.588,4.588,0,0,1-117.606,122a4.586,4.586,0,0,1,4.6,4.617,4.588,4.588,0,0,1-4.6,4.6A4.588,4.588,0,0,1-122.217,126.608Zm7.679-.036a3.068,3.068,0,0,0-3.107-3.037,3.069,3.069,0,0,0-3.039,3.107,3.07,3.07,0,0,0,3.108,3.039A3.067,3.067,0,0,0-114.538,126.571Z" transform="translate(1.772)" fill="#4e4e4e"/>
    <path id="Path_76201" data-name="Path 76201" d="M-117.911,128.382a.764.764,0,0,1-.769-.756c-.033-.535-.033-.535-.558-.564A.764.764,0,0,1-120,126.3a.763.763,0,0,1,.762-.764c.174-.01.413.038.5-.056s.042-.333.054-.508a.761.761,0,0,1,.769-.755.765.765,0,0,1,.757.769c.025.523.025.523.542.55a.766.766,0,0,1,.777.777.768.768,0,0,1-.776.752c-.518.024-.518.024-.543.549A.766.766,0,0,1-117.911,128.382Z" transform="translate(2.08 0.308)" fill="#3d6398"/>
  </g>
</svg>
