<svg xmlns="http://www.w3.org/2000/svg" width="42.732" height="42.784" viewBox="0 0 42.732 42.784">
  <g id="Group_73001" data-name="Group 73001" transform="translate(170.241 -80.811)">
    <path id="Path_76203" data-name="Path 76203" d="M-134.015,101.51a16,16,0,0,1-.4,4.665,10.651,10.651,0,0,1-.7,1.689.477.477,0,0,0,.063.611q1.5,1.844,2.981,3.707a2.9,2.9,0,0,1,.027,3.85q-2.591,3.295-5.207,6.574a2.591,2.591,0,0,1-2.75.9,2.1,2.1,0,0,1-1.682-1.891,2.561,2.561,0,0,1,.4-1.338c1.089-1.724,2.228-3.422,3.373-5.118a.474.474,0,0,0-.066-.7q-2.048-2.233-4.053-4.5a.685.685,0,0,0-.773-.22,27.511,27.511,0,0,1-7.551.67c-.608-.036-1.215-.112-1.817-.2-.568-.08-.852-.4-.783-.808.065-.391.433-.621.986-.537a25.243,25.243,0,0,0,9.5-.59,1.064,1.064,0,0,1,1.14.353q2.458,2.794,4.956,5.561a.741.741,0,0,1,.077,1.05c-1.229,1.818-2.439,3.646-3.655,5.471a3.636,3.636,0,0,0-.256.413.677.677,0,0,0,.264.922.932.932,0,0,0,1.074.052,1.809,1.809,0,0,0,.457-.436q2.443-3.072,4.875-6.151a2,2,0,0,0-.015-2.852c-1.034-1.3-2.058-2.6-3.111-3.889a.921.921,0,0,1-.055-1.288,7.312,7.312,0,0,0,1.128-4.259c.031-1.292-.011-2.585.015-3.877a8.389,8.389,0,0,1,.863-3.938,5.672,5.672,0,0,1,.78-1.132,1.937,1.937,0,0,1,2.756-.217,9.884,9.884,0,0,1,1.288,1.275c.728.821,1.4,1.684,2.146,2.49a7.2,7.2,0,0,0,1.316,1.063,2.21,2.21,0,0,0,1.883.246c.616-.178.859-.385.812-.963a11.033,11.033,0,0,0-.393-2.374,66.228,66.228,0,0,0-4.755-10.839.466.466,0,0,0-.343-.213,17.152,17.152,0,0,0-7.4,1.816,9.269,9.269,0,0,0-3.222,3.091c-.5.768-.993,1.542-1.459,2.328a9.355,9.355,0,0,1-7.3,4.529c-1.633.2-3.3.216-4.949.294a.753.753,0,0,1-.822-.64.732.732,0,0,1,.784-.671,5.724,5.724,0,0,0,4.535-2.258,21.164,21.164,0,0,0,2.579-4.271c.548-1.084,1.065-2.184,1.683-3.237a9.972,9.972,0,0,1,7.79-4.771c2.139-.279,2.141-.239,3.723,1.042.631.511,1.267,1.019,1.931,1.5a1.212,1.212,0,0,0,.688.173c.689-.023,1.376-.1,2.065-.141a.871.871,0,0,1,.887.477,61.034,61.034,0,0,1,4.722,10.618,10.034,10.034,0,0,1,.59,3.733c-.148,1.85-1.762,2.836-3.746,2.239a5.649,5.649,0,0,1-1.909-1.036,18.324,18.324,0,0,1-1.912-1.987c-.652-.728-1.244-1.5-1.913-2.215-.462-.5-.716-.447-1.083.118a7,7,0,0,0-1.046,3.63C-134.041,99.9-134.015,100.707-134.015,101.51Z" transform="translate(-5.127)" fill="#fff"/>
    <path id="Path_76204" data-name="Path 76204" d="M-155.171,83.9q2.144,0,4.288,0a2.459,2.459,0,0,1,.384.021.749.749,0,0,1,.67.8.7.7,0,0,1-.746.67c-.449.01-.9,0-1.349-.007q-3.733-.06-7.468-.122c-.814-.014-1.109-.217-1.112-.744s.341-.766,1.142-.764c1.4,0,2.794,0,4.191,0Z" transform="translate(-1.343)" fill="#fff"/>
    <path id="Path_76205" data-name="Path 76205" d="M-157.86,108.01c-1.495,0-2.99.008-4.484,0-.556,0-.9-.354-.849-.821a.688.688,0,0,1,.753-.656c.659,0,1.318,0,1.977.015q3.423.053,6.847.109c.1,0,.193,0,.289.01a.812.812,0,0,1,.815.785.775.775,0,0,1-.864.716c-1.495,0-2.989,0-4.484,0Z" transform="translate(0 -2.853)" fill="#fff"/>
    <path id="Path_76206" data-name="Path 76206" d="M-151.411,101.714c1.445,0,2.89,0,4.335,0,.175,0,.4-.031.512.063.222.195.524.465.522.7s-.317.489-.534.693c-.083.078-.276.053-.419.05q-4.407-.073-8.814-.156c-.572-.011-.909-.313-.892-.782s.327-.7.906-.7q2.193,0,4.384,0Z" transform="translate(-1.866 -2.305)" fill="#fff"/>
    <path id="Path_76207" data-name="Path 76207" d="M-160.269,89.152c1.462,0,2.924,0,4.386,0,.579,0,.917.3.9.768-.016.444-.351.717-.908.709q-4.434-.058-8.87-.128c-.579-.009-.925-.3-.925-.76s.361-.75.933-.75q2.241,0,4.483,0Z" transform="translate(0 -0.907)" fill="#fff"/>
    <path id="Path_76208" data-name="Path 76208" d="M-161.1,116.473c1.493,0,2.986,0,4.479,0,.555,0,.879.287.877.739a.78.78,0,0,1-.879.754q-4.5-.066-9.005-.148a.759.759,0,0,1-.808-.771.768.768,0,0,1,.857-.722c1.493-.006,2.986,0,4.479,0Z" transform="translate(0 -3.94)" fill="#fff"/>
    <path id="Path_76209" data-name="Path 76209" d="M-128.749,91.348a1.4,1.4,0,0,1-1.382,1.435,1.49,1.49,0,0,1-1.483-1.464,1.444,1.444,0,0,1,1.458-1.37A1.376,1.376,0,0,1-128.749,91.348Z" transform="translate(-5.127 -1.041)" fill="#fff"/>
    <path id="Path_76210" data-name="Path 76210" d="M-166.244,106.527a.754.754,0,0,1,.7.762.745.745,0,0,1-.758.709.76.76,0,0,1-.735-.737A.767.767,0,0,1-166.244,106.527Z" transform="translate(0 -2.842)" fill="#fff"/>
    <path id="Path_76211" data-name="Path 76211" d="M-162.852,84.554a.748.748,0,0,1-.777.689.767.767,0,0,1-.707-.766.775.775,0,0,1,.807-.715A.767.767,0,0,1-162.852,84.554Z" fill="#fff"/>
    <path id="Path_76212" data-name="Path 76212" d="M-159.751,102.983a.73.73,0,0,1-.752-.7.741.741,0,0,1,.691-.768.75.75,0,0,1,.782.73A.745.745,0,0,1-159.751,102.983Z" transform="translate(-1.076 -2.288)" fill="#fff"/>
    <path id="Path_76213" data-name="Path 76213" d="M-169.5,117.736a.742.742,0,0,1-.739-.723.689.689,0,0,1,.735-.71.682.682,0,0,1,.736.7A.741.741,0,0,1-169.5,117.736Z" transform="translate(0 -3.92)" fill="#fff"/>
    <path id="Path_76214" data-name="Path 76214" d="M-168.012,89.677a.765.765,0,0,1-.736.737.754.754,0,0,1-.743-.771.684.684,0,0,1,.729-.666A.7.7,0,0,1-168.012,89.677Z" transform="translate(0 -0.902)" fill="#fff"/>
  </g>
</svg>
