<svg xmlns="http://www.w3.org/2000/svg" width="22.382" height="20.487" viewBox="0 0 22.382 20.487">
  <path id="Path_76223" data-name="Path 76223" d="M-474.316-52.874c.5-.609.978-1.211,1.474-1.8a53.68,53.68,0,0,1,9.352-8.929,2.882,2.882,0,0,1,2.528-.82c.415,0,.829,0,1.244,0a.542.542,0,0,1,.547.366.523.523,0,0,1-.161.613A69.163,69.163,0,0,0-469.8-50.47c-1.326,2-2.553,4.058-3.817,6.1-.359.579-.8.589-1.154.009-1.888-3.072-4.014-5.981-6.119-8.9-.143-.2-.289-.395-.432-.593a.591.591,0,0,1,.085-.935q.642-.637,1.286-1.271a.6.6,0,0,1,.92-.083q2.226,1.547,4.449,3.1C-474.5-53-474.412-52.939-474.316-52.874Z" transform="translate(481.512 64.423)" fill="#039207"/>
</svg>
